SplineFontDB: 3.0
FontName: Megrim
FullName: Megrim
FamilyName: Megrim
Weight: Medium
Copyright: Copyright (c) 2010, 2011 by Daniel Johnson. Released under the terms of the SIL Open Font License.
Version: 20111001
ItalicAngle: 0
UnderlinePosition: -204
UnderlineWidth: 102
Ascent: 1638
Descent: 410
LayerCount: 2
Layer: 0 1 "Back"  1
Layer: 1 1 "Fore"  0
XUID: [1021 338 342 17323]
FSType: 0
OS2Version: 2
OS2_WeightWidthSlopeOnly: 0
OS2_UseTypoMetrics: 1
CreationTime: 1273078717
ModificationTime: 1317489599
PfmFamily: 17
TTFWeight: 500
TTFWidth: 5
LineGap: 0
VLineGap: 0
Panose: 2 0 6 3 0 0 0 0 0 0
OS2TypoAscent: 1803
OS2TypoAOffset: 0
OS2TypoDescent: -410
OS2TypoDOffset: 0
OS2TypoLinegap: 0
OS2WinAscent: 1803
OS2WinAOffset: 0
OS2WinDescent: 410
OS2WinDOffset: 0
HheadAscent: 1803
HheadAOffset: 0
HheadDescent: -410
HheadDOffset: 0
OS2SubXSize: 1331
OS2SubYSize: 1434
OS2SubXOff: 0
OS2SubYOff: 287
OS2SupXSize: 1331
OS2SupYSize: 1434
OS2SupXOff: 0
OS2SupYOff: 983
OS2StrikeYSize: 100
OS2StrikeYPos: 528
OS2Vendor: 'PfEd'
OS2CodePages: 00000001.00000000
OS2UnicodeRanges: 8000002f.0000000a.00000000.00000000
Lookup: 1 0 0 "'aalt' Access All Alternates in Latin lookup 0"  {"'aalt' Access All Alternates in Latin lookup 0 subtable"  } ['aalt' ('latn' <'dflt' > ) ]
Lookup: 1 0 0 "'ss01' Style Set 1 in '    ' lookup 1"  {"'ss01' Style Set 1 in '    ' lookup 1 subtable"  } ['ss01' ('latn' <'dflt' > '    ' <'dflt' > ) ]
Lookup: 1 0 0 "'locl' Localized Forms in Latin lookup 2"  {"'locl' Localized Forms in Latin lookup 2 subtable"  } ['locl' ('latn' <'TRK ' > ) ]
Lookup: 258 0 0 "'kern' Horizontal Kerning in Latin lookup 0"  {"'kern' Horizontal Kerning in Latin lookup 0 per glyph data 0"  "'kern' Horizontal Kerning in Latin lookup 0 kerning class 1"  } ['kern' ('latn' <'dflt' > ) ]
MarkAttachClasses: 1
DEI: 91125
KernClass2: 71+ 52 "'kern' Horizontal Kerning in Latin lookup 0 kerning class 1" 
 20 quotedbl quotesingle
 8 asterisk
 20 hyphen endash emdash

StartChar: .notdef
Encoding: 65536 -1 0
Width: 1024
Flags: MW
LayerCount: 2
Fore
SplineSet
102 0 m 1,0,-1
 102 1188 l 1,1,-1
 922 1188 l 1,2,-1
 922 0 l 1,3,-1
 102 0 l 1,0,-1
164 61 m 1,4,-1
 860 61 l 1,5,-1
 860 1126 l 1,6,-1
 164 1126 l 1,7,-1
 164 61 l 1,4,-1
EndSplineSet
Validated: 1
EndChar

StartChar: exclam
Encoding: 33 33 4
Width: 491
GlyphClass: 2
Flags: MW
LayerCount: 2
Fore
SplineSet
178 119 m 1,0,-1
 313 119 l 1,1,-1
 313 0 l 1,2,-1
 178 0 l 1,3,-1
 178 119 l 1,0,-1
276 276 m 1,4,-1
 215 276 l 1,5,-1
 215 1434 l 1,6,-1
 276 1434 l 1,7,-1
 276 276 l 1,4,-1
EndSplineSet
Validated: 1
EndChar

StartChar: quotedbl
Encoding: 34 34 5
Width: 626
GlyphClass: 2
Flags: MW
LayerCount: 2
Fore
SplineSet
395 1434 m 1,0,-1
 457 1434 l 1,1,-1
 457 1061 l 1,2,-1
 395 1061 l 1,3,-1
 395 1434 l 1,0,-1
170 1434 m 1,4,-1
 231 1434 l 1,5,-1
 231 1061 l 1,6,-1
 170 1061 l 1,7,-1
 170 1434 l 1,4,-1
EndSplineSet
Validated: 1
EndChar

StartChar: numbersign
Encoding: 35 35 6
Width: 1191
GlyphClass: 2
Flags: MW
LayerCount: 2
Fore
SplineSet
299 6 m 1,0,-1
 238 16 l 1,1,-1
 319 481 l 1,2,-1
 117 481 l 1,3,-1
 117 543 l 1,4,-1
 332 543 l 1,5,-1
 393 891 l 1,6,-1
 158 891 l 1,7,-1
 158 952 l 1,8,-1
 403 952 l 1,9,-1
 487 1427 l 1,10,-1
 549 1417 l 1,11,-1
 467 952 l 1,12,-1
 809 952 l 1,13,-1
 893 1427 l 1,14,-1
 954 1417 l 1,15,-1
 872 952 l 1,16,-1
 1075 952 l 1,17,-1
 1075 891 l 1,18,-1
 860 891 l 1,19,-1
 799 543 l 1,20,-1
 1034 543 l 1,21,-1
 1034 481 l 1,22,-1
 788 481 l 1,23,-1
 705 6 l 1,24,-1
 643 16 l 1,25,-1
 725 481 l 1,26,-1
 383 481 l 1,27,-1
 299 6 l 1,0,-1
455 891 m 1,28,-1
 393 543 l 1,29,-1
 737 543 l 1,30,-1
 799 891 l 1,31,-1
 455 891 l 1,28,-1
EndSplineSet
Validated: 1
EndChar

StartChar: dollar
Encoding: 36 36 7
Width: 1077
GlyphClass: 2
Flags: HMW
LayerCount: 2
Fore
SplineSet
547 0 m 1,0,-1
 485 0 l 1,1,-1
 485 96 l 1,2,3
 233 104 233 104 135 209 c 1,4,-1
 176 254 l 1,5,6
 276 162 276 162 485 158 c 1,7,-1
 485 707 l 1,8,9
 405 732 405 732 354 753 c 128,-1,10
 303 774 303 774 249 810 c 128,-1,11
 195 846 195 846 168 899 c 128,-1,12
 141 952 141 952 141 1024 c 0,13,14
 141 1176 141 1176 237.5 1252.5 c 128,-1,15
 334 1329 334 1329 485 1335 c 1,16,-1
 485 1434 l 1,17,-1
 547 1434 l 1,18,-1
 547 1335 l 1,19,20
 774 1329 774 1329 874 1223 c 1,21,-1
 834 1178 l 1,22,23
 742 1266 742 1266 547 1274 c 1,24,-1
 547 754 l 1,25,26
 619 734 619 734 649.5 723.5 c 128,-1,27
 680 713 680 713 740.5 690.5 c 128,-1,28
 801 668 801 668 830.5 645.5 c 128,-1,29
 860 623 860 623 896 588 c 128,-1,30
 932 553 932 553 946.5 508 c 128,-1,31
 961 463 961 463 961 406 c 0,32,33
 961 271 961 271 854.5 187.5 c 128,-1,34
 748 104 748 104 547 96 c 1,35,-1
 547 0 l 1,0,-1
547 688 m 1,36,-1
 547 160 l 1,37,38
 721 170 721 170 810 240.5 c 128,-1,39
 899 311 899 311 899 403 c 0,40,41
 899 454 899 454 877.5 496.5 c 128,-1,42
 856 539 856 539 828.5 565.5 c 128,-1,43
 801 592 801 592 746.5 616.5 c 128,-1,44
 692 641 692 641 654.5 654.5 c 128,-1,45
 617 668 617 668 547 688 c 1,36,-1
485 772 m 1,46,-1
 485 1274 l 1,47,48
 203 1262 203 1262 203 1020 c 0,49,50
 203 920 203 920 275.5 866.5 c 128,-1,51
 348 813 348 813 485 772 c 1,46,-1
EndSplineSet
Validated: 1
EndChar

StartChar: percent
Encoding: 37 37 8
Width: 1191
GlyphClass: 2
Flags: MW
LayerCount: 2
Fore
SplineSet
862 592 m 0,0,1
 801 592 801 592 760 549 c 128,-1,2
 719 506 719 506 719 449 c 0,3,4
 719 388 719 388 762 346.5 c 128,-1,5
 805 305 805 305 862 305 c 0,6,7
 923 305 923 305 964.5 348 c 128,-1,8
 1006 391 1006 391 1006 449 c 0,9,10
 1006 510 1006 510 962.5 551 c 128,-1,11
 919 592 919 592 862 592 c 0,0,1
657 449 m 0,12,13
 657 537 657 537 718.5 595 c 128,-1,14
 780 653 780 653 862 653 c 0,15,16
 950 653 950 653 1008.5 591.5 c 128,-1,17
 1067 530 1067 530 1067 449 c 0,18,19
 1067 361 1067 361 1005.5 302.5 c 128,-1,20
 944 244 944 244 862 244 c 0,21,22
 774 244 774 244 715.5 305.5 c 128,-1,23
 657 367 657 367 657 449 c 0,12,13
326 1128 m 0,24,25
 265 1128 265 1128 223.5 1085 c 128,-1,26
 182 1042 182 1042 182 985 c 0,27,28
 182 924 182 924 225 883 c 128,-1,29
 268 842 268 842 326 842 c 0,30,31
 387 842 387 842 428 885 c 128,-1,32
 469 928 469 928 469 985 c 0,33,34
 469 1046 469 1046 426 1087 c 128,-1,35
 383 1128 383 1128 326 1128 c 0,24,25
121 985 m 0,36,37
 121 1073 121 1073 182.5 1131.5 c 128,-1,38
 244 1190 244 1190 326 1190 c 0,39,40
 414 1190 414 1190 472 1128.5 c 128,-1,41
 530 1067 530 1067 530 985 c 0,42,43
 530 897 530 897 469 838.5 c 128,-1,44
 408 780 408 780 326 780 c 0,45,46
 238 780 238 780 179.5 841.5 c 128,-1,47
 121 903 121 903 121 985 c 0,36,37
283 362 m 1,48,-1
 240 406 l 1,49,-1
 905 1071 l 1,50,-1
 948 1028 l 1,51,-1
 283 362 l 1,48,-1
EndSplineSet
Validated: 1
EndChar

StartChar: ampersand
Encoding: 38 38 9
Width: 1200
GlyphClass: 2
Flags: MW
LayerCount: 2
Fore
SplineSet
330 1372 m 1,0,-1
 909 281 l 1,1,2
 1011 451 1011 451 1012 684 c 1,3,-1
 1073 684 l 1,4,5
 1073 397 1073 397 946 211 c 1,6,-1
 1059 0 l 1,7,-1
 989 0 l 1,8,-1
 905 160 l 1,9,10
 753 -10 753 -10 516 -10 c 0,11,12
 352 -10 352 -10 229 116 c 128,-1,13
 106 242 106 242 106 459 c 0,14,15
 106 629 106 629 215 741.5 c 128,-1,16
 324 854 324 854 520 881 c 1,17,-1
 227 1434 l 1,18,-1
 1012 1434 l 1,19,-1
 1012 1372 l 1,20,-1
 330 1372 l 1,0,-1
870 223 m 1,21,-1
 553 821 l 1,22,23
 381 798 381 798 274.5 698 c 128,-1,24
 168 598 168 598 168 459 c 0,25,26
 168 285 168 285 274.5 168 c 128,-1,27
 381 51 381 51 516 51 c 0,28,29
 733 51 733 51 870 223 c 1,21,-1
EndSplineSet
Validated: 1
EndChar

StartChar: quotesingle
Encoding: 39 39 10
Width: 401
GlyphClass: 2
Flags: MW
LayerCount: 2
Fore
SplineSet
170 1434 m 1,0,-1
 231 1434 l 1,1,-1
 231 1061 l 1,2,-1
 170 1061 l 1,3,-1
 170 1434 l 1,0,-1
EndSplineSet
Validated: 1
EndChar

StartChar: parenleft
Encoding: 40 40 11
Width: 501
GlyphClass: 2
Flags: MW
LayerCount: 2
Fore
SplineSet
168 453 m 2,0,-1
 168 981 l 2,1,2
 168 1411 168 1411 362 1544 c 1,3,-1
 401 1495 l 1,4,5
 229 1378 229 1378 229 981 c 2,6,-1
 229 453 l 2,7,8
 229 56 229 56 401 -61 c 1,9,-1
 362 -111 l 1,10,11
 168 23 168 23 168 453 c 2,0,-1
EndSplineSet
Validated: 1
EndChar

StartChar: parenright
Encoding: 41 41 12
Width: 501
GlyphClass: 2
Flags: MW
LayerCount: 2
Fore
SplineSet
334 981 m 2,0,-1
 334 453 l 2,1,2
 334 23 334 23 139 -111 c 1,3,-1
 100 -61 l 1,4,5
 272 56 272 56 272 453 c 2,6,-1
 272 981 l 2,7,8
 272 1378 272 1378 100 1495 c 1,9,-1
 139 1544 l 1,10,11
 334 1411 334 1411 334 981 c 2,0,-1
EndSplineSet
Validated: 1
EndChar

StartChar: asterisk
Encoding: 42 42 13
Width: 892
GlyphClass: 2
Flags: MW
LayerCount: 2
Fore
SplineSet
270 819 m 1,0,-1
 231 848 l 1,1,-1
 408 1090 l 1,2,-1
 123 1182 l 1,3,-1
 139 1229 l 1,4,-1
 422 1137 l 1,5,-1
 422 1434 l 1,6,-1
 471 1434 l 1,7,-1
 471 1137 l 1,8,-1
 754 1229 l 1,9,-1
 770 1182 l 1,10,-1
 485 1090 l 1,11,-1
 662 848 l 1,12,-1
 623 819 l 1,13,-1
 446 1061 l 1,14,-1
 270 819 l 1,0,-1
EndSplineSet
Validated: 1
EndChar

StartChar: plus
Encoding: 43 43 14
Width: 798
GlyphClass: 2
Flags: MW
LayerCount: 2
Fore
SplineSet
135 481 m 1,0,-1
 135 543 l 1,1,-1
 369 543 l 1,2,-1
 369 776 l 1,3,-1
 430 776 l 1,4,-1
 430 543 l 1,5,-1
 664 543 l 1,6,-1
 664 481 l 1,7,-1
 430 481 l 1,8,-1
 430 248 l 1,9,-1
 369 248 l 1,10,-1
 369 481 l 1,11,-1
 135 481 l 1,0,-1
EndSplineSet
Validated: 1
EndChar

StartChar: comma
Encoding: 44 44 15
Width: 458
GlyphClass: 2
Flags: MW
LayerCount: 2
Fore
SplineSet
135 -319 m 1,0,1
 158 -288 158 -288 189.5 -192 c 128,-1,2
 221 -96 221 -96 221 0 c 1,3,-1
 162 0 l 1,4,-1
 162 119 l 1,5,-1
 297 119 l 1,6,7
 297 -190 297 -190 186 -352 c 1,8,-1
 135 -319 l 1,0,1
EndSplineSet
Validated: 1
EndChar

StartChar: hyphen
Encoding: 45 45 16
Width: 745
GlyphClass: 2
Flags: MW
LayerCount: 2
Fore
SplineSet
170 481 m 1,0,-1
 170 543 l 1,1,-1
 575 543 l 1,2,-1
 575 481 l 1,3,-1
 170 481 l 1,0,-1
EndSplineSet
Validated: 1
EndChar

StartChar: period
Encoding: 46 46 17
Width: 458
GlyphClass: 2
Flags: MW
LayerCount: 2
Fore
SplineSet
162 119 m 1,0,-1
 297 119 l 1,1,-1
 297 0 l 1,2,-1
 162 0 l 1,3,-1
 162 119 l 1,0,-1
EndSplineSet
Validated: 1
EndChar

StartChar: slash
Encoding: 47 47 18
Width: 841
GlyphClass: 2
Flags: HMW
LayerCount: 2
Fore
SplineSet
135 -74 m 1,0,-1
 80 -51 l 1,1,-1
 709 1507 l 1,2,-1
 764 1485 l 1,3,-1
 135 -74 l 1,0,-1
EndSplineSet
Validated: 1
EndChar

StartChar: zero
Encoding: 48 48 19
Width: 1159
GlyphClass: 2
Flags: MW
LayerCount: 2
Fore
SplineSet
579.5 -20 m 128,-1,1
 360 -20 360 -20 255 178.5 c 128,-1,2
 150 377 150 377 150 717 c 128,-1,3
 150 1057 150 1057 255 1255.5 c 128,-1,4
 360 1454 360 1454 579.5 1454 c 128,-1,5
 799 1454 799 1454 904.5 1254.5 c 128,-1,6
 1010 1055 1010 1055 1010 717 c 128,-1,7
 1010 379 1010 379 904.5 179.5 c 128,-1,0
 799 -20 799 -20 579.5 -20 c 128,-1,1
579.5 1393 m 128,-1,9
 401 1393 401 1393 306 1208.5 c 128,-1,10
 211 1024 211 1024 211 717 c 128,-1,11
 211 410 211 410 306 225.5 c 128,-1,12
 401 41 401 41 579.5 41 c 128,-1,13
 758 41 758 41 853 226.5 c 128,-1,14
 948 412 948 412 948 717 c 128,-1,15
 948 1022 948 1022 853 1207.5 c 128,-1,8
 758 1393 758 1393 579.5 1393 c 128,-1,9
EndSplineSet
Validated: 1
EndChar

StartChar: one
Encoding: 49 49 20
Width: 534
GlyphClass: 2
Flags: MW
LayerCount: 2
Fore
SplineSet
330 0 m 1,0,-1
 268 0 l 1,1,-1
 268 1210 l 1,2,-1
 160 836 l 1,3,-1
 96 836 l 1,4,-1
 268 1434 l 1,5,-1
 330 1434 l 1,6,-1
 330 0 l 1,0,-1
EndSplineSet
Validated: 1
EndChar

StartChar: two
Encoding: 50 50 21
Width: 1079
GlyphClass: 2
Flags: MW
LayerCount: 2
Fore
SplineSet
942 0 m 1,0,-1
 131 0 l 1,1,-1
 131 143 l 2,2,3
 131 237 131 237 187.5 329.5 c 128,-1,4
 244 422 244 422 328 491.5 c 128,-1,5
 412 561 412 561 510 638 c 128,-1,6
 608 715 608 715 692 779.5 c 128,-1,7
 776 844 776 844 832.5 924 c 128,-1,8
 889 1004 889 1004 889 1079 c 0,9,10
 889 1181 889 1181 860 1247 c 128,-1,11
 831 1313 831 1313 775 1342.5 c 128,-1,12
 719 1372 719 1372 662.5 1382.5 c 128,-1,13
 606 1393 606 1393 524 1393 c 0,14,15
 405 1393 405 1393 324.5 1337.5 c 128,-1,16
 244 1282 244 1282 201 1145 c 1,17,-1
 422 979 l 1,18,-1
 322 979 l 1,19,-1
 131 1122 l 1,20,21
 174 1290 174 1290 270.5 1372 c 128,-1,22
 367 1454 367 1454 524 1454 c 0,23,24
 749 1454 749 1454 849.5 1366 c 128,-1,25
 950 1278 950 1278 950 1079 c 0,26,27
 950 989 950 989 894 901 c 128,-1,28
 838 813 838 813 754 745.5 c 128,-1,29
 670 678 670 678 571.5 603 c 128,-1,30
 473 528 473 528 389 462.5 c 128,-1,31
 305 397 305 397 249 313 c 128,-1,32
 193 229 193 229 193 143 c 2,33,-1
 193 61 l 1,34,-1
 942 61 l 1,35,-1
 942 0 l 1,0,-1
EndSplineSet
Validated: 1
EndChar

StartChar: three
Encoding: 51 51 22
Width: 1140
GlyphClass: 2
Flags: MW
LayerCount: 2
Fore
SplineSet
178 1434 m 1,0,-1
 981 1434 l 1,1,-1
 549 885 l 1,2,3
 641 873 641 873 721 843 c 128,-1,4
 801 813 801 813 870.5 761 c 128,-1,5
 940 709 940 709 981 625 c 128,-1,6
 1022 541 1022 541 1022 434 c 0,7,8
 1022 223 1022 223 896 101.5 c 128,-1,9
 770 -20 770 -20 555 -20 c 0,10,11
 457 -20 457 -20 371 6.5 c 128,-1,12
 285 33 285 33 232.5 69.5 c 128,-1,13
 180 106 180 106 141 143 c 128,-1,14
 102 180 102 180 86 207 c 2,15,-1
 72 233 l 1,16,-1
 129 258 l 1,17,18
 135 250 135 250 145.5 234.5 c 128,-1,19
 156 219 156 219 194.5 182 c 128,-1,20
 233 145 233 145 278.5 116.5 c 128,-1,21
 324 88 324 88 398.5 64.5 c 128,-1,22
 473 41 473 41 555 41 c 0,23,24
 750 41 750 41 855.5 146.5 c 128,-1,25
 961 252 961 252 961 434 c 0,26,27
 961 604 961 604 844 698.5 c 128,-1,28
 727 793 727 793 541 823 c 2,29,-1
 438 840 l 1,30,-1
 854 1372 l 1,31,-1
 178 1372 l 1,32,-1
 178 1434 l 1,0,-1
EndSplineSet
Validated: 1
EndChar

StartChar: four
Encoding: 52 52 23
Width: 942
GlyphClass: 2
Flags: MW
LayerCount: 2
Fore
SplineSet
690 0 m 1,0,-1
 629 0 l 1,1,-1
 629 418 l 1,2,-1
 68 418 l 1,3,-1
 68 479 l 1,4,-1
 618 1434 l 1,5,-1
 690 1434 l 1,6,-1
 690 479 l 1,7,-1
 854 479 l 1,8,-1
 854 418 l 1,9,-1
 690 418 l 1,10,-1
 690 0 l 1,0,-1
629 479 m 1,11,-1
 629 1329 l 1,12,-1
 139 479 l 1,13,-1
 629 479 l 1,11,-1
EndSplineSet
Validated: 1
EndChar

StartChar: five
Encoding: 53 53 24
Width: 1089
GlyphClass: 2
Flags: MW
LayerCount: 2
Fore
SplineSet
285 987 m 1,0,-1
 508 987 l 2,1,2
 698 987 698 987 839.5 843.5 c 128,-1,3
 981 700 981 700 981 485 c 0,4,5
 981 268 981 268 853 124 c 128,-1,6
 725 -20 725 -20 514 -20 c 0,7,8
 416 -20 416 -20 336 5.5 c 128,-1,9
 256 31 256 31 212 67.5 c 128,-1,10
 168 104 168 104 137 141 c 128,-1,11
 106 178 106 178 98 205 c 1,12,-1
 88 229 l 1,13,-1
 145 254 l 1,14,15
 147 246 147 246 154.5 231.5 c 128,-1,16
 162 217 162 217 190.5 180 c 128,-1,17
 219 143 219 143 257 114.5 c 128,-1,18
 295 86 295 86 363.5 63.5 c 128,-1,19
 432 41 432 41 514 41 c 0,20,21
 702 41 702 41 811 169 c 128,-1,22
 920 297 920 297 920 485 c 0,23,24
 920 665 920 665 796 795.5 c 128,-1,25
 672 926 672 926 500 926 c 2,26,-1
 223 926 l 1,27,-1
 223 1434 l 1,28,-1
 829 1434 l 1,29,-1
 829 1372 l 1,30,-1
 285 1372 l 1,31,-1
 285 987 l 1,0,-1
EndSplineSet
Validated: 1
EndChar

StartChar: six
Encoding: 54 54 25
Width: 1077
GlyphClass: 2
Flags: MW
LayerCount: 2
Fore
SplineSet
172 487 m 0,0,1
 172 280 172 280 282.5 159.5 c 128,-1,2
 393 39 393 39 575 39 c 0,3,4
 710 39 710 39 809.5 110.5 c 128,-1,5
 909 182 909 182 909 354 c 0,6,7
 909 442 909 442 872.5 511 c 128,-1,8
 836 580 836 580 781.5 615.5 c 128,-1,9
 727 651 727 651 676 668.5 c 128,-1,10
 625 686 625 686 586 686 c 0,11,12
 527 686 527 686 466.5 667.5 c 128,-1,13
 406 649 406 649 376 632.5 c 128,-1,14
 346 616 346 616 338 608 c 1,15,-1
 301 659 l 1,16,17
 315 669 315 669 338.5 683.5 c 128,-1,18
 362 698 362 698 436 723 c 128,-1,19
 510 748 510 748 584 748 c 0,20,21
 719 748 719 748 845 644.5 c 128,-1,22
 971 541 971 541 971 352 c 0,23,24
 971 159 971 159 857 69.5 c 128,-1,25
 743 -20 743 -20 573 -20 c 0,26,27
 366 -20 366 -20 238.5 119 c 128,-1,28
 111 258 111 258 111 489 c 0,29,30
 111 620 111 620 159 771 c 128,-1,31
 207 922 207 922 295 1066 c 128,-1,32
 383 1210 383 1210 532.5 1318.5 c 128,-1,33
 682 1427 682 1427 864 1456 c 1,34,-1
 881 1397 l 1,35,36
 744 1377 744 1377 625 1306 c 128,-1,37
 506 1235 506 1235 425 1137.5 c 128,-1,38
 344 1040 344 1040 285.5 924.5 c 128,-1,39
 227 809 227 809 199.5 697 c 128,-1,40
 172 585 172 585 172 487 c 0,0,1
EndSplineSet
Validated: 1
EndChar

StartChar: seven
Encoding: 55 55 26
Width: 843
GlyphClass: 2
Flags: MW
LayerCount: 2
Fore
SplineSet
825 1434 m 1,0,1
 805 1399 805 1399 770 1338.5 c 128,-1,2
 735 1278 735 1278 647 1099 c 128,-1,3
 559 920 559 920 492.5 753 c 128,-1,4
 426 586 426 586 370.5 375 c 128,-1,5
 315 164 315 164 315 0 c 1,6,-1
 254 0 l 1,7,8
 254 227 254 227 343 519 c 128,-1,9
 432 811 432 811 530.5 1016 c 128,-1,10
 629 1221 629 1221 723 1372 c 1,11,-1
 51 1372 l 1,12,-1
 51 1434 l 1,13,-1
 825 1434 l 1,0,1
EndSplineSet
Validated: 1
EndChar

StartChar: eight
Encoding: 56 56 27
Width: 1196
GlyphClass: 2
Flags: MW
LayerCount: 2
Fore
SplineSet
596 -20 m 128,-1,1
 365 -20 365 -20 245 97.5 c 128,-1,2
 125 215 125 215 125 399 c 0,3,4
 125 659 125 659 375 754 c 1,5,6
 203 850 203 850 203 1055 c 0,7,8
 203 1229 203 1229 314.5 1341.5 c 128,-1,9
 426 1454 426 1454 596 1454 c 0,10,11
 768 1454 768 1454 880.5 1341.5 c 128,-1,12
 993 1229 993 1229 993 1055 c 0,13,14
 993 850 993 850 821 754 c 1,15,16
 1071 660 1071 660 1071 399 c 0,17,18
 1071 215 1071 215 949 97.5 c 128,-1,0
 827 -20 827 -20 596 -20 c 128,-1,1
598 1393 m 128,-1,20
 545 1393 545 1393 489.5 1374.5 c 128,-1,21
 434 1356 434 1356 382 1319 c 128,-1,22
 330 1282 330 1282 297 1213.5 c 128,-1,23
 264 1145 264 1145 264 1055 c 0,24,25
 264 885 264 885 406 807 c 1,26,-1
 520 741 l 1,27,-1
 397 696 l 2,28,29
 186 618 186 618 186 399 c 0,30,31
 186 215 186 215 309 128 c 128,-1,32
 432 41 432 41 596 41 c 128,-1,33
 760 41 760 41 885 128 c 128,-1,34
 1010 215 1010 215 1010 399 c 0,35,36
 1010 618 1010 618 799 696 c 2,37,-1
 676 741 l 1,38,-1
 791 807 l 1,39,40
 932 885 932 885 932 1055 c 0,41,42
 932 1145 932 1145 899 1213.5 c 128,-1,43
 866 1282 866 1282 814 1319 c 128,-1,44
 762 1356 762 1356 706.5 1374.5 c 128,-1,19
 651 1393 651 1393 598 1393 c 128,-1,20
EndSplineSet
Validated: 1
EndChar

StartChar: nine
Encoding: 57 57 28
Width: 1079
GlyphClass: 2
Flags: MW
LayerCount: 2
Fore
SplineSet
905 946 m 0,0,1
 905 1153 905 1153 794.5 1274 c 128,-1,2
 684 1395 684 1395 502 1395 c 0,3,4
 367 1395 367 1395 267.5 1323 c 128,-1,5
 168 1251 168 1251 168 1079 c 0,6,7
 168 991 168 991 205 922.5 c 128,-1,8
 242 854 242 854 296 818 c 128,-1,9
 350 782 350 782 401.5 765 c 128,-1,10
 453 748 453 748 492 748 c 0,11,12
 551 748 551 748 611.5 766 c 128,-1,13
 672 784 672 784 701.5 800.5 c 128,-1,14
 731 817 731 817 739 825 c 1,15,-1
 776 774 l 1,16,17
 762 764 762 764 738.5 749.5 c 128,-1,18
 715 735 715 735 641 710.5 c 128,-1,19
 567 686 567 686 494 686 c 0,20,21
 359 686 359 686 232.5 789.5 c 128,-1,22
 106 893 106 893 106 1081 c 0,23,24
 106 1274 106 1274 220 1364 c 128,-1,25
 334 1454 334 1454 504 1454 c 0,26,27
 711 1454 711 1454 839 1315 c 128,-1,28
 967 1176 967 1176 967 944 c 0,29,30
 967 813 967 813 918.5 662.5 c 128,-1,31
 870 512 870 512 782 367.5 c 128,-1,32
 694 223 694 223 544.5 114.5 c 128,-1,33
 395 6 395 6 213 -23 c 1,34,-1
 197 37 l 1,35,36
 334 57 334 57 452.5 128 c 128,-1,37
 571 199 571 199 652 296 c 128,-1,38
 733 393 733 393 791.5 509 c 128,-1,39
 850 625 850 625 877.5 736.5 c 128,-1,40
 905 848 905 848 905 946 c 0,0,1
EndSplineSet
Validated: 1
EndChar

StartChar: colon
Encoding: 58 58 29
Width: 499
GlyphClass: 2
Flags: MW
LayerCount: 2
Fore
SplineSet
182 324 m 1,0,-1
 317 324 l 1,1,-1
 317 205 l 1,2,-1
 182 205 l 1,3,-1
 182 324 l 1,0,-1
182 733 m 1,4,-1
 317 733 l 1,5,-1
 317 614 l 1,6,-1
 182 614 l 1,7,-1
 182 733 l 1,4,-1
EndSplineSet
Validated: 1
EndChar

StartChar: semicolon
Encoding: 59 59 30
Width: 536
GlyphClass: 2
Flags: MW
LayerCount: 2
Fore
SplineSet
207 733 m 1,0,-1
 342 733 l 1,1,-1
 342 614 l 1,2,-1
 207 614 l 1,3,-1
 207 733 l 1,0,-1
180 -115 m 1,4,5
 203 -84 203 -84 234.5 12.5 c 128,-1,6
 266 109 266 109 266 205 c 1,7,-1
 207 205 l 1,8,-1
 207 324 l 1,9,-1
 342 324 l 1,10,11
 342 15 342 15 231 -147 c 1,12,-1
 180 -115 l 1,4,5
EndSplineSet
Validated: 1
EndChar

StartChar: less
Encoding: 60 60 31
Width: 899
GlyphClass: 2
Flags: MW
LayerCount: 2
Fore
SplineSet
88 717 m 1,0,-1
 719 1348 l 1,1,-1
 762 1305 l 1,2,-1
 174 717 l 1,3,-1
 762 129 l 1,4,-1
 719 86 l 1,5,-1
 88 717 l 1,0,-1
EndSplineSet
Validated: 1
EndChar

StartChar: equal
Encoding: 61 61 32
Width: 892
GlyphClass: 2
Flags: MW
LayerCount: 2
Fore
SplineSet
182 604 m 1,0,-1
 182 666 l 1,1,-1
 711 666 l 1,2,-1
 711 604 l 1,3,-1
 182 604 l 1,0,-1
182 768 m 1,4,-1
 182 829 l 1,5,-1
 711 829 l 1,6,-1
 711 768 l 1,7,-1
 182 768 l 1,4,-1
EndSplineSet
Validated: 1
EndChar

StartChar: greater
Encoding: 62 62 33
Width: 899
GlyphClass: 2
Flags: MW
LayerCount: 2
Fore
SplineSet
811 717 m 1,0,-1
 180 86 l 1,1,-1
 137 129 l 1,2,-1
 725 717 l 1,3,-1
 137 1305 l 1,4,-1
 180 1348 l 1,5,-1
 811 717 l 1,0,-1
EndSplineSet
Validated: 1
EndChar

StartChar: question
Encoding: 63 63 34
Width: 1038
GlyphClass: 2
Flags: MW
LayerCount: 2
Fore
SplineSet
369 119 m 1,0,-1
 504 119 l 1,1,-1
 504 0 l 1,2,-1
 369 0 l 1,3,-1
 369 119 l 1,0,-1
406 319 m 1,4,5
 406 413 406 413 439.5 492 c 128,-1,6
 473 571 473 571 522 621.5 c 128,-1,7
 571 672 571 672 630.5 726 c 128,-1,8
 690 780 690 780 739 825 c 128,-1,9
 788 870 788 870 822 937 c 128,-1,10
 856 1004 856 1004 856 1079 c 0,11,12
 856 1181 856 1181 827.5 1247 c 128,-1,13
 799 1313 799 1313 742.5 1342.5 c 128,-1,14
 686 1372 686 1372 629.5 1382.5 c 128,-1,15
 573 1393 573 1393 492 1393 c 0,16,17
 373 1393 373 1393 292 1337.5 c 128,-1,18
 211 1282 211 1282 168 1145 c 1,19,-1
 389 979 l 1,20,-1
 289 979 l 1,21,-1
 98 1122 l 1,22,23
 141 1290 141 1290 237.5 1372 c 128,-1,24
 334 1454 334 1454 492 1454 c 0,25,26
 717 1454 717 1454 817.5 1366 c 128,-1,27
 918 1278 918 1278 918 1079 c 0,28,29
 918 993 918 993 884 920.5 c 128,-1,30
 850 848 850 848 801 800 c 128,-1,31
 752 752 752 752 692.5 698.5 c 128,-1,32
 633 645 633 645 584 597 c 128,-1,33
 535 549 535 549 501 477.5 c 128,-1,34
 467 406 467 406 467 319 c 1,35,-1
 406 319 l 1,4,5
EndSplineSet
Validated: 1
EndChar

StartChar: at
Encoding: 64 64 35
Width: 1294
GlyphClass: 2
Flags: MW
LayerCount: 2
Fore
SplineSet
926 500 m 2,0,1
 652 500 652 500 651 700 c 0,2,3
 651 792 651 792 709.5 836.5 c 128,-1,4
 768 881 768 881 848 881 c 0,5,6
 936 881 936 881 1016 821 c 1,7,8
 1016 1007 1016 1007 909.5 1161 c 128,-1,9
 803 1315 803 1315 651 1315 c 0,10,11
 458 1315 458 1315 329.5 1150 c 128,-1,12
 201 985 201 985 201 709 c 0,13,14
 201 396 201 396 325 218.5 c 128,-1,15
 449 41 449 41 676 41 c 0,16,17
 809 41 809 41 929 106.5 c 128,-1,18
 1049 172 1049 172 1133 291 c 1,19,-1
 1184 256 l 1,20,21
 1092 125 1092 125 957.5 52.5 c 128,-1,22
 823 -20 823 -20 676 -20 c 0,23,24
 418 -20 418 -20 278.5 176.5 c 128,-1,25
 139 373 139 373 139 709 c 0,26,27
 139 1008 139 1008 284.5 1192 c 128,-1,28
 430 1376 430 1376 651 1376 c 0,29,30
 833 1376 833 1376 955 1204 c 128,-1,31
 1077 1032 1077 1032 1077 821 c 2,32,-1
 1077 698 l 1,33,-1
 979 772 l 1,34,35
 911 819 911 819 848 819 c 0,36,37
 713 819 713 819 713 700 c 0,38,39
 713 561 713 561 926 561 c 2,40,-1
 1133 561 l 1,41,-1
 1133 500 l 1,42,-1
 926 500 l 2,0,1
EndSplineSet
Validated: 1
EndChar

StartChar: A
Encoding: 65 65 36
Width: 1118
GlyphClass: 2
Flags: MW
LayerCount: 2
Fore
SplineSet
240 61 m 1,0,-1
 993 61 l 1,1,-1
 559 1255 l 1,2,-1
 102 0 l 1,3,-1
 37 0 l 1,4,-1
 559 1436 l 1,5,-1
 1081 0 l 1,6,-1
 240 0 l 1,7,-1
 240 61 l 1,0,-1
EndSplineSet
Validated: 1
EndChar

StartChar: B
Encoding: 66 66 37
Width: 1185
GlyphClass: 2
Flags: MW
LayerCount: 2
Fore
SplineSet
530 0 m 2,0,-1
 203 0 l 1,1,-1
 203 1434 l 1,2,-1
 453 1434 l 2,3,4
 723 1434 723 1434 860 1334.5 c 128,-1,5
 997 1235 997 1235 997 1055 c 0,6,7
 997 850 997 850 825 754 c 1,8,9
 1075 660 1075 660 1075 399 c 0,10,11
 1075 215 1075 215 939.5 107.5 c 128,-1,12
 804 0 804 0 530 0 c 2,0,-1
530 61 m 2,13,14
 626 61 626 61 706 76.5 c 128,-1,15
 786 92 786 92 859 128 c 128,-1,16
 932 164 932 164 973 233.5 c 128,-1,17
 1014 303 1014 303 1014 399 c 0,18,19
 1014 618 1014 618 803 696 c 2,20,-1
 680 741 l 1,21,-1
 795 807 l 1,22,23
 936 885 936 885 936 1055 c 0,24,25
 936 1372 936 1372 453 1372 c 2,26,-1
 264 1372 l 1,27,-1
 264 61 l 1,28,-1
 530 61 l 2,13,14
EndSplineSet
Validated: 1
EndChar

StartChar: C
Encoding: 67 67 38
Width: 1202
GlyphClass: 2
Flags: MW
LayerCount: 2
Fore
SplineSet
1092 262 m 1,0,1
 1037 127 1037 127 936.5 53.5 c 128,-1,2
 836 -20 836 -20 635 -20 c 0,3,4
 383 -20 383 -20 270.5 134.5 c 128,-1,5
 158 289 158 289 158 616 c 2,6,-1
 158 817 l 2,7,8
 158 1145 158 1145 270.5 1299.5 c 128,-1,9
 383 1454 383 1454 635 1454 c 0,10,11
 836 1454 836 1454 936 1380.5 c 128,-1,12
 1036 1307 1036 1307 1092 1171 c 1,13,-1
 1036 1145 l 1,14,15
 989 1264 989 1264 903 1328.5 c 128,-1,16
 817 1393 817 1393 635 1393 c 0,17,18
 535 1393 535 1393 463 1367 c 128,-1,19
 391 1341 391 1341 333.5 1280 c 128,-1,20
 276 1219 276 1219 247.5 1103 c 128,-1,21
 219 987 219 987 219 817 c 2,22,-1
 219 616 l 2,23,24
 219 446 219 446 247.5 330.5 c 128,-1,25
 276 215 276 215 333.5 153.5 c 128,-1,26
 391 92 391 92 463 66.5 c 128,-1,27
 535 41 535 41 635 41 c 0,28,29
 817 41 817 41 903 105.5 c 128,-1,30
 989 170 989 170 1036 289 c 1,31,-1
 1092 262 l 1,0,1
EndSplineSet
Validated: 1
EndChar

StartChar: D
Encoding: 68 68 39
Width: 1214
GlyphClass: 2
Flags: MW
LayerCount: 2
Fore
SplineSet
399 0 m 2,0,-1
 203 0 l 1,1,-1
 203 1434 l 1,2,-1
 399 1434 l 2,3,4
 694 1434 694 1434 899 1216.5 c 128,-1,5
 1104 999 1104 999 1104 716.5 c 128,-1,6
 1104 434 1104 434 899 217 c 128,-1,7
 694 0 694 0 399 0 c 2,0,-1
399 61 m 2,8,9
 667 61 667 61 854.5 259 c 128,-1,10
 1042 457 1042 457 1042 717 c 128,-1,11
 1042 977 1042 977 855 1174.5 c 128,-1,12
 668 1372 668 1372 399 1372 c 2,13,-1
 264 1372 l 1,14,-1
 264 61 l 1,15,-1
 399 61 l 2,8,9
EndSplineSet
Validated: 1
EndChar

StartChar: E
Encoding: 69 69 40
Width: 1179
GlyphClass: 2
Flags: MW
LayerCount: 2
Fore
SplineSet
938 750 m 1,0,-1
 330 750 l 1,1,-1
 956 1372 l 1,2,-1
 264 1372 l 1,3,-1
 264 61 l 1,4,-1
 1059 61 l 1,5,-1
 1059 0 l 1,6,-1
 203 0 l 1,7,-1
 203 1434 l 1,8,-1
 1106 1434 l 1,9,-1
 479 811 l 1,10,-1
 938 811 l 1,11,-1
 938 750 l 1,0,-1
EndSplineSet
Validated: 1
EndChar

StartChar: F
Encoding: 70 70 41
Width: 1126
GlyphClass: 2
Flags: MW
LayerCount: 2
Fore
SplineSet
938 750 m 1,0,-1
 330 750 l 1,1,-1
 956 1372 l 1,2,-1
 264 1372 l 1,3,-1
 264 0 l 1,4,-1
 203 0 l 1,5,-1
 203 1434 l 1,6,-1
 1106 1434 l 1,7,-1
 479 811 l 1,8,-1
 938 811 l 1,9,-1
 938 750 l 1,0,-1
EndSplineSet
Validated: 1
EndChar

StartChar: G
Encoding: 71 71 42
Width: 1259
GlyphClass: 2
Flags: MW
LayerCount: 2
Fore
SplineSet
1036 1145 m 1,0,1
 989 1264 989 1264 903 1328.5 c 128,-1,2
 817 1393 817 1393 635 1393 c 0,3,4
 535 1393 535 1393 463 1367 c 128,-1,5
 391 1341 391 1341 333.5 1280 c 128,-1,6
 276 1219 276 1219 247.5 1103 c 128,-1,7
 219 987 219 987 219 817 c 2,8,-1
 219 616 l 2,9,10
 219 446 219 446 247.5 330.5 c 128,-1,11
 276 215 276 215 333.5 153.5 c 128,-1,12
 391 92 391 92 463 66.5 c 128,-1,13
 535 41 535 41 635 41 c 0,14,15
 819 41 819 41 927.5 120 c 128,-1,16
 1036 199 1036 199 1036 289 c 2,17,-1
 1036 635 l 1,18,-1
 784 635 l 1,19,-1
 784 696 l 1,20,-1
 1110 696 l 1,21,-1
 1110 309 l 2,22,23
 1110 172 1110 172 986 76 c 128,-1,24
 862 -20 862 -20 635 -20 c 0,25,26
 383 -20 383 -20 270.5 134.5 c 128,-1,27
 158 289 158 289 158 616 c 2,28,-1
 158 817 l 2,29,30
 158 1145 158 1145 270.5 1299.5 c 128,-1,31
 383 1454 383 1454 635 1454 c 0,32,33
 838 1454 838 1454 938 1379.5 c 128,-1,34
 1038 1305 1038 1305 1094 1167 c 1,35,-1
 1036 1145 l 1,0,1
EndSplineSet
Validated: 1
EndChar

StartChar: H
Encoding: 72 72 43
Width: 1265
GlyphClass: 2
Flags: MW
LayerCount: 2
Fore
SplineSet
1063 0 m 1,0,-1
 1001 0 l 1,1,-1
 1001 717 l 1,2,-1
 264 717 l 1,3,-1
 264 0 l 1,4,-1
 203 0 l 1,5,-1
 203 1434 l 1,6,-1
 264 1434 l 1,7,-1
 264 778 l 1,8,-1
 1001 778 l 1,9,-1
 1001 1434 l 1,10,-1
 1063 1434 l 1,11,-1
 1063 0 l 1,0,-1
EndSplineSet
Validated: 1
EndChar

StartChar: I
Encoding: 73 73 44
Width: 466
GlyphClass: 2
Flags: MW
LayerCount: 2
Fore
SplineSet
264 0 m 1,0,-1
 203 0 l 1,1,-1
 203 1434 l 1,2,-1
 264 1434 l 1,3,-1
 264 0 l 1,0,-1
EndSplineSet
Validated: 1
EndChar

StartChar: J
Encoding: 74 74 45
Width: 1032
GlyphClass: 2
Flags: MW
LayerCount: 2
Fore
SplineSet
115 309 m 1,0,1
 205 41 205 41 463 41 c 0,2,3
 637 41 637 41 705.5 140.5 c 128,-1,4
 774 240 774 240 774 414 c 2,5,-1
 774 1434 l 1,6,-1
 836 1434 l 1,7,-1
 836 414 l 2,8,9
 836 -20 836 -20 463 -20 c 0,10,11
 287 -20 287 -20 191.5 68 c 128,-1,12
 96 156 96 156 41 309 c 1,13,-1
 115 309 l 1,0,1
EndSplineSet
Validated: 1
EndChar

StartChar: K
Encoding: 75 75 46
Width: 1173
GlyphClass: 2
Flags: MW
LayerCount: 2
Fore
SplineSet
264 1434 m 1,0,-1
 264 0 l 1,1,-1
 203 0 l 1,2,-1
 203 1434 l 1,3,-1
 264 1434 l 1,0,-1
1106 1434 m 1,4,-1
 418 750 l 1,5,-1
 1171 0 l 1,6,-1
 1083 0 l 1,7,-1
 330 750 l 1,8,-1
 1018 1434 l 1,9,-1
 1106 1434 l 1,4,-1
EndSplineSet
Validated: 1
EndChar

StartChar: L
Encoding: 76 76 47
Width: 1089
GlyphClass: 2
Flags: MW
LayerCount: 2
Fore
SplineSet
1059 61 m 1,0,-1
 1059 0 l 1,1,-1
 203 0 l 1,2,-1
 203 1434 l 1,3,-1
 264 1434 l 1,4,-1
 264 61 l 1,5,-1
 1059 61 l 1,0,-1
EndSplineSet
Validated: 1
EndChar

StartChar: M
Encoding: 77 77 48
Width: 1449
GlyphClass: 2
Flags: MW
LayerCount: 2
Fore
SplineSet
379 61 m 1,0,-1
 1186 61 l 1,1,-1
 1186 1288 l 1,2,-1
 725 301 l 1,3,-1
 264 1290 l 1,4,-1
 264 0 l 1,5,-1
 203 2 l 1,6,-1
 203 1436 l 1,7,-1
 264 1436 l 1,8,-1
 725 446 l 1,9,-1
 1186 1434 l 1,10,-1
 1247 1436 l 1,11,-1
 1247 0 l 1,12,-1
 379 2 l 1,13,-1
 379 61 l 1,0,-1
EndSplineSet
Validated: 1
Substitution2: "'ss01' Style Set 1 in '    ' lookup 1 subtable" M.ss01
Substitution2: "'aalt' Access All Alternates in Latin lookup 0 subtable" M.ss01
EndChar

StartChar: N
Encoding: 78 78 49
Width: 1304
GlyphClass: 2
Flags: MW
LayerCount: 2
Fore
SplineSet
362 61 m 1,0,-1
 997 61 l 1,1,-1
 264 1329 l 1,2,-1
 264 0 l 1,3,-1
 203 0 l 1,4,-1
 203 1434 l 1,5,-1
 274 1434 l 1,6,-1
 1040 109 l 1,7,-1
 1040 1434 l 1,8,-1
 1102 1434 l 1,9,-1
 1102 0 l 1,10,-1
 362 0 l 1,11,-1
 362 61 l 1,0,-1
EndSplineSet
Validated: 1
Substitution2: "'ss01' Style Set 1 in '    ' lookup 1 subtable" N.ss01
Substitution2: "'aalt' Access All Alternates in Latin lookup 0 subtable" N.ss01
EndChar

StartChar: O
Encoding: 79 79 50
Width: 1269
GlyphClass: 2
Flags: MW
LayerCount: 2
Fore
SplineSet
635 -20 m 128,-1,1
 383 -20 383 -20 270.5 134.5 c 128,-1,2
 158 289 158 289 158 616 c 2,3,-1
 158 817 l 2,4,5
 158 1145 158 1145 270.5 1299.5 c 128,-1,6
 383 1454 383 1454 635 1454 c 128,-1,7
 887 1454 887 1454 999.5 1299.5 c 128,-1,8
 1112 1145 1112 1145 1112 817 c 2,9,-1
 1112 616 l 2,10,11
 1112 288 1112 288 999.5 134 c 128,-1,0
 887 -20 887 -20 635 -20 c 128,-1,1
635 1393 m 128,-1,13
 535 1393 535 1393 463 1367 c 128,-1,14
 391 1341 391 1341 333.5 1280 c 128,-1,15
 276 1219 276 1219 247.5 1103 c 128,-1,16
 219 987 219 987 219 817 c 2,17,-1
 219 616 l 2,18,19
 219 446 219 446 247.5 330.5 c 128,-1,20
 276 215 276 215 333.5 153.5 c 128,-1,21
 391 92 391 92 463 66.5 c 128,-1,22
 535 41 535 41 635 41 c 128,-1,23
 735 41 735 41 807 66.5 c 128,-1,24
 879 92 879 92 936 153.5 c 128,-1,25
 993 215 993 215 1022 330.5 c 128,-1,26
 1051 446 1051 446 1051 616 c 2,27,-1
 1051 817 l 2,28,29
 1051 987 1051 987 1022 1103 c 128,-1,30
 993 1219 993 1219 936 1280 c 128,-1,31
 879 1341 879 1341 807 1367 c 128,-1,12
 735 1393 735 1393 635 1393 c 128,-1,13
EndSplineSet
Validated: 1
EndChar

StartChar: P
Encoding: 80 80 51
Width: 1077
GlyphClass: 2
Flags: MW
LayerCount: 2
Fore
SplineSet
711 688 m 1,0,-1
 680 741 l 1,1,-1
 795 807 l 1,2,3
 936 885 936 885 936 1055 c 0,4,5
 936 1372 936 1372 453 1372 c 2,6,-1
 264 1372 l 1,7,-1
 264 0 l 1,8,-1
 203 0 l 1,9,-1
 203 1434 l 1,10,-1
 453 1434 l 2,11,12
 723 1434 723 1434 860 1334.5 c 128,-1,13
 997 1235 997 1235 997 1055 c 0,14,15
 997 850 997 850 825 754 c 2,16,-1
 711 688 l 1,0,-1
EndSplineSet
Validated: 1
EndChar

StartChar: Q
Encoding: 81 81 52
Width: 1275
GlyphClass: 2
Flags: MW
LayerCount: 2
Fore
SplineSet
1112 616 m 2,0,1
 1112 217 1112 217 940 72 c 1,2,-1
 901 119 l 1,3,4
 1051 246 1051 246 1051 616 c 2,5,-1
 1051 817 l 2,6,7
 1051 987 1051 987 1022 1103 c 128,-1,8
 993 1219 993 1219 936 1280 c 128,-1,9
 879 1341 879 1341 807 1367 c 128,-1,10
 735 1393 735 1393 635 1393 c 128,-1,11
 535 1393 535 1393 463 1367 c 128,-1,12
 391 1341 391 1341 333.5 1280 c 128,-1,13
 276 1219 276 1219 247.5 1103 c 128,-1,14
 219 987 219 987 219 817 c 2,15,-1
 219 616 l 2,16,17
 219 446 219 446 247.5 330.5 c 128,-1,18
 276 215 276 215 333.5 153.5 c 128,-1,19
 391 92 391 92 463 66.5 c 128,-1,20
 535 41 535 41 635 41 c 1,21,22
 635 -186 635 -186 707.5 -267 c 128,-1,23
 780 -348 780 -348 934 -348 c 1,24,-1
 934 -410 l 1,25,26
 768 -410 768 -410 678 -328 c 128,-1,27
 588 -246 588 -246 575 -18 c 1,28,29
 356 0 356 0 257 154.5 c 128,-1,30
 158 309 158 309 158 616 c 2,31,-1
 158 817 l 2,32,33
 158 1145 158 1145 270.5 1299.5 c 128,-1,34
 383 1454 383 1454 635 1454 c 128,-1,35
 887 1454 887 1454 999.5 1299.5 c 128,-1,36
 1112 1145 1112 1145 1112 817 c 2,37,-1
 1112 616 l 2,0,1
EndSplineSet
Validated: 1
EndChar

StartChar: R
Encoding: 82 82 53
Width: 1126
GlyphClass: 2
Flags: MW
LayerCount: 2
Fore
SplineSet
362 61 m 1,0,-1
 928 61 l 1,1,-1
 680 741 l 1,2,-1
 795 807 l 1,3,4
 936 885 936 885 936 1055 c 0,5,6
 936 1372 936 1372 453 1372 c 2,7,-1
 264 1372 l 1,8,-1
 264 0 l 1,9,-1
 203 0 l 1,10,-1
 203 1434 l 1,11,-1
 453 1434 l 2,12,13
 723 1434 723 1434 860 1334.5 c 128,-1,14
 997 1235 997 1235 997 1055 c 0,15,16
 997 850 997 850 825 754 c 2,17,-1
 756 715 l 1,18,-1
 1016 0 l 1,19,-1
 362 0 l 1,20,-1
 362 61 l 1,0,-1
EndSplineSet
Validated: 1
Substitution2: "'ss01' Style Set 1 in '    ' lookup 1 subtable" R.ss01
Substitution2: "'aalt' Access All Alternates in Latin lookup 0 subtable" R.ss01
EndChar

StartChar: S
Encoding: 83 83 54
Width: 1148
GlyphClass: 2
Flags: MW
LayerCount: 2
Fore
SplineSet
160 1079 m 0,0,1
 160 1278 160 1278 260 1366 c 128,-1,2
 360 1454 360 1454 586 1454 c 0,3,4
 744 1454 744 1454 840 1372 c 128,-1,5
 936 1290 936 1290 979 1122 c 1,6,-1
 788 979 l 1,7,-1
 688 979 l 1,8,-1
 909 1145 l 1,9,10
 866 1282 866 1282 785.5 1337.5 c 128,-1,11
 705 1393 705 1393 586 1393 c 0,12,13
 504 1393 504 1393 447.5 1382.5 c 128,-1,14
 391 1372 391 1372 335 1342.5 c 128,-1,15
 279 1313 279 1313 250 1247.5 c 128,-1,16
 221 1182 221 1182 221 1079 c 0,17,18
 221 989 221 989 304 919.5 c 128,-1,19
 387 850 387 850 506 801 c 128,-1,20
 625 752 625 752 744.5 700.5 c 128,-1,21
 864 649 864 649 947 569 c 128,-1,22
 1030 489 1030 489 1030 385 c 0,23,24
 1030 180 1030 180 928.5 80 c 128,-1,25
 827 -20 827 -20 582 -20 c 0,26,27
 381 -20 381 -20 266.5 60.5 c 128,-1,28
 152 141 152 141 109 311 c 1,29,-1
 166 336 l 1,30,31
 207 170 207 170 306.5 105.5 c 128,-1,32
 406 41 406 41 582 41 c 0,33,34
 779 41 779 41 874 117 c 128,-1,35
 969 193 969 193 969 385 c 0,36,37
 969 475 969 475 886 544.5 c 128,-1,38
 803 614 803 614 683 663.5 c 128,-1,39
 563 713 563 713 444.5 764 c 128,-1,40
 326 815 326 815 243 895 c 128,-1,41
 160 975 160 975 160 1079 c 0,0,1
EndSplineSet
Validated: 1
EndChar

StartChar: T
Encoding: 84 84 55
Width: 1085
GlyphClass: 2
Flags: MW
LayerCount: 2
Fore
SplineSet
1055 1434 m 1,0,-1
 1055 1372 l 1,1,-1
 573 1372 l 1,2,-1
 573 0 l 1,3,-1
 512 0 l 1,4,-1
 512 1372 l 1,5,-1
 31 1372 l 1,6,-1
 31 1434 l 1,7,-1
 1055 1434 l 1,0,-1
EndSplineSet
Validated: 1
EndChar

StartChar: U
Encoding: 85 85 56
Width: 1323
GlyphClass: 2
Flags: MW
LayerCount: 2
Fore
SplineSet
354 1434 m 1,0,-1
 1139 1434 l 1,1,-1
 1139 616 l 2,2,3
 1139 288 1139 288 1026 134 c 128,-1,4
 913 -20 913 -20 661.5 -20 c 128,-1,5
 410 -20 410 -20 297 134.5 c 128,-1,6
 184 289 184 289 184 616 c 2,7,-1
 184 1434 l 1,8,-1
 246 1434 l 1,9,-1
 246 616 l 2,10,11
 246 446 246 446 274.5 330.5 c 128,-1,12
 303 215 303 215 360.5 153.5 c 128,-1,13
 418 92 418 92 489.5 66.5 c 128,-1,14
 561 41 561 41 661.5 41 c 128,-1,15
 762 41 762 41 833.5 66.5 c 128,-1,16
 905 92 905 92 962.5 153.5 c 128,-1,17
 1020 215 1020 215 1048.5 330.5 c 128,-1,18
 1077 446 1077 446 1077 616 c 2,19,-1
 1077 1372 l 1,20,-1
 354 1372 l 1,21,-1
 354 1434 l 1,0,-1
EndSplineSet
Validated: 1
Substitution2: "'ss01' Style Set 1 in '    ' lookup 1 subtable" U.ss01
Substitution2: "'aalt' Access All Alternates in Latin lookup 0 subtable" U.ss01
EndChar

StartChar: V
Encoding: 86 86 57
Width: 1114
GlyphClass: 2
Flags: MW
LayerCount: 2
Fore
SplineSet
240 1434 m 1,0,-1
 1079 1434 l 1,1,-1
 557 -2 l 1,2,-1
 35 1434 l 1,3,-1
 100 1434 l 1,4,-1
 557 178 l 1,5,-1
 991 1372 l 1,6,-1
 240 1372 l 1,7,-1
 240 1434 l 1,0,-1
EndSplineSet
Validated: 1
Substitution2: "'ss01' Style Set 1 in '    ' lookup 1 subtable" V.ss01
Substitution2: "'aalt' Access All Alternates in Latin lookup 0 subtable" V.ss01
EndChar

StartChar: W
Encoding: 87 87 58
Width: 1644
GlyphClass: 2
Flags: MW
LayerCount: 2
Fore
SplineSet
240 1372 m 1,0,-1
 240 1434 l 1,1,-1
 1610 1434 l 1,2,-1
 1087 -2 l 1,3,-1
 821 727 l 1,4,-1
 557 -2 l 1,5,-1
 35 1434 l 1,6,-1
 100 1434 l 1,7,-1
 557 178 l 1,8,-1
 821 907 l 1,9,-1
 1087 178 l 1,10,-1
 1522 1372 l 1,11,-1
 240 1372 l 1,0,-1
EndSplineSet
Validated: 1
Substitution2: "'ss01' Style Set 1 in '    ' lookup 1 subtable" W.ss01
Substitution2: "'aalt' Access All Alternates in Latin lookup 0 subtable" W.ss01
EndChar

StartChar: X
Encoding: 88 88 59
Width: 991
GlyphClass: 2
Flags: MW
LayerCount: 2
Fore
SplineSet
530 756 m 1,0,-1
 932 0 l 1,1,-1
 862 0 l 1,2,-1
 496 690 l 1,3,-1
 129 0 l 1,4,-1
 59 0 l 1,5,-1
 461 756 l 1,6,-1
 100 1434 l 1,7,-1
 170 1434 l 1,8,-1
 496 821 l 1,9,-1
 821 1434 l 1,10,-1
 891 1434 l 1,11,-1
 530 756 l 1,0,-1
EndSplineSet
Validated: 1
EndChar

StartChar: Y
Encoding: 89 89 60
Width: 1118
GlyphClass: 2
Flags: MW
LayerCount: 2
Fore
SplineSet
272 1434 m 1,0,-1
 1102 1434 l 1,1,-1
 590 614 l 1,2,-1
 590 0 l 1,3,-1
 528 0 l 1,4,-1
 528 614 l 1,5,-1
 16 1434 l 1,6,-1
 88 1434 l 1,7,-1
 559 682 l 1,8,-1
 991 1372 l 1,9,-1
 272 1372 l 1,10,-1
 272 1434 l 1,0,-1
EndSplineSet
Validated: 1
Substitution2: "'ss01' Style Set 1 in '    ' lookup 1 subtable" y.ss01
Substitution2: "'aalt' Access All Alternates in Latin lookup 0 subtable" y.ss01
EndChar

StartChar: Z
Encoding: 90 90 61
Width: 983
GlyphClass: 2
Flags: MW
LayerCount: 2
Fore
SplineSet
899 0 m 1,0,-1
 63 0 l 1,1,-1
 793 1372 l 1,2,-1
 117 1372 l 1,3,-1
 117 1434 l 1,4,-1
 895 1434 l 1,5,-1
 166 61 l 1,6,-1
 899 61 l 1,7,-1
 899 0 l 1,0,-1
EndSplineSet
Validated: 1
EndChar

StartChar: bracketleft
Encoding: 91 91 62
Width: 534
GlyphClass: 2
Flags: MW
LayerCount: 2
Fore
SplineSet
426 0 m 1,0,-1
 205 0 l 1,1,-1
 205 1434 l 1,2,-1
 426 1434 l 1,3,-1
 426 1372 l 1,4,-1
 266 1372 l 1,5,-1
 266 61 l 1,6,-1
 426 61 l 1,7,-1
 426 0 l 1,0,-1
EndSplineSet
Validated: 1
EndChar

StartChar: backslash
Encoding: 92 92 63
Width: 841
GlyphClass: 2
Flags: HMW
LayerCount: 2
Fore
SplineSet
707 -74 m 1,0,-1
 78 1485 l 1,1,-1
 133 1507 l 1,2,-1
 762 -51 l 1,3,-1
 707 -74 l 1,0,-1
EndSplineSet
Validated: 1
EndChar

StartChar: bracketright
Encoding: 93 93 64
Width: 534
GlyphClass: 2
Flags: MW
LayerCount: 2
Fore
SplineSet
109 1434 m 1,0,-1
 330 1434 l 1,1,-1
 330 0 l 1,2,-1
 109 0 l 1,3,-1
 109 61 l 1,4,-1
 268 61 l 1,5,-1
 268 1372 l 1,6,-1
 109 1372 l 1,7,-1
 109 1434 l 1,0,-1
EndSplineSet
Validated: 1
EndChar

StartChar: asciicircum
Encoding: 94 94 65
Width: 663
GlyphClass: 2
Flags: MW
LayerCount: 2
Fore
SplineSet
332 1606 m 1,0,-1
 571 1319 l 1,1,-1
 524 1280 l 1,2,-1
 332 1509 l 1,3,-1
 139 1280 l 1,4,-1
 92 1319 l 1,5,-1
 332 1606 l 1,0,-1
EndSplineSet
Validated: 1
EndChar

StartChar: underscore
Encoding: 95 95 66
Width: 1028
GlyphClass: 2
Flags: MW
LayerCount: 2
Fore
SplineSet
104 -184 m 1,0,-1
 104 -123 l 1,1,-1
 924 -123 l 1,2,-1
 924 -184 l 1,3,-1
 104 -184 l 1,0,-1
EndSplineSet
Validated: 1
EndChar

StartChar: grave
Encoding: 96 96 67
Width: 471
GlyphClass: 2
Flags: MW
LayerCount: 2
Fore
SplineSet
92 1565 m 1,0,-1
 139 1606 l 1,1,-1
 379 1319 l 1,2,-1
 332 1280 l 1,3,-1
 92 1565 l 1,0,-1
EndSplineSet
Validated: 1
EndChar

StartChar: a
Encoding: 97 97 68
Width: 1101
GlyphClass: 2
Flags: MW
LayerCount: 2
Fore
SplineSet
303 61 m 1,0,-1
 971 61 l 1,1,-1
 551 1051 l 1,2,-1
 104 0 l 1,3,-1
 39 0 l 1,4,-1
 551 1208 l 1,5,-1
 1063 0 l 1,6,-1
 303 0 l 1,7,-1
 303 61 l 1,0,-1
EndSplineSet
Validated: 1
EndChar

StartChar: b
Encoding: 98 98 69
Width: 1097
GlyphClass: 2
Flags: MW
LayerCount: 2
Fore
SplineSet
489 0 m 2,0,-1
 195 0 l 1,1,-1
 195 1188 l 1,2,-1
 420 1188 l 2,3,4
 662 1188 662 1188 785.5 1104 c 128,-1,5
 909 1020 909 1020 909 874 c 0,6,7
 909 700 909 700 756 623 c 1,8,9
 869 584 869 584 924 507 c 128,-1,10
 979 430 979 430 979 330 c 0,11,12
 979 183 979 183 857 91.5 c 128,-1,13
 735 0 735 0 489 0 c 2,0,-1
489 61 m 2,14,15
 669 61 669 61 793.5 127 c 128,-1,16
 918 193 918 193 918 330 c 0,17,18
 918 393 918 393 870.5 468 c 128,-1,19
 823 543 823 543 725 578 c 2,20,-1
 618 614 l 1,21,-1
 717 666 l 2,22,23
 768 693 768 693 808 747 c 128,-1,24
 848 801 848 801 848 874 c 0,25,26
 848 1003 848 1003 725 1064.5 c 128,-1,27
 602 1126 602 1126 420 1126 c 2,28,-1
 256 1126 l 1,29,-1
 256 61 l 1,30,-1
 489 61 l 2,14,15
EndSplineSet
Validated: 1
EndChar

StartChar: c
Encoding: 99 99 70
Width: 1099
GlyphClass: 2
Flags: MW
LayerCount: 2
Fore
SplineSet
143 594 m 128,-1,1
 143 918 143 918 254 1063 c 128,-1,2
 365 1208 365 1208 621 1208 c 128,-1,3
 877 1208 877 1208 989 1067 c 1,4,-1
 944 1026 l 1,5,6
 854 1147 854 1147 621 1147 c 0,7,8
 519 1147 519 1147 449 1125.5 c 128,-1,9
 379 1104 379 1104 320.5 1045.5 c 128,-1,10
 262 987 262 987 233.5 875.5 c 128,-1,11
 205 764 205 764 205 594 c 128,-1,12
 205 424 205 424 233.5 312.5 c 128,-1,13
 262 201 262 201 320.5 142.5 c 128,-1,14
 379 84 379 84 448.5 62.5 c 128,-1,15
 518 41 518 41 621 41 c 0,16,17
 854 41 854 41 944 162 c 1,18,-1
 989 121 l 1,19,20
 876 -20 876 -20 620.5 -20 c 128,-1,21
 365 -20 365 -20 254 125 c 128,-1,0
 143 270 143 270 143 594 c 128,-1,1
EndSplineSet
Validated: 1
EndChar

StartChar: d
Encoding: 100 100 71
Width: 1132
GlyphClass: 2
Flags: MW
LayerCount: 2
Fore
SplineSet
350 0 m 2,0,-1
 195 0 l 1,1,-1
 195 1188 l 1,2,-1
 350 1188 l 2,3,4
 653 1188 653 1188 833.5 1028 c 128,-1,5
 1014 868 1014 868 1014 593.5 c 128,-1,6
 1014 319 1014 319 833.5 159.5 c 128,-1,7
 653 0 653 0 350 0 c 2,0,-1
350 61 m 2,8,9
 626 61 626 61 789 202.5 c 128,-1,10
 952 344 952 344 952 594 c 128,-1,11
 952 844 952 844 789.5 985 c 128,-1,12
 627 1126 627 1126 350 1126 c 2,13,-1
 256 1126 l 1,14,-1
 256 61 l 1,15,-1
 350 61 l 2,8,9
EndSplineSet
Validated: 1
EndChar

StartChar: e
Encoding: 101 101 72
Width: 1122
GlyphClass: 2
Flags: MW
LayerCount: 2
Fore
SplineSet
989 121 m 1,0,1
 876 -20 876 -20 620.5 -20 c 128,-1,2
 365 -20 365 -20 254 125 c 128,-1,3
 143 270 143 270 143 594 c 128,-1,4
 143 918 143 918 254 1063 c 128,-1,5
 365 1208 365 1208 621 1208 c 0,6,7
 918 1208 918 1208 1024 1014 c 1,8,-1
 522 594 l 1,9,-1
 426 594 l 1,10,-1
 944 1026 l 1,11,12
 854 1147 854 1147 621 1147 c 0,13,14
 519 1147 519 1147 449 1125.5 c 128,-1,15
 379 1104 379 1104 320.5 1045.5 c 128,-1,16
 262 987 262 987 233.5 875.5 c 128,-1,17
 205 764 205 764 205 594 c 128,-1,18
 205 424 205 424 233.5 312.5 c 128,-1,19
 262 201 262 201 320.5 142.5 c 128,-1,20
 379 84 379 84 448.5 62.5 c 128,-1,21
 518 41 518 41 621 41 c 0,22,23
 854 41 854 41 944 162 c 1,24,-1
 989 121 l 1,0,1
EndSplineSet
Validated: 1
EndChar

StartChar: f
Encoding: 102 102 73
Width: 1175
GlyphClass: 2
Flags: MW
LayerCount: 2
Fore
SplineSet
174 0 m 1,0,-1
 174 594 l 2,1,2
 174 918 174 918 285.5 1063 c 128,-1,3
 397 1208 397 1208 651 1208 c 0,4,5
 948 1208 948 1208 1055 1014 c 1,6,-1
 627 655 l 1,7,-1
 1063 655 l 1,8,-1
 1063 594 l 1,9,-1
 457 594 l 1,10,-1
 975 1026 l 1,11,12
 885 1147 885 1147 651 1147 c 0,13,14
 549 1147 549 1147 479.5 1125.5 c 128,-1,15
 410 1104 410 1104 351.5 1045.5 c 128,-1,16
 293 987 293 987 264.5 875.5 c 128,-1,17
 236 764 236 764 236 594 c 2,18,-1
 236 0 l 1,19,-1
 174 0 l 1,0,-1
EndSplineSet
Validated: 1
EndChar

StartChar: g
Encoding: 103 103 74
Width: 1167
GlyphClass: 2
Flags: MW
LayerCount: 2
Fore
SplineSet
672 799 m 1,0,-1
 944 1026 l 1,1,2
 854 1147 854 1147 621 1147 c 0,3,4
 519 1147 519 1147 449 1125.5 c 128,-1,5
 379 1104 379 1104 320.5 1045.5 c 128,-1,6
 262 987 262 987 233.5 875.5 c 128,-1,7
 205 764 205 764 205 594 c 128,-1,8
 205 424 205 424 233.5 312.5 c 128,-1,9
 262 201 262 201 320.5 142.5 c 128,-1,10
 379 84 379 84 448.5 62.5 c 128,-1,11
 518 41 518 41 621 41 c 0,12,13
 852 41 852 41 942 160 c 1,14,-1
 942 522 l 1,15,-1
 1004 522 l 1,16,-1
 1004 -18 l 2,17,18
 1004 -409 1004 -409 645 -410 c 2,19,-1
 406 -410 l 1,20,-1
 406 -348 l 1,21,-1
 645 -348 l 2,22,23
 799 -348 799 -348 870.5 -267 c 128,-1,24
 942 -186 942 -186 942 41 c 2,25,-1
 942 72 l 1,26,27
 831 -20 831 -20 621 -20 c 0,28,29
 365 -20 365 -20 254 125 c 128,-1,30
 143 270 143 270 143 594 c 128,-1,31
 143 918 143 918 254 1063 c 128,-1,32
 365 1208 365 1208 621 1208 c 0,33,34
 918 1208 918 1208 1024 1014 c 1,35,-1
 768 799 l 1,36,-1
 672 799 l 1,0,-1
EndSplineSet
Validated: 1
EndChar

StartChar: h
Encoding: 104 104 75
Width: 1126
GlyphClass: 2
Flags: MW
LayerCount: 2
Fore
SplineSet
932 0 m 1,0,-1
 870 0 l 1,1,-1
 870 594 l 1,2,-1
 256 594 l 1,3,-1
 256 0 l 1,4,-1
 195 0 l 1,5,-1
 195 1188 l 1,6,-1
 256 1188 l 1,7,-1
 256 655 l 1,8,-1
 870 655 l 1,9,-1
 870 1188 l 1,10,-1
 932 1188 l 1,11,-1
 932 0 l 1,0,-1
EndSplineSet
Validated: 1
EndChar

StartChar: i
Encoding: 105 105 76
Width: 450
GlyphClass: 2
Flags: MW
LayerCount: 2
Fore
SplineSet
195 1188 m 1,0,-1
 256 1188 l 1,1,-1
 256 0 l 1,2,-1
 195 0 l 1,3,-1
 195 1188 l 1,0,-1
EndSplineSet
Validated: 1
Substitution2: "'locl' Localized Forms in Latin lookup 2 subtable" i.TRK
Substitution2: "'aalt' Access All Alternates in Latin lookup 0 subtable" i.TRK
EndChar

StartChar: j
Encoding: 106 106 77
Width: 884
GlyphClass: 2
Flags: MW
LayerCount: 2
Fore
SplineSet
31 -80 m 1,0,1
 86 -348 86 -348 348 -348 c 0,2,3
 518 -348 518 -348 573.5 -253 c 128,-1,4
 629 -158 629 -158 629 25 c 2,5,-1
 629 1188 l 1,6,-1
 690 1188 l 1,7,-1
 690 25 l 2,8,9
 690 -32 690 -32 688 -67 c 128,-1,10
 686 -102 686 -102 678 -161.5 c 128,-1,11
 670 -221 670 -221 647.5 -257 c 128,-1,12
 625 -293 625 -293 589 -333 c 128,-1,13
 553 -373 553 -373 491.5 -391.5 c 128,-1,14
 430 -410 430 -410 348 -410 c 0,15,16
 26 -410 26 -410 -43 -80 c 1,17,-1
 31 -80 l 1,0,1
EndSplineSet
Validated: 1
EndChar

StartChar: k
Encoding: 107 107 78
Width: 1054
GlyphClass: 2
Flags: MW
LayerCount: 2
Fore
SplineSet
195 0 m 1,0,-1
 195 1188 l 1,1,-1
 256 1188 l 1,2,-1
 256 0 l 1,3,-1
 195 0 l 1,0,-1
952 0 m 1,4,-1
 322 627 l 1,5,-1
 887 1188 l 1,6,-1
 975 1188 l 1,7,-1
 410 627 l 1,8,-1
 1040 0 l 1,9,-1
 952 0 l 1,4,-1
EndSplineSet
Validated: 1
EndChar

StartChar: l
Encoding: 108 108 79
Width: 919
GlyphClass: 2
Flags: MW
LayerCount: 2
Fore
SplineSet
879 61 m 1,0,-1
 879 0 l 1,1,-1
 195 0 l 1,2,-1
 195 1188 l 1,3,-1
 256 1188 l 1,4,-1
 256 61 l 1,5,-1
 879 61 l 1,0,-1
EndSplineSet
Validated: 1
EndChar

StartChar: m
Encoding: 109 109 80
Width: 1433
GlyphClass: 2
Flags: MW
LayerCount: 2
Fore
SplineSet
387 61 m 1,0,-1
 1178 61 l 1,1,-1
 1178 1102 l 1,2,-1
 717 641 l 1,3,-1
 256 1102 l 1,4,-1
 256 0 l 1,5,-1
 195 2 l 1,6,-1
 195 1188 l 1,7,-1
 256 1188 l 1,8,-1
 717 727 l 1,9,-1
 1178 1188 l 1,10,-1
 1239 1188 l 1,11,-1
 1239 0 l 1,12,-1
 387 2 l 1,13,-1
 387 61 l 1,0,-1
EndSplineSet
Validated: 1
Substitution2: "'ss01' Style Set 1 in '    ' lookup 1 subtable" m.ss01
Substitution2: "'aalt' Access All Alternates in Latin lookup 0 subtable" m.ss01
EndChar

StartChar: n
Encoding: 110 110 81
Width: 1179
GlyphClass: 2
Flags: MW
LayerCount: 2
Fore
SplineSet
195 0 m 1,0,-1
 195 1188 l 1,1,-1
 256 1188 l 1,2,-1
 924 113 l 1,3,-1
 924 1188 l 1,4,-1
 985 1188 l 1,5,-1
 985 0 l 1,6,-1
 924 0 l 1,7,-1
 256 1077 l 1,8,-1
 256 0 l 1,9,-1
 195 0 l 1,0,-1
EndSplineSet
Validated: 1
EndChar

StartChar: o
Encoding: 111 111 82
Width: 1241
GlyphClass: 2
Flags: MW
LayerCount: 2
Fore
SplineSet
620.5 1147 m 128,-1,1
 518 1147 518 1147 448.5 1125.5 c 128,-1,2
 379 1104 379 1104 320.5 1045.5 c 128,-1,3
 262 987 262 987 233.5 875.5 c 128,-1,4
 205 764 205 764 205 594 c 128,-1,5
 205 424 205 424 233.5 312.5 c 128,-1,6
 262 201 262 201 320.5 142.5 c 128,-1,7
 379 84 379 84 448.5 62.5 c 128,-1,8
 518 41 518 41 620.5 41 c 128,-1,9
 723 41 723 41 792.5 62.5 c 128,-1,10
 862 84 862 84 920.5 142.5 c 128,-1,11
 979 201 979 201 1007.5 312.5 c 128,-1,12
 1036 424 1036 424 1036 594 c 128,-1,13
 1036 764 1036 764 1007.5 875.5 c 128,-1,14
 979 987 979 987 920.5 1045.5 c 128,-1,15
 862 1104 862 1104 792.5 1125.5 c 128,-1,0
 723 1147 723 1147 620.5 1147 c 128,-1,1
621 -20 m 128,-1,17
 365 -20 365 -20 254 125 c 128,-1,18
 143 270 143 270 143 594 c 128,-1,19
 143 918 143 918 254 1063 c 128,-1,20
 365 1208 365 1208 621 1208 c 128,-1,21
 877 1208 877 1208 987.5 1063 c 128,-1,22
 1098 918 1098 918 1098 594 c 128,-1,23
 1098 270 1098 270 987.5 125 c 128,-1,16
 877 -20 877 -20 621 -20 c 128,-1,17
EndSplineSet
Validated: 1
EndChar

StartChar: p
Encoding: 112 112 83
Width: 1083
GlyphClass: 2
Flags: MW
LayerCount: 2
Fore
SplineSet
702 442 m 1,0,-1
 672 496 l 1,1,-1
 786 561 l 1,2,3
 927 639 927 639 928 809 c 0,4,5
 928 1126 928 1126 444 1126 c 2,6,-1
 256 1126 l 1,7,-1
 256 -410 l 1,8,-1
 195 -410 l 1,9,-1
 195 1188 l 1,10,-1
 444 1188 l 2,11,12
 714 1188 714 1188 851.5 1088.5 c 128,-1,13
 989 989 989 989 989 809 c 0,14,15
 989 604 989 604 817 508 c 2,16,-1
 702 442 l 1,0,-1
EndSplineSet
Validated: 1
EndChar

StartChar: q
Encoding: 113 113 84
Width: 1243
GlyphClass: 2
Flags: HMW
LayerCount: 2
Fore
SplineSet
563 -18 m 1,0,1
 340 -4 340 -4 242.5 142.5 c 128,-1,2
 145 289 145 289 145 594 c 0,3,4
 145 918 145 918 257 1063 c 128,-1,5
 369 1208 369 1208 623 1208 c 128,-1,6
 877 1208 877 1208 988.5 1063 c 128,-1,7
 1100 918 1100 918 1100 594 c 0,8,9
 1100 184 1100 184 913 53 c 1,10,-1
 879 102 l 1,11,12
 1038 212 1038 212 1038 594 c 0,13,14
 1038 764 1038 764 1009.5 875.5 c 128,-1,15
 981 987 981 987 922.5 1045.5 c 128,-1,16
 864 1104 864 1104 794.5 1125.5 c 128,-1,17
 725 1147 725 1147 622.5 1147 c 128,-1,18
 520 1147 520 1147 450.5 1125.5 c 128,-1,19
 381 1104 381 1104 322.5 1045.5 c 128,-1,20
 264 987 264 987 235.5 875.5 c 128,-1,21
 207 764 207 764 207 594 c 128,-1,22
 207 424 207 424 235.5 312.5 c 128,-1,23
 264 201 264 201 322.5 142.5 c 128,-1,24
 381 84 381 84 450.5 62.5 c 128,-1,25
 520 41 520 41 623 41 c 1,26,27
 623 -186 623 -186 695.5 -267 c 128,-1,28
 768 -348 768 -348 922 -348 c 1,29,-1
 922 -410 l 1,30,31
 756 -410 756 -410 665.5 -327.5 c 128,-1,32
 575 -245 575 -245 563 -18 c 1,0,1
EndSplineSet
Validated: 1
EndChar

StartChar: r
Encoding: 114 114 85
Width: 1056
GlyphClass: 2
Flags: MW
LayerCount: 2
Fore
SplineSet
694 596 m 1,0,-1
 973 0 l 1,1,-1
 905 0 l 1,2,-1
 618 614 l 1,3,4
 622 616 622 616 654 631.5 c 128,-1,5
 686 647 686 647 698.5 654.5 c 128,-1,6
 711 662 711 662 739.5 680 c 128,-1,7
 768 698 768 698 782.5 715.5 c 128,-1,8
 797 733 797 733 814 756.5 c 128,-1,9
 831 780 831 780 839.5 810 c 128,-1,10
 848 840 848 840 848 874 c 0,11,12
 848 1003 848 1003 725 1064.5 c 128,-1,13
 602 1126 602 1126 420 1126 c 2,14,-1
 256 1126 l 1,15,-1
 256 0 l 1,16,-1
 195 0 l 1,17,-1
 195 1188 l 1,18,-1
 420 1188 l 2,19,20
 662 1188 662 1188 785.5 1104 c 128,-1,21
 909 1020 909 1020 909 874 c 0,22,23
 909 780 909 780 845.5 707.5 c 128,-1,24
 782 635 782 635 694 596 c 1,0,-1
EndSplineSet
Validated: 1
EndChar

StartChar: s
Encoding: 115 115 86
Width: 1058
GlyphClass: 2
Flags: MW
LayerCount: 2
Fore
SplineSet
508 1212 m 0,0,1
 762 1212 762 1212 868 1100 c 1,2,-1
 827 1055 l 1,3,4
 729 1151 729 1151 516 1151 c 0,5,6
 197 1151 197 1151 197 897 c 0,7,8
 197 799 197 799 274.5 740.5 c 128,-1,9
 352 682 352 682 463.5 651.5 c 128,-1,10
 575 621 575 621 687 587 c 128,-1,11
 799 553 799 553 876.5 478 c 128,-1,12
 954 403 954 403 954 283 c 0,13,14
 954 142 954 142 837.5 57.5 c 128,-1,15
 721 -27 721 -27 500 -27 c 0,16,17
 391 -27 391 -27 285.5 2 c 128,-1,18
 180 31 180 31 129 86 c 1,19,-1
 170 131 l 1,20,21
 274 35 274 35 492 35 c 0,22,23
 691 35 691 35 792 108.5 c 128,-1,24
 893 182 893 182 893 281 c 0,25,26
 893 383 893 383 815 446.5 c 128,-1,27
 737 510 737 510 625.5 541.5 c 128,-1,28
 514 573 514 573 402.5 607 c 128,-1,29
 291 641 291 641 213 712.5 c 128,-1,30
 135 784 135 784 135 901 c 0,31,32
 135 1059 135 1059 240.5 1135.5 c 128,-1,33
 346 1212 346 1212 508 1212 c 0,0,1
EndSplineSet
Validated: 1
EndChar

StartChar: t
Encoding: 116 116 87
Width: 1003
GlyphClass: 2
Flags: MW
LayerCount: 2
Fore
SplineSet
963 1188 m 1,0,-1
 963 1126 l 1,1,-1
 532 1126 l 1,2,-1
 532 0 l 1,3,-1
 471 0 l 1,4,-1
 471 1126 l 1,5,-1
 41 1126 l 1,6,-1
 41 1188 l 1,7,-1
 963 1188 l 1,0,-1
EndSplineSet
Validated: 1
EndChar

StartChar: u
Encoding: 117 117 88
Width: 1200
GlyphClass: 2
Flags: MW
LayerCount: 2
Fore
SplineSet
236 1188 m 1,0,-1
 236 594 l 2,1,2
 236 289 236 289 333 165 c 128,-1,3
 430 41 430 41 600 41 c 128,-1,4
 770 41 770 41 867.5 165 c 128,-1,5
 965 289 965 289 965 594 c 2,6,-1
 965 1188 l 1,7,-1
 1026 1188 l 1,8,-1
 1026 594 l 2,9,10
 1026 -20 1026 -20 600 -20 c 128,-1,11
 174 -20 174 -20 174 594 c 2,12,-1
 174 1188 l 1,13,-1
 236 1188 l 1,0,-1
EndSplineSet
Validated: 1
EndChar

StartChar: v
Encoding: 118 118 89
Width: 1097
GlyphClass: 2
Flags: MW
LayerCount: 2
Fore
SplineSet
1061 1188 m 1,0,-1
 549 -20 l 1,1,-1
 37 1188 l 1,2,-1
 102 1188 l 1,3,-1
 549 137 l 1,4,-1
 995 1188 l 1,5,-1
 1061 1188 l 1,0,-1
EndSplineSet
Validated: 1
EndChar

StartChar: w
Encoding: 119 119 90
Width: 1714
GlyphClass: 2
Flags: MW
LayerCount: 2
Fore
SplineSet
102 1188 m 1,0,-1
 549 137 l 1,1,-1
 858 864 l 1,2,-1
 1165 137 l 1,3,-1
 1585 1126 l 1,4,-1
 264 1126 l 1,5,-1
 264 1188 l 1,6,-1
 1677 1188 l 1,7,-1
 1165 -20 l 1,8,-1
 858 707 l 1,9,-1
 549 -20 l 1,10,-1
 37 1188 l 1,11,-1
 102 1188 l 1,0,-1
EndSplineSet
Validated: 1
Substitution2: "'ss01' Style Set 1 in '    ' lookup 1 subtable" w.ss01
Substitution2: "'aalt' Access All Alternates in Latin lookup 0 subtable" w.ss01
EndChar

StartChar: x
Encoding: 120 120 91
Width: 937
GlyphClass: 2
Flags: MW
LayerCount: 2
Fore
SplineSet
506 641 m 1,0,-1
 874 0 l 1,1,-1
 803 0 l 1,2,-1
 469 578 l 1,3,-1
 135 0 l 1,4,-1
 63 0 l 1,5,-1
 432 641 l 1,6,-1
 117 1188 l 1,7,-1
 188 1188 l 1,8,-1
 469 702 l 1,9,-1
 750 1188 l 1,10,-1
 821 1188 l 1,11,-1
 506 641 l 1,0,-1
EndSplineSet
Validated: 1
EndChar

StartChar: y
Encoding: 121 121 92
Width: 1093
GlyphClass: 2
Flags: MW
LayerCount: 2
Fore
SplineSet
266 1188 m 1,0,-1
 1059 1188 l 1,1,-1
 578 51 l 1,2,-1
 578 -410 l 1,3,-1
 516 -410 l 1,4,-1
 516 51 l 1,5,-1
 35 1188 l 1,6,-1
 100 1188 l 1,7,-1
 547 137 l 1,8,-1
 967 1126 l 1,9,-1
 266 1126 l 1,10,-1
 266 1188 l 1,0,-1
EndSplineSet
Validated: 1
Substitution2: "'ss01' Style Set 1 in '    ' lookup 1 subtable" y.ss01
Substitution2: "'aalt' Access All Alternates in Latin lookup 0 subtable" y.ss01
EndChar

StartChar: z
Encoding: 122 122 93
Width: 946
GlyphClass: 2
Flags: MW
LayerCount: 2
Fore
SplineSet
739 1126 m 1,0,-1
 100 1126 l 1,1,-1
 100 1188 l 1,2,-1
 846 1188 l 1,3,-1
 195 61 l 1,4,-1
 854 61 l 1,5,-1
 854 0 l 1,6,-1
 88 0 l 1,7,-1
 739 1126 l 1,0,-1
EndSplineSet
Validated: 1
EndChar

StartChar: braceleft
Encoding: 123 123 94
Width: 555
GlyphClass: 2
Flags: MW
LayerCount: 2
Fore
SplineSet
61 725 m 1,0,1
 233 813 233 813 233 1110 c 0,2,3
 233 1444 233 1444 440 1548 c 1,4,-1
 465 1497 l 1,5,6
 295 1411 295 1411 295 1110 c 0,7,8
 295 823 295 823 147 717 c 1,9,10
 294 611 294 611 295 324 c 0,11,12
 295 23 295 23 465 -63 c 1,13,-1
 440 -115 l 1,14,15
 233 -11 233 -11 233 324 c 0,16,17
 233 621 233 621 61 709 c 1,18,-1
 61 725 l 1,0,1
EndSplineSet
Validated: 1
EndChar

StartChar: bar
Encoding: 124 124 95
Width: 462
GlyphClass: 2
Flags: MW
LayerCount: 2
Fore
SplineSet
262 -123 m 1,0,-1
 201 -123 l 1,1,-1
 201 1556 l 1,2,-1
 262 1556 l 1,3,-1
 262 -123 l 1,0,-1
EndSplineSet
Validated: 1
EndChar

StartChar: braceright
Encoding: 125 125 96
Width: 555
GlyphClass: 2
Flags: MW
LayerCount: 2
Fore
SplineSet
494 709 m 1,0,1
 322 621 322 621 322 324 c 0,2,3
 322 -10 322 -10 115 -115 c 1,4,-1
 90 -63 l 1,5,6
 260 23 260 23 260 324 c 0,7,8
 260 611 260 611 408 717 c 1,9,10
 261 823 261 823 260 1110 c 0,11,12
 260 1411 260 1411 90 1497 c 1,13,-1
 115 1548 l 1,14,15
 322 1444 322 1444 322 1110 c 0,16,17
 322 813 322 813 494 725 c 1,18,-1
 494 709 l 1,0,1
EndSplineSet
Validated: 1
EndChar

StartChar: asciitilde
Encoding: 126 126 97
Width: 739
GlyphClass: 2
Flags: MW
LayerCount: 2
Fore
SplineSet
483 1274 m 0,0,1
 426 1274 426 1274 375 1323 c 128,-1,2
 324 1372 324 1372 283 1372 c 0,3,4
 250 1372 250 1372 225.5 1345.5 c 128,-1,5
 201 1319 201 1319 201 1274 c 1,6,-1
 139 1274 l 1,7,8
 139 1346 139 1346 183 1390 c 128,-1,9
 227 1434 227 1434 283 1434 c 0,10,11
 340 1434 340 1434 391 1384.5 c 128,-1,12
 442 1335 442 1335 483 1335 c 0,13,14
 516 1335 516 1335 540.5 1362 c 128,-1,15
 565 1389 565 1389 565 1434 c 1,16,-1
 627 1434 l 1,17,18
 627 1362 627 1362 582.5 1318 c 128,-1,19
 538 1274 538 1274 483 1274 c 0,0,1
EndSplineSet
Validated: 1
EndChar

StartChar: exclamdown
Encoding: 161 161 99
Width: 466
GlyphClass: 2
Flags: MW
LayerCount: 2
Fore
SplineSet
301 1069 m 1,0,-1
 166 1069 l 1,1,-1
 166 1188 l 1,2,-1
 301 1188 l 1,3,-1
 301 1069 l 1,0,-1
203 911 m 1,4,-1
 264 911 l 1,5,-1
 264 -246 l 1,6,-1
 203 -246 l 1,7,-1
 203 911 l 1,4,-1
EndSplineSet
Validated: 1
EndChar

StartChar: cent
Encoding: 162 162 100
Width: 1091
GlyphClass: 2
Flags: MW
LayerCount: 2
Fore
SplineSet
616 0 m 1,0,-1
 555 0 l 1,1,-1
 555 145 l 1,2,3
 334 159 334 159 229.5 307 c 128,-1,4
 125 455 125 455 125 702 c 0,5,6
 125 1216 125 1216 555 1243 c 1,7,-1
 555 1434 l 1,8,-1
 616 1434 l 1,9,-1
 616 1245 l 1,10,11
 862 1243 862 1243 971 1104 c 1,12,-1
 926 1063 l 1,13,14
 836 1180 836 1180 616 1184 c 1,15,-1
 616 221 l 1,16,17
 835 225 835 225 926 342 c 1,18,-1
 971 301 l 1,19,20
 852 149 852 149 616 143 c 1,21,-1
 616 0 l 1,0,-1
555 223 m 1,22,-1
 555 1182 l 1,23,24
 186 1155 186 1155 186 702.5 c 128,-1,25
 186 250 186 250 555 223 c 1,22,-1
EndSplineSet
Validated: 1
EndChar

StartChar: sterling
Encoding: 163 163 101
Width: 1099
GlyphClass: 2
Flags: MW
LayerCount: 2
Fore
SplineSet
104 66 m 1,0,1
 180 109 180 109 215 185.5 c 128,-1,2
 250 262 250 262 250 406 c 2,3,-1
 250 817 l 2,4,5
 250 1149 250 1149 334 1301.5 c 128,-1,6
 418 1454 418 1454 625 1454 c 0,7,8
 801 1454 801 1454 893 1335 c 1,9,-1
 838 1298 l 1,10,11
 758 1392 758 1392 625 1393 c 0,12,13
 469 1393 469 1393 390 1269 c 128,-1,14
 311 1145 311 1145 311 817 c 1,15,-1
 555 817 l 1,16,-1
 555 756 l 1,17,-1
 311 756 l 1,18,-1
 311 406 l 2,19,20
 311 175 311 175 193 61 c 1,21,-1
 1004 61 l 1,22,-1
 1004 0 l 1,23,-1
 104 0 l 1,24,-1
 104 66 l 1,0,1
EndSplineSet
Validated: 1
EndChar

StartChar: currency
Encoding: 164 164 102
Width: 985
GlyphClass: 2
Flags: MW
LayerCount: 2
Fore
SplineSet
287 524 m 128,-1,1
 287 440 287 440 347.5 379.5 c 128,-1,2
 408 319 408 319 491.5 319 c 128,-1,3
 575 319 575 319 636.5 379.5 c 128,-1,4
 698 440 698 440 698 524 c 128,-1,5
 698 608 698 608 636.5 668.5 c 128,-1,6
 575 729 575 729 491.5 729 c 128,-1,7
 408 729 408 729 347.5 668.5 c 128,-1,0
 287 608 287 608 287 524 c 128,-1,1
289 352 m 1,8,9
 226 430 226 430 225 524 c 0,10,11
 225 608 225 608 279 682 c 1,12,-1
 168 793 l 1,13,-1
 213 836 l 1,14,-1
 322 727 l 1,15,16
 400 790 400 790 492 791 c 0,17,18
 586 791 586 791 664 727 c 1,19,-1
 772 836 l 1,20,-1
 817 793 l 1,21,-1
 707 682 l 1,22,23
 760 608 760 608 760 524 c 0,24,25
 760 430 760 430 696 352 c 1,26,-1
 817 231 l 1,27,-1
 772 188 l 1,28,-1
 649 311 l 1,29,30
 575 258 575 258 491.5 258 c 128,-1,31
 408 258 408 258 334 311 c 1,32,-1
 213 188 l 1,33,-1
 168 231 l 1,34,-1
 289 352 l 1,8,9
EndSplineSet
Validated: 1
EndChar

StartChar: yen
Encoding: 165 165 103
Width: 1044
GlyphClass: 2
Flags: MW
LayerCount: 2
Fore
SplineSet
168 1434 m 1,0,-1
 522 866 l 1,1,-1
 877 1434 l 1,2,-1
 950 1434 l 1,3,-1
 553 799 l 1,4,-1
 553 676 l 1,5,-1
 836 676 l 1,6,-1
 836 614 l 1,7,-1
 553 614 l 1,8,-1
 553 471 l 1,9,-1
 836 471 l 1,10,-1
 836 410 l 1,11,-1
 553 410 l 1,12,-1
 553 0 l 1,13,-1
 492 0 l 1,14,-1
 492 410 l 1,15,-1
 209 410 l 1,16,-1
 209 471 l 1,17,-1
 492 471 l 1,18,-1
 492 614 l 1,19,-1
 209 614 l 1,20,-1
 209 676 l 1,21,-1
 492 676 l 1,22,-1
 492 799 l 1,23,-1
 94 1434 l 1,24,-1
 168 1434 l 1,0,-1
EndSplineSet
Validated: 1
EndChar

StartChar: brokenbar
Encoding: 166 166 104
Width: 471
GlyphClass: 2
Flags: MW
LayerCount: 2
Fore
SplineSet
205 819 m 1,0,-1
 205 1556 l 1,1,-1
 266 1556 l 1,2,-1
 266 819 l 1,3,-1
 205 819 l 1,0,-1
266 614 m 1,4,-1
 266 -123 l 1,5,-1
 205 -123 l 1,6,-1
 205 614 l 1,7,-1
 266 614 l 1,4,-1
EndSplineSet
Validated: 1
EndChar

StartChar: dieresis
Encoding: 168 168 105
Width: 684
GlyphClass: 2
Flags: MW
LayerCount: 2
Fore
SplineSet
457 1458 m 1,0,-1
 592 1458 l 1,1,-1
 592 1339 l 1,2,-1
 457 1339 l 1,3,-1
 457 1458 l 1,0,-1
92 1458 m 1,4,-1
 227 1458 l 1,5,-1
 227 1339 l 1,6,-1
 92 1339 l 1,7,-1
 92 1458 l 1,4,-1
EndSplineSet
Validated: 1
EndChar

StartChar: copyright
Encoding: 169 169 106
Width: 1249
GlyphClass: 2
Flags: MW
LayerCount: 2
Fore
SplineSet
624.5 1147 m 128,-1,1
 522 1147 522 1147 452.5 1125.5 c 128,-1,2
 383 1104 383 1104 324.5 1045.5 c 128,-1,3
 266 987 266 987 237.5 875.5 c 128,-1,4
 209 764 209 764 209 594 c 128,-1,5
 209 424 209 424 237.5 312.5 c 128,-1,6
 266 201 266 201 324.5 142.5 c 128,-1,7
 383 84 383 84 452.5 62.5 c 128,-1,8
 522 41 522 41 624.5 41 c 128,-1,9
 727 41 727 41 796.5 62.5 c 128,-1,10
 866 84 866 84 924.5 142.5 c 128,-1,11
 983 201 983 201 1011.5 312.5 c 128,-1,12
 1040 424 1040 424 1040 594 c 128,-1,13
 1040 764 1040 764 1011.5 875.5 c 128,-1,14
 983 987 983 987 924.5 1045.5 c 128,-1,15
 866 1104 866 1104 796.5 1125.5 c 128,-1,0
 727 1147 727 1147 624.5 1147 c 128,-1,1
625 -20 m 128,-1,17
 369 -20 369 -20 258 125 c 128,-1,18
 147 270 147 270 147 594 c 128,-1,19
 147 918 147 918 258 1063 c 128,-1,20
 369 1208 369 1208 625 1208 c 128,-1,21
 881 1208 881 1208 991.5 1063 c 128,-1,22
 1102 918 1102 918 1102 594 c 128,-1,23
 1102 270 1102 270 991.5 125 c 128,-1,16
 881 -20 881 -20 625 -20 c 128,-1,17
627 270 m 0,24,25
 486 270 486 270 429.5 352 c 128,-1,26
 373 434 373 434 373 594 c 0,27,28
 373 756 373 756 430 837 c 128,-1,29
 487 918 487 918 627 918 c 0,30,31
 762 918 762 918 831 829 c 1,32,-1
 786 788 l 1,33,-1
 776 803 l 1,34,35
 735 856 735 856 627 856 c 0,36,37
 514 856 514 856 474 794.5 c 128,-1,38
 434 733 434 733 434 594 c 0,39,40
 434 453 434 453 475 392.5 c 128,-1,41
 516 332 516 332 626.5 332 c 128,-1,42
 737 332 737 332 776 385 c 2,43,-1
 786 399 l 1,44,-1
 831 358 l 1,45,-1
 823 346 l 1,46,47
 764 270 764 270 627 270 c 0,24,25
EndSplineSet
Validated: 1
EndChar

StartChar: guillemotleft
Encoding: 171 171 107
Width: 884
GlyphClass: 2
Flags: MW
LayerCount: 2
Fore
SplineSet
125 717 m 1,0,-1
 412 956 l 1,1,-1
 451 909 l 1,2,-1
 221 717 l 1,3,-1
 451 524 l 1,4,-1
 412 477 l 1,5,-1
 125 717 l 1,0,-1
371 717 m 1,6,-1
 657 956 l 1,7,-1
 696 909 l 1,8,-1
 467 717 l 1,9,-1
 696 524 l 1,10,-1
 657 477 l 1,11,-1
 371 717 l 1,6,-1
EndSplineSet
Validated: 1
EndChar

StartChar: registered
Encoding: 174 174 108
Width: 1249
GlyphClass: 2
Flags: MW
LayerCount: 2
Fore
SplineSet
624.5 1147 m 128,-1,1
 522 1147 522 1147 452.5 1125.5 c 128,-1,2
 383 1104 383 1104 324.5 1045.5 c 128,-1,3
 266 987 266 987 237.5 875.5 c 128,-1,4
 209 764 209 764 209 594 c 128,-1,5
 209 424 209 424 237.5 312.5 c 128,-1,6
 266 201 266 201 324.5 142.5 c 128,-1,7
 383 84 383 84 452.5 62.5 c 128,-1,8
 522 41 522 41 624.5 41 c 128,-1,9
 727 41 727 41 796.5 62.5 c 128,-1,10
 866 84 866 84 924.5 142.5 c 128,-1,11
 983 201 983 201 1011.5 312.5 c 128,-1,12
 1040 424 1040 424 1040 594 c 128,-1,13
 1040 764 1040 764 1011.5 875.5 c 128,-1,14
 983 987 983 987 924.5 1045.5 c 128,-1,15
 866 1104 866 1104 796.5 1125.5 c 128,-1,0
 727 1147 727 1147 624.5 1147 c 128,-1,1
625 -20 m 128,-1,17
 369 -20 369 -20 258 125 c 128,-1,18
 147 270 147 270 147 594 c 128,-1,19
 147 918 147 918 258 1063 c 128,-1,20
 369 1208 369 1208 625 1208 c 128,-1,21
 881 1208 881 1208 991.5 1063 c 128,-1,22
 1102 918 1102 918 1102 594 c 128,-1,23
 1102 270 1102 270 991.5 125 c 128,-1,16
 881 -20 881 -20 625 -20 c 128,-1,17
639 610 m 1,24,25
 643 612 643 612 660.5 620.5 c 128,-1,26
 678 629 678 629 684 633 c 128,-1,27
 690 637 690 637 705.5 646 c 128,-1,28
 721 655 721 655 727 662.5 c 128,-1,29
 733 670 733 670 742.5 681 c 128,-1,30
 752 692 752 692 755 705.5 c 128,-1,31
 758 719 758 719 758 733 c 0,32,33
 758 788 758 788 701.5 816 c 128,-1,34
 645 844 645 844 559 844 c 2,35,-1
 494 844 l 1,36,-1
 494 283 l 1,37,-1
 432 283 l 1,38,-1
 432 905 l 1,39,-1
 559 905 l 2,40,41
 686 905 686 905 752.5 859 c 128,-1,42
 819 813 819 813 819 733 c 0,43,44
 819 643 819 643 717 588 c 1,45,-1
 860 283 l 1,46,-1
 793 283 l 1,47,-1
 639 610 l 1,24,25
EndSplineSet
Validated: 1
EndChar

StartChar: macron
Encoding: 175 175 109
Width: 614
GlyphClass: 2
Flags: MW
LayerCount: 2
Fore
SplineSet
70 1372 m 1,0,-1
 70 1434 l 1,1,-1
 520 1434 l 1,2,-1
 520 1372 l 1,3,-1
 70 1372 l 1,0,-1
EndSplineSet
Validated: 1
EndChar

StartChar: degree
Encoding: 176 176 110
Width: 659
GlyphClass: 2
Flags: MW
LayerCount: 2
Fore
SplineSet
330 1518 m 0,0,1
 269 1518 269 1518 227.5 1475 c 128,-1,2
 186 1432 186 1432 186 1374 c 0,3,4
 186 1313 186 1313 229 1272 c 128,-1,5
 272 1231 272 1231 330 1231 c 0,6,7
 391 1231 391 1231 432 1274 c 128,-1,8
 473 1317 473 1317 473 1374 c 0,9,10
 473 1435 473 1435 430 1476.5 c 128,-1,11
 387 1518 387 1518 330 1518 c 0,0,1
125 1374 m 0,12,13
 125 1462 125 1462 186.5 1520.5 c 128,-1,14
 248 1579 248 1579 330 1579 c 0,15,16
 418 1579 418 1579 476.5 1517.5 c 128,-1,17
 535 1456 535 1456 535 1374 c 0,18,19
 535 1286 535 1286 473.5 1227.5 c 128,-1,20
 412 1169 412 1169 330 1169 c 0,21,22
 242 1169 242 1169 183.5 1230.5 c 128,-1,23
 125 1292 125 1292 125 1374 c 0,12,13
EndSplineSet
Validated: 1
EndChar

StartChar: acute
Encoding: 180 180 111
Width: 471
GlyphClass: 2
Flags: MW
LayerCount: 2
Fore
SplineSet
379 1565 m 1,0,-1
 139 1280 l 1,1,-1
 92 1319 l 1,2,-1
 332 1606 l 1,3,-1
 379 1565 l 1,0,-1
EndSplineSet
Validated: 1
EndChar

StartChar: periodcentered
Encoding: 183 183 112
Width: 499
GlyphClass: 2
Flags: MW
LayerCount: 2
Fore
SplineSet
182 733 m 1,0,-1
 317 733 l 1,1,-1
 317 614 l 1,2,-1
 182 614 l 1,3,-1
 182 733 l 1,0,-1
EndSplineSet
Validated: 1
EndChar

StartChar: cedilla
Encoding: 184 184 113
Width: 348
GlyphClass: 2
Flags: MW
LayerCount: 2
Fore
SplineSet
92 -360 m 1,0,1
 180 -292 180 -292 180 -195 c 1,2,-1
 121 -195 l 1,3,-1
 121 -76 l 1,4,-1
 256 -76 l 1,5,6
 256 -221 256 -221 229.5 -282.5 c 128,-1,7
 203 -344 203 -344 133 -406 c 1,8,-1
 92 -360 l 1,0,1
EndSplineSet
Validated: 1
EndChar

StartChar: guillemotright
Encoding: 187 187 114
Width: 884
GlyphClass: 2
Flags: MW
LayerCount: 2
Fore
SplineSet
514 717 m 1,0,-1
 227 477 l 1,1,-1
 188 524 l 1,2,-1
 418 717 l 1,3,-1
 188 909 l 1,4,-1
 227 956 l 1,5,-1
 514 717 l 1,0,-1
760 717 m 1,6,-1
 473 477 l 1,7,-1
 434 524 l 1,8,-1
 664 717 l 1,9,-1
 434 909 l 1,10,-1
 473 956 l 1,11,-1
 760 717 l 1,6,-1
EndSplineSet
Validated: 1
EndChar

StartChar: questiondown
Encoding: 191 191 115
Width: 1026
GlyphClass: 2
Flags: MW
LayerCount: 2
Fore
SplineSet
664 1069 m 1,0,-1
 528 1069 l 1,1,-1
 528 1188 l 1,2,-1
 664 1188 l 1,3,-1
 664 1069 l 1,0,-1
627 868 m 1,4,5
 627 774 627 774 593 695 c 128,-1,6
 559 616 559 616 510 566 c 128,-1,7
 461 516 461 516 401.5 462 c 128,-1,8
 342 408 342 408 293 362.5 c 128,-1,9
 244 317 244 317 210 250.5 c 128,-1,10
 176 184 176 184 176 109 c 0,11,12
 176 7 176 7 204.5 -59 c 128,-1,13
 233 -125 233 -125 289.5 -154.5 c 128,-1,14
 346 -184 346 -184 402.5 -194.5 c 128,-1,15
 459 -205 459 -205 541 -205 c 0,16,17
 660 -205 660 -205 740.5 -149.5 c 128,-1,18
 821 -94 821 -94 864 43 c 1,19,-1
 643 209 l 1,20,-1
 743 209 l 1,21,-1
 934 66 l 1,22,23
 891 -102 891 -102 794.5 -184 c 128,-1,24
 698 -266 698 -266 541 -266 c 0,25,26
 316 -266 316 -266 215.5 -178 c 128,-1,27
 115 -90 115 -90 115 109 c 0,28,29
 115 195 115 195 148.5 267.5 c 128,-1,30
 182 340 182 340 231.5 388 c 128,-1,31
 281 436 281 436 340 489.5 c 128,-1,32
 399 543 399 543 448.5 591 c 128,-1,33
 498 639 498 639 531.5 710.5 c 128,-1,34
 565 782 565 782 565 868 c 1,35,-1
 627 868 l 1,4,5
EndSplineSet
Validated: 1
EndChar

StartChar: Agrave
Encoding: 192 192 116
Width: 1118
GlyphClass: 2
Flags: MW
LayerCount: 2
Back
SplineSet
368.64 1761.28 m 1,0,-1
 415.744 1802.24 l 1,1,-1
 655.36 1515.52 l 1,2,-1
 608.256 1476.61 l 1,3,-1
 368.64 1761.28 l 1,0,-1
239.616 61.4404 m 1,4,-1
 993.28 61.4404 l 1,5,-1
 559.104 1255.42 l 1,6,-1
 102.4 0 l 1,7,-1
 36.8643 0 l 1,8,-1
 559.104 1435.65 l 1,9,-1
 1081.34 0 l 1,10,-1
 239.616 0 l 1,11,-1
 239.616 61.4404 l 1,4,-1
EndSplineSet
Fore
Refer: 67 96 S 1 0 0 1 276 197 2
Refer: 36 65 N 1 0 0 1 0 0 3
Validated: 1
EndChar

StartChar: Aacute
Encoding: 193 193 117
Width: 1118
GlyphClass: 2
Flags: MW
LayerCount: 2
Back
SplineSet
751.616 1761.28 m 1,0,-1
 512 1476.61 l 1,1,-1
 464.896 1515.52 l 1,2,-1
 704.512 1802.24 l 1,3,-1
 751.616 1761.28 l 1,0,-1
239.616 61.4404 m 1,4,-1
 993.28 61.4404 l 1,5,-1
 559.104 1255.42 l 1,6,-1
 102.4 0 l 1,7,-1
 36.8643 0 l 1,8,-1
 559.104 1435.65 l 1,9,-1
 1081.34 0 l 1,10,-1
 239.616 0 l 1,11,-1
 239.616 61.4404 l 1,4,-1
EndSplineSet
Fore
Refer: 111 180 S 1 0 0 1 373 197 2
Refer: 36 65 N 1 0 0 1 0 0 3
Validated: 1
EndChar

StartChar: Acircumflex
Encoding: 194 194 118
Width: 1118
GlyphClass: 2
Flags: HMW
LayerCount: 2
Back
SplineSet
559.104 1769.47 m 1,0,-1
 798.72 1482.75 l 1,1,-1
 751.616 1443.84 l 1,2,-1
 559.104 1673.22 l 1,3,-1
 366.592 1443.84 l 1,4,-1
 319.488 1482.75 l 1,5,-1
 559.104 1769.47 l 1,0,-1
239.616 61.4404 m 1,6,-1
 993.28 61.4404 l 1,7,-1
 559.104 1255.42 l 1,8,-1
 102.4 0 l 1,9,-1
 36.8643 0 l 1,10,-1
 559.104 1435.65 l 1,11,-1
 1081.34 0 l 1,12,-1
 239.616 0 l 1,13,-1
 239.616 61.4404 l 1,6,-1
EndSplineSet
Fore
Refer: 314 710 S 1 0 0 1 227 164 2
Refer: 36 65 N 1 0 0 1 0 0 3
Validated: 1
EndChar

StartChar: Atilde
Encoding: 195 195 119
Width: 1118
GlyphClass: 2
Flags: HMW
LayerCount: 2
Back
SplineSet
663.552 1478.66 m 0,0,1
 606.208 1478.66 606.208 1478.66 555.008 1527.81 c 128,-1,2
 503.808 1576.96 503.808 1576.96 462.848 1576.96 c 0,3,4
 430.08 1576.96 430.08 1576.96 405.504 1550.34 c 128,-1,5
 380.928 1523.71 380.928 1523.71 380.928 1478.66 c 1,6,-1
 319.488 1478.66 l 1,7,8
 319.488 1550.34 319.488 1550.34 363.52 1594.37 c 128,-1,9
 407.552 1638.4 407.552 1638.4 462.848 1638.4 c 0,10,11
 520.192 1638.4 520.192 1638.4 571.392 1589.25 c 128,-1,12
 622.592 1540.1 622.592 1540.1 663.552 1540.1 c 0,13,14
 696.32 1540.1 696.32 1540.1 720.896 1566.72 c 128,-1,15
 745.472 1593.34 745.472 1593.34 745.472 1638.4 c 1,16,-1
 806.912 1638.4 l 1,17,18
 806.912 1566.72 806.912 1566.72 762.88 1522.69 c 128,-1,19
 718.848 1478.66 718.848 1478.66 663.552 1478.66 c 0,0,1
239.616 61.4404 m 1,20,-1
 993.28 61.4404 l 1,21,-1
 559.104 1255.42 l 1,22,-1
 102.4 0 l 1,23,-1
 36.8643 0 l 1,24,-1
 559.104 1435.65 l 1,25,-1
 1081.34 0 l 1,26,-1
 239.616 0 l 1,27,-1
 239.616 61.4404 l 1,20,-1
EndSplineSet
Fore
Refer: 320 732 S 1 0 0 1 227 205 2
Refer: 36 65 N 1 0 0 1 0 0 3
Validated: 1
EndChar

StartChar: Adieresis
Encoding: 196 196 120
Width: 1118
GlyphClass: 2
Flags: MW
LayerCount: 2
Back
SplineSet
673.792 1662.98 m 1,0,-1
 808.96 1662.98 l 1,1,-1
 808.96 1544.19 l 1,2,-1
 673.792 1544.19 l 1,3,-1
 673.792 1662.98 l 1,0,-1
309.248 1662.98 m 1,4,-1
 444.416 1662.98 l 1,5,-1
 444.416 1544.19 l 1,6,-1
 309.248 1544.19 l 1,7,-1
 309.248 1662.98 l 1,4,-1
239.616 61.4404 m 1,8,-1
 993.28 61.4404 l 1,9,-1
 559.104 1255.42 l 1,10,-1
 102.4 0 l 1,11,-1
 36.8643 0 l 1,12,-1
 559.104 1435.65 l 1,13,-1
 1081.34 0 l 1,14,-1
 239.616 0 l 1,15,-1
 239.616 61.4404 l 1,8,-1
EndSplineSet
Fore
Refer: 105 168 S 1 0 0 1 217 205 2
Refer: 36 65 N 1 0 0 1 0 0 3
Validated: 1
EndChar

StartChar: Aring
Encoding: 197 197 121
Width: 1118
GlyphClass: 2
Flags: HMW
LayerCount: 2
Back
SplineSet
559.104 1691.65 m 0,0,1
 520.192 1691.65 520.192 1691.65 493.568 1664 c 128,-1,2
 466.944 1636.35 466.944 1636.35 466.944 1599.49 c 0,3,4
 466.944 1560.58 466.944 1560.58 494.592 1533.95 c 128,-1,5
 522.24 1507.33 522.24 1507.33 559.104 1507.33 c 0,6,7
 598.016 1507.33 598.016 1507.33 624.64 1534.98 c 128,-1,8
 651.264 1562.62 651.264 1562.62 651.264 1599.49 c 0,9,10
 651.264 1638.4 651.264 1638.4 623.616 1665.02 c 128,-1,11
 595.968 1691.65 595.968 1691.65 559.104 1691.65 c 0,0,1
559.104 1742.85 m 0,12,13
 616.448 1742.85 616.448 1742.85 659.456 1701.89 c 128,-1,14
 702.464 1660.93 702.464 1660.93 702.464 1599.49 c 0,15,16
 702.464 1542.14 702.464 1542.14 661.504 1499.14 c 128,-1,17
 620.544 1456.13 620.544 1456.13 559.104 1456.13 c 0,18,19
 501.76 1456.13 501.76 1456.13 458.752 1497.09 c 128,-1,20
 415.744 1538.05 415.744 1538.05 415.744 1599.49 c 0,21,22
 415.744 1656.83 415.744 1656.83 456.704 1699.84 c 128,-1,23
 497.664 1742.85 497.664 1742.85 559.104 1742.85 c 0,12,13
239.616 61.4404 m 1,24,-1
 993.28 61.4404 l 1,25,-1
 559.104 1255.42 l 1,26,-1
 102.4 0 l 1,27,-1
 36.8643 0 l 1,28,-1
 559.104 1435.65 l 1,29,-1
 1081.34 0 l 1,30,-1
 239.616 0 l 1,31,-1
 239.616 61.4404 l 1,24,-1
EndSplineSet
Fore
Refer: 318 730 S 1 0 0 1 324 163 2
Refer: 36 65 N 1 0 0 1 0 0 3
Validated: 1
EndChar

StartChar: AE
Encoding: 198 198 122
Width: 1648
GlyphClass: 2
Flags: MW
LayerCount: 2
Fore
SplineSet
1407 750 m 1,0,-1
 799 750 l 1,1,-1
 1425 1372 l 1,2,-1
 733 1372 l 1,3,-1
 733 61 l 1,4,-1
 1528 61 l 1,5,-1
 1528 0 l 1,6,-1
 672 0 l 1,7,-1
 672 1284 l 1,8,-1
 100 61 l 1,9,-1
 479 61 l 1,10,-1
 479 0 l 1,11,-1
 4 0 l 1,12,-1
 672 1434 l 1,13,-1
 1575 1434 l 1,14,-1
 948 811 l 1,15,-1
 1407 811 l 1,16,-1
 1407 750 l 1,0,-1
EndSplineSet
Validated: 1
EndChar

StartChar: Ccedilla
Encoding: 199 199 123
Width: 1202
GlyphClass: 2
Flags: MW
LayerCount: 2
Back
SplineSet
549 -360 m 1,0,1
 637 -292 637 -292 637 -195 c 1,2,-1
 578 -195 l 1,3,-1
 578 -76 l 1,4,-1
 713 -76 l 1,5,6
 713 -221 713 -221 686 -282.5 c 128,-1,7
 659 -344 659 -344 590 -406 c 1,8,-1
 549 -360 l 1,0,1
1092 262 m 1,9,10
 1037 127 1037 127 936.5 53.5 c 128,-1,11
 836 -20 836 -20 635 -20 c 0,12,13
 383 -20 383 -20 270.5 134.5 c 128,-1,14
 158 289 158 289 158 616 c 2,15,-1
 158 817 l 2,16,17
 158 1145 158 1145 270.5 1299.5 c 128,-1,18
 383 1454 383 1454 635 1454 c 0,19,20
 836 1454 836 1454 936 1380.5 c 128,-1,21
 1036 1307 1036 1307 1092 1171 c 1,22,-1
 1036 1145 l 1,23,24
 989 1264 989 1264 903 1328.5 c 128,-1,25
 817 1393 817 1393 635 1393 c 0,26,27
 535 1393 535 1393 463 1367 c 128,-1,28
 391 1341 391 1341 333.5 1280 c 128,-1,29
 276 1219 276 1219 247.5 1103 c 128,-1,30
 219 987 219 987 219 817 c 2,31,-1
 219 616 l 2,32,33
 219 446 219 446 247.5 330.5 c 128,-1,34
 276 215 276 215 333.5 153.5 c 128,-1,35
 391 92 391 92 463 66.5 c 128,-1,36
 535 41 535 41 635 41 c 0,37,38
 817 41 817 41 903 105.5 c 128,-1,39
 989 170 989 170 1036 289 c 1,40,-1
 1092 262 l 1,9,10
EndSplineSet
Fore
Refer: 113 184 N 1 0 0 1 457 0 2
Refer: 38 67 N 1 0 0 1 0 0 3
Validated: 1
EndChar

StartChar: Egrave
Encoding: 200 200 124
Width: 1179
GlyphClass: 2
Flags: MW
LayerCount: 2
Back
SplineSet
442 1761 m 1,0,-1
 489 1802 l 1,1,-1
 729 1516 l 1,2,-1
 682 1477 l 1,3,-1
 442 1761 l 1,0,-1
938 750 m 1,4,-1
 330 750 l 1,5,-1
 956 1372 l 1,6,-1
 264 1372 l 1,7,-1
 264 61 l 1,8,-1
 1059 61 l 1,9,-1
 1059 0 l 1,10,-1
 203 0 l 1,11,-1
 203 1434 l 1,12,-1
 1106 1434 l 1,13,-1
 479 811 l 1,14,-1
 938 811 l 1,15,-1
 938 750 l 1,4,-1
EndSplineSet
Fore
Refer: 67 96 S 1 0 0 1 350 196 2
Refer: 40 69 N 1 0 0 1 0 0 3
Validated: 1
EndChar

StartChar: Eacute
Encoding: 201 201 125
Width: 1179
GlyphClass: 2
Flags: MW
LayerCount: 2
Back
SplineSet
823 1761 m 1,0,-1
 584 1477 l 1,1,-1
 537 1516 l 1,2,-1
 776 1802 l 1,3,-1
 823 1761 l 1,0,-1
938 750 m 1,4,-1
 330 750 l 1,5,-1
 956 1372 l 1,6,-1
 264 1372 l 1,7,-1
 264 61 l 1,8,-1
 1059 61 l 1,9,-1
 1059 0 l 1,10,-1
 203 0 l 1,11,-1
 203 1434 l 1,12,-1
 1106 1434 l 1,13,-1
 479 811 l 1,14,-1
 938 811 l 1,15,-1
 938 750 l 1,4,-1
EndSplineSet
Fore
Refer: 111 180 S 1 0 0 1 444 196 2
Refer: 40 69 N 1 0 0 1 0 0 3
Validated: 1
EndChar

StartChar: Ecircumflex
Encoding: 202 202 126
Width: 1179
GlyphClass: 2
Flags: HMW
LayerCount: 2
Back
SplineSet
633 1769 m 1,0,-1
 872 1483 l 1,1,-1
 825 1444 l 1,2,-1
 633 1673 l 1,3,-1
 440 1444 l 1,4,-1
 393 1483 l 1,5,-1
 633 1769 l 1,0,-1
938 750 m 1,6,-1
 330 750 l 1,7,-1
 956 1372 l 1,8,-1
 264 1372 l 1,9,-1
 264 61 l 1,10,-1
 1059 61 l 1,11,-1
 1059 0 l 1,12,-1
 203 0 l 1,13,-1
 203 1434 l 1,14,-1
 1106 1434 l 1,15,-1
 479 811 l 1,16,-1
 938 811 l 1,17,-1
 938 750 l 1,6,-1
EndSplineSet
Fore
Refer: 314 710 S 1 0 0 1 301 163 2
Refer: 40 69 N 1 0 0 1 0 0 3
Validated: 1
EndChar

StartChar: Edieresis
Encoding: 203 203 127
Width: 1179
GlyphClass: 2
Flags: MW
LayerCount: 2
Back
SplineSet
748 1663 m 1,0,-1
 883 1663 l 1,1,-1
 883 1544 l 1,2,-1
 748 1544 l 1,3,-1
 748 1663 l 1,0,-1
383 1663 m 1,4,-1
 518 1663 l 1,5,-1
 518 1544 l 1,6,-1
 383 1544 l 1,7,-1
 383 1663 l 1,4,-1
938 750 m 1,8,-1
 330 750 l 1,9,-1
 956 1372 l 1,10,-1
 264 1372 l 1,11,-1
 264 61 l 1,12,-1
 1059 61 l 1,13,-1
 1059 0 l 1,14,-1
 203 0 l 1,15,-1
 203 1434 l 1,16,-1
 1106 1434 l 1,17,-1
 479 811 l 1,18,-1
 938 811 l 1,19,-1
 938 750 l 1,8,-1
EndSplineSet
Fore
Refer: 105 168 S 1 0 0 1 291 205 2
Refer: 40 69 N 1 0 0 1 0 0 3
Validated: 1
EndChar

StartChar: Igrave
Encoding: 204 204 128
Width: 466
GlyphClass: 2
Flags: MW
LayerCount: 2
Back
SplineSet
80 1761 m 1,0,-1
 127 1802 l 1,1,-1
 367 1516 l 1,2,-1
 319 1477 l 1,3,-1
 80 1761 l 1,0,-1
264 0 m 1,4,-1
 203 0 l 1,5,-1
 203 1434 l 1,6,-1
 264 1434 l 1,7,-1
 264 0 l 1,4,-1
EndSplineSet
Fore
Refer: 67 96 S 1 0 0 1 -12 196 2
Refer: 44 73 N 1 0 0 1 0 0 3
Validated: 1
EndChar

StartChar: Iacute
Encoding: 205 205 129
Width: 466
GlyphClass: 2
Flags: MW
LayerCount: 2
Back
SplineSet
387 1761 m 1,0,-1
 147 1477 l 1,1,-1
 100 1516 l 1,2,-1
 340 1802 l 1,3,-1
 387 1761 l 1,0,-1
264 0 m 1,4,-1
 203 0 l 1,5,-1
 203 1434 l 1,6,-1
 264 1434 l 1,7,-1
 264 0 l 1,4,-1
EndSplineSet
Fore
Refer: 111 180 S 1 0 0 1 8 196 2
Refer: 44 73 N 1 0 0 1 0 0 3
Validated: 1
EndChar

StartChar: Icircumflex
Encoding: 206 206 130
Width: 466
GlyphClass: 2
Flags: HMW
LayerCount: 2
Back
SplineSet
233 1769 m 1,0,-1
 473 1483 l 1,1,-1
 426 1444 l 1,2,-1
 233 1673 l 1,3,-1
 41 1444 l 1,4,-1
 -6 1483 l 1,5,-1
 233 1769 l 1,0,-1
264 0 m 1,6,-1
 203 0 l 1,7,-1
 203 1434 l 1,8,-1
 264 1434 l 1,9,-1
 264 0 l 1,6,-1
EndSplineSet
Fore
Refer: 314 710 S 1 0 0 1 -99 164 2
Refer: 44 73 N 1 0 0 1 0 0 3
Validated: 1
EndChar

StartChar: Idieresis
Encoding: 207 207 131
Width: 466
GlyphClass: 2
Flags: MW
LayerCount: 2
Back
SplineSet
348 1663 m 1,0,-1
 483 1663 l 1,1,-1
 483 1544 l 1,2,-1
 348 1544 l 1,3,-1
 348 1663 l 1,0,-1
-16 1663 m 1,4,-1
 119 1663 l 1,5,-1
 119 1544 l 1,6,-1
 -16 1544 l 1,7,-1
 -16 1663 l 1,4,-1
264 0 m 1,8,-1
 203 0 l 1,9,-1
 203 1434 l 1,10,-1
 264 1434 l 1,11,-1
 264 0 l 1,8,-1
EndSplineSet
Fore
Refer: 105 168 S 1 0 0 1 -108 205 2
Refer: 44 73 N 1 0 0 1 0 0 3
Validated: 1
EndChar

StartChar: Eth
Encoding: 208 208 132
Width: 1214
GlyphClass: 2
Flags: MW
LayerCount: 2
Fore
SplineSet
72 686 m 1,0,-1
 72 748 l 1,1,-1
 203 748 l 1,2,-1
 203 1434 l 1,3,-1
 399 1434 l 2,4,5
 694 1434 694 1434 899 1216.5 c 128,-1,6
 1104 999 1104 999 1104 716.5 c 128,-1,7
 1104 434 1104 434 899 217 c 128,-1,8
 694 0 694 0 399 0 c 2,9,-1
 203 0 l 1,10,-1
 203 686 l 1,11,-1
 72 686 l 1,0,-1
399 61 m 2,12,13
 667 61 667 61 854.5 259 c 128,-1,14
 1042 457 1042 457 1042 717 c 128,-1,15
 1042 977 1042 977 855 1174.5 c 128,-1,16
 668 1372 668 1372 399 1372 c 2,17,-1
 264 1372 l 1,18,-1
 264 748 l 1,19,-1
 477 748 l 1,20,-1
 477 686 l 1,21,-1
 264 686 l 1,22,-1
 264 61 l 1,23,-1
 399 61 l 2,12,13
EndSplineSet
Validated: 1
EndChar

StartChar: Ntilde
Encoding: 209 209 133
Width: 1304
GlyphClass: 2
Flags: HMW
LayerCount: 2
Back
SplineSet
754 1479 m 0,0,1
 697 1479 697 1479 645.5 1528 c 128,-1,2
 594 1577 594 1577 553 1577 c 0,3,4
 520 1577 520 1577 495.5 1550.5 c 128,-1,5
 471 1524 471 1524 471 1479 c 1,6,-1
 410 1479 l 1,7,8
 410 1551 410 1551 454 1594.5 c 128,-1,9
 498 1638 498 1638 553 1638 c 0,10,11
 610 1638 610 1638 661.5 1589 c 128,-1,12
 713 1540 713 1540 754 1540 c 0,13,14
 787 1540 787 1540 811.5 1566.5 c 128,-1,15
 836 1593 836 1593 836 1638 c 1,16,-1
 897 1638 l 1,17,18
 897 1566 897 1566 853 1522.5 c 128,-1,19
 809 1479 809 1479 754 1479 c 0,0,1
362 61 m 1,20,-1
 997 61 l 1,21,-1
 264 1329 l 1,22,-1
 264 0 l 1,23,-1
 203 0 l 1,24,-1
 203 1434 l 1,25,-1
 274 1434 l 1,26,-1
 1040 109 l 1,27,-1
 1040 1434 l 1,28,-1
 1102 1434 l 1,29,-1
 1102 0 l 1,30,-1
 362 0 l 1,31,-1
 362 61 l 1,20,-1
EndSplineSet
Fore
Refer: 320 732 S 1 0 0 1 318 205 2
Refer: 49 78 N 1 0 0 1 0 0 3
Validated: 1
EndChar

StartChar: Ograve
Encoding: 210 210 134
Width: 1269
GlyphClass: 2
Flags: MW
LayerCount: 2
Back
SplineSet
444 1761 m 1,0,-1
 492 1802 l 1,1,-1
 731 1516 l 1,2,-1
 684 1477 l 1,3,-1
 444 1761 l 1,0,-1
635 -20 m 128,-1,5
 383 -20 383 -20 270.5 134.5 c 128,-1,6
 158 289 158 289 158 616 c 2,7,-1
 158 817 l 2,8,9
 158 1145 158 1145 270.5 1299.5 c 128,-1,10
 383 1454 383 1454 635 1454 c 128,-1,11
 887 1454 887 1454 999.5 1299.5 c 128,-1,12
 1112 1145 1112 1145 1112 817 c 2,13,-1
 1112 616 l 2,14,15
 1112 288 1112 288 999.5 134 c 128,-1,4
 887 -20 887 -20 635 -20 c 128,-1,5
635 1393 m 128,-1,17
 535 1393 535 1393 463 1367 c 128,-1,18
 391 1341 391 1341 333.5 1280 c 128,-1,19
 276 1219 276 1219 247.5 1103 c 128,-1,20
 219 987 219 987 219 817 c 2,21,-1
 219 616 l 2,22,23
 219 446 219 446 247.5 330.5 c 128,-1,24
 276 215 276 215 333.5 153.5 c 128,-1,25
 391 92 391 92 463 66.5 c 128,-1,26
 535 41 535 41 635 41 c 128,-1,27
 735 41 735 41 807 66.5 c 128,-1,28
 879 92 879 92 936 153.5 c 128,-1,29
 993 215 993 215 1022 330.5 c 128,-1,30
 1051 446 1051 446 1051 616 c 2,31,-1
 1051 817 l 2,32,33
 1051 987 1051 987 1022 1103 c 128,-1,34
 993 1219 993 1219 936 1280 c 128,-1,35
 879 1341 879 1341 807 1367 c 128,-1,16
 735 1393 735 1393 635 1393 c 128,-1,17
EndSplineSet
Fore
Refer: 67 96 S 1 0 0 1 352 196 2
Refer: 50 79 N 1 0 0 1 0 0 3
Validated: 1
EndChar

StartChar: Oacute
Encoding: 211 211 135
Width: 1269
GlyphClass: 2
Flags: MW
LayerCount: 2
Back
SplineSet
825 1761 m 1,0,-1
 586 1477 l 1,1,-1
 539 1516 l 1,2,-1
 778 1802 l 1,3,-1
 825 1761 l 1,0,-1
635 -20 m 128,-1,5
 383 -20 383 -20 270.5 134.5 c 128,-1,6
 158 289 158 289 158 616 c 2,7,-1
 158 817 l 2,8,9
 158 1145 158 1145 270.5 1299.5 c 128,-1,10
 383 1454 383 1454 635 1454 c 128,-1,11
 887 1454 887 1454 999.5 1299.5 c 128,-1,12
 1112 1145 1112 1145 1112 817 c 2,13,-1
 1112 616 l 2,14,15
 1112 288 1112 288 999.5 134 c 128,-1,4
 887 -20 887 -20 635 -20 c 128,-1,5
635 1393 m 128,-1,17
 535 1393 535 1393 463 1367 c 128,-1,18
 391 1341 391 1341 333.5 1280 c 128,-1,19
 276 1219 276 1219 247.5 1103 c 128,-1,20
 219 987 219 987 219 817 c 2,21,-1
 219 616 l 2,22,23
 219 446 219 446 247.5 330.5 c 128,-1,24
 276 215 276 215 333.5 153.5 c 128,-1,25
 391 92 391 92 463 66.5 c 128,-1,26
 535 41 535 41 635 41 c 128,-1,27
 735 41 735 41 807 66.5 c 128,-1,28
 879 92 879 92 936 153.5 c 128,-1,29
 993 215 993 215 1022 330.5 c 128,-1,30
 1051 446 1051 446 1051 616 c 2,31,-1
 1051 817 l 2,32,33
 1051 987 1051 987 1022 1103 c 128,-1,34
 993 1219 993 1219 936 1280 c 128,-1,35
 879 1341 879 1341 807 1367 c 128,-1,16
 735 1393 735 1393 635 1393 c 128,-1,17
EndSplineSet
Fore
Refer: 111 180 S 1 0 0 1 447 197 2
Refer: 50 79 N 1 0 0 1 0 0 3
Validated: 1
EndChar

StartChar: Ocircumflex
Encoding: 212 212 136
Width: 1269
GlyphClass: 2
Flags: HMW
LayerCount: 2
Back
SplineSet
635 1769 m 1,0,-1
 874 1483 l 1,1,-1
 827 1444 l 1,2,-1
 635 1673 l 1,3,-1
 442 1444 l 1,4,-1
 395 1483 l 1,5,-1
 635 1769 l 1,0,-1
635 -20 m 128,-1,7
 383 -20 383 -20 270.5 134.5 c 128,-1,8
 158 289 158 289 158 616 c 2,9,-1
 158 817 l 2,10,11
 158 1145 158 1145 270.5 1299.5 c 128,-1,12
 383 1454 383 1454 635 1454 c 128,-1,13
 887 1454 887 1454 999.5 1299.5 c 128,-1,14
 1112 1145 1112 1145 1112 817 c 2,15,-1
 1112 616 l 2,16,17
 1112 288 1112 288 999.5 134 c 128,-1,6
 887 -20 887 -20 635 -20 c 128,-1,7
635 1393 m 128,-1,19
 535 1393 535 1393 463 1367 c 128,-1,20
 391 1341 391 1341 333.5 1280 c 128,-1,21
 276 1219 276 1219 247.5 1103 c 128,-1,22
 219 987 219 987 219 817 c 2,23,-1
 219 616 l 2,24,25
 219 446 219 446 247.5 330.5 c 128,-1,26
 276 215 276 215 333.5 153.5 c 128,-1,27
 391 92 391 92 463 66.5 c 128,-1,28
 535 41 535 41 635 41 c 128,-1,29
 735 41 735 41 807 66.5 c 128,-1,30
 879 92 879 92 936 153.5 c 128,-1,31
 993 215 993 215 1022 330.5 c 128,-1,32
 1051 446 1051 446 1051 616 c 2,33,-1
 1051 817 l 2,34,35
 1051 987 1051 987 1022 1103 c 128,-1,36
 993 1219 993 1219 936 1280 c 128,-1,37
 879 1341 879 1341 807 1367 c 128,-1,18
 735 1393 735 1393 635 1393 c 128,-1,19
EndSplineSet
Fore
Refer: 314 710 S 1 0 0 1 303 164 2
Refer: 50 79 N 1 0 0 1 0 0 3
Validated: 1
EndChar

StartChar: Otilde
Encoding: 213 213 137
Width: 1269
GlyphClass: 2
Flags: HMW
LayerCount: 2
Back
SplineSet
739 1479 m 0,0,1
 682 1479 682 1479 631 1528 c 128,-1,2
 580 1577 580 1577 539 1577 c 0,3,4
 506 1577 506 1577 481.5 1550.5 c 128,-1,5
 457 1524 457 1524 457 1479 c 1,6,-1
 395 1479 l 1,7,8
 395 1551 395 1551 439 1594.5 c 128,-1,9
 483 1638 483 1638 539 1638 c 0,10,11
 596 1638 596 1638 647 1589 c 128,-1,12
 698 1540 698 1540 739 1540 c 0,13,14
 772 1540 772 1540 796.5 1566.5 c 128,-1,15
 821 1593 821 1593 821 1638 c 1,16,-1
 883 1638 l 1,17,18
 883 1566 883 1566 838.5 1522.5 c 128,-1,19
 794 1479 794 1479 739 1479 c 0,0,1
635 -20 m 128,-1,21
 383 -20 383 -20 270.5 134.5 c 128,-1,22
 158 289 158 289 158 616 c 2,23,-1
 158 817 l 2,24,25
 158 1145 158 1145 270.5 1299.5 c 128,-1,26
 383 1454 383 1454 635 1454 c 128,-1,27
 887 1454 887 1454 999.5 1299.5 c 128,-1,28
 1112 1145 1112 1145 1112 817 c 2,29,-1
 1112 616 l 2,30,31
 1112 288 1112 288 999.5 134 c 128,-1,20
 887 -20 887 -20 635 -20 c 128,-1,21
635 1393 m 128,-1,33
 535 1393 535 1393 463 1367 c 128,-1,34
 391 1341 391 1341 333.5 1280 c 128,-1,35
 276 1219 276 1219 247.5 1103 c 128,-1,36
 219 987 219 987 219 817 c 2,37,-1
 219 616 l 2,38,39
 219 446 219 446 247.5 330.5 c 128,-1,40
 276 215 276 215 333.5 153.5 c 128,-1,41
 391 92 391 92 463 66.5 c 128,-1,42
 535 41 535 41 635 41 c 128,-1,43
 735 41 735 41 807 66.5 c 128,-1,44
 879 92 879 92 936 153.5 c 128,-1,45
 993 215 993 215 1022 330.5 c 128,-1,46
 1051 446 1051 446 1051 616 c 2,47,-1
 1051 817 l 2,48,49
 1051 987 1051 987 1022 1103 c 128,-1,50
 993 1219 993 1219 936 1280 c 128,-1,51
 879 1341 879 1341 807 1367 c 128,-1,32
 735 1393 735 1393 635 1393 c 128,-1,33
EndSplineSet
Fore
Refer: 320 732 S 1 0 0 1 303 205 2
Refer: 50 79 N 1 0 0 1 0 0 3
Validated: 1
EndChar

StartChar: Odieresis
Encoding: 214 214 138
Width: 1269
GlyphClass: 2
Flags: MW
LayerCount: 2
Back
SplineSet
750 1663 m 1,0,-1
 885 1663 l 1,1,-1
 885 1544 l 1,2,-1
 750 1544 l 1,3,-1
 750 1663 l 1,0,-1
385 1663 m 1,4,-1
 520 1663 l 1,5,-1
 520 1544 l 1,6,-1
 385 1544 l 1,7,-1
 385 1663 l 1,4,-1
635 -20 m 128,-1,9
 383 -20 383 -20 270.5 134.5 c 128,-1,10
 158 289 158 289 158 616 c 2,11,-1
 158 817 l 2,12,13
 158 1145 158 1145 270.5 1299.5 c 128,-1,14
 383 1454 383 1454 635 1454 c 128,-1,15
 887 1454 887 1454 999.5 1299.5 c 128,-1,16
 1112 1145 1112 1145 1112 817 c 2,17,-1
 1112 616 l 2,18,19
 1112 288 1112 288 999.5 134 c 128,-1,8
 887 -20 887 -20 635 -20 c 128,-1,9
635 1393 m 128,-1,21
 535 1393 535 1393 463 1367 c 128,-1,22
 391 1341 391 1341 333.5 1280 c 128,-1,23
 276 1219 276 1219 247.5 1103 c 128,-1,24
 219 987 219 987 219 817 c 2,25,-1
 219 616 l 2,26,27
 219 446 219 446 247.5 330.5 c 128,-1,28
 276 215 276 215 333.5 153.5 c 128,-1,29
 391 92 391 92 463 66.5 c 128,-1,30
 535 41 535 41 635 41 c 128,-1,31
 735 41 735 41 807 66.5 c 128,-1,32
 879 92 879 92 936 153.5 c 128,-1,33
 993 215 993 215 1022 330.5 c 128,-1,34
 1051 446 1051 446 1051 616 c 2,35,-1
 1051 817 l 2,36,37
 1051 987 1051 987 1022 1103 c 128,-1,38
 993 1219 993 1219 936 1280 c 128,-1,39
 879 1341 879 1341 807 1367 c 128,-1,20
 735 1393 735 1393 635 1393 c 128,-1,21
EndSplineSet
Fore
Refer: 105 168 S 1 0 0 1 293 205 2
Refer: 50 79 N 1 0 0 1 0 0 3
Validated: 1
EndChar

StartChar: multiply
Encoding: 215 215 139
Width: 980
GlyphClass: 2
Flags: MW
LayerCount: 2
Fore
SplineSet
166 793 m 1,0,-1
 211 836 l 1,1,-1
 489 555 l 1,2,-1
 770 836 l 1,3,-1
 815 793 l 1,4,-1
 535 512 l 1,5,-1
 815 231 l 1,6,-1
 770 188 l 1,7,-1
 489 469 l 1,8,-1
 211 188 l 1,9,-1
 166 231 l 1,10,-1
 446 512 l 1,11,-1
 166 793 l 1,0,-1
EndSplineSet
Validated: 1
EndChar

StartChar: Oslash
Encoding: 216 216 140
Width: 1269
GlyphClass: 2
Flags: MW
LayerCount: 2
Fore
SplineSet
635 1393 m 0,0,1
 535 1393 535 1393 463 1367 c 128,-1,2
 391 1341 391 1341 333.5 1280 c 128,-1,3
 276 1219 276 1219 247.5 1103 c 128,-1,4
 219 987 219 987 219 817 c 2,5,-1
 219 616 l 2,6,7
 219 247 219 247 362 123 c 1,8,-1
 856 1346 l 1,9,10
 772 1393 772 1393 635 1393 c 0,0,1
348 -74 m 1,11,-1
 293 -51 l 1,12,-1
 340 63 l 1,13,14
 158 204 158 204 158 616 c 2,15,-1
 158 817 l 2,16,17
 158 1145 158 1145 270.5 1299.5 c 128,-1,18
 383 1454 383 1454 635 1454 c 0,19,20
 782 1454 782 1454 879 1403 c 1,21,-1
 922 1507 l 1,22,-1
 977 1485 l 1,23,-1
 930 1370 l 1,24,25
 1112 1229 1112 1229 1112 817 c 2,26,-1
 1112 616 l 2,27,28
 1112 288 1112 288 999.5 134 c 128,-1,29
 887 -20 887 -20 635 -20 c 0,30,31
 488 -20 488 -20 391 31 c 1,32,-1
 348 -74 l 1,11,-1
907 1311 m 1,33,-1
 414 88 l 1,34,35
 498 41 498 41 635 41 c 0,36,37
 735 41 735 41 807 66.5 c 128,-1,38
 879 92 879 92 936 153.5 c 128,-1,39
 993 215 993 215 1022 330.5 c 128,-1,40
 1051 446 1051 446 1051 616 c 2,41,-1
 1051 817 l 2,42,43
 1050 1186 1050 1186 907 1311 c 1,33,-1
EndSplineSet
Validated: 1
EndChar

StartChar: Ugrave
Encoding: 217 217 141
Width: 1323
GlyphClass: 2
Flags: HMW
LayerCount: 2
Back
SplineSet
1139 1434 m 1,0,-1
 1139 616 l 2,1,2
 1139 288 1139 288 1026 134 c 128,-1,3
 913 -20 913 -20 661.5 -20 c 128,-1,4
 410 -20 410 -20 297 134.5 c 128,-1,5
 184 289 184 289 184 616 c 2,6,-1
 184 1434 l 1,7,-1
 246 1434 l 1,8,-1
 246 616 l 2,9,10
 246 446 246 446 274.5 330.5 c 128,-1,11
 303 215 303 215 360.5 153.5 c 128,-1,12
 418 92 418 92 489.5 66.5 c 128,-1,13
 561 41 561 41 661.5 41 c 128,-1,14
 762 41 762 41 833.5 66.5 c 128,-1,15
 905 92 905 92 962.5 153.5 c 128,-1,16
 1020 215 1020 215 1048.5 330.5 c 128,-1,17
 1077 446 1077 446 1077 616 c 2,18,-1
 1077 1434 l 1,19,-1
 1139 1434 l 1,0,-1
471 1761 m 1,20,-1
 518 1802 l 1,21,-1
 758 1516 l 1,22,-1
 711 1477 l 1,23,-1
 471 1761 l 1,20,-1
EndSplineSet
Fore
Refer: 67 96 S 1 0 0 1 379 197 2
Refer: 342 -1 N 1 0 0 1 0 0 2
Validated: 1
EndChar

StartChar: Uacute
Encoding: 218 218 142
Width: 1323
GlyphClass: 2
Flags: HMW
LayerCount: 2
Back
SplineSet
1139 1434 m 1,0,-1
 1139 616 l 2,1,2
 1139 288 1139 288 1026 134 c 128,-1,3
 913 -20 913 -20 661.5 -20 c 128,-1,4
 410 -20 410 -20 297 134.5 c 128,-1,5
 184 289 184 289 184 616 c 2,6,-1
 184 1434 l 1,7,-1
 246 1434 l 1,8,-1
 246 616 l 2,9,10
 246 446 246 446 274.5 330.5 c 128,-1,11
 303 215 303 215 360.5 153.5 c 128,-1,12
 418 92 418 92 489.5 66.5 c 128,-1,13
 561 41 561 41 661.5 41 c 128,-1,14
 762 41 762 41 833.5 66.5 c 128,-1,15
 905 92 905 92 962.5 153.5 c 128,-1,16
 1020 215 1020 215 1048.5 330.5 c 128,-1,17
 1077 446 1077 446 1077 616 c 2,18,-1
 1077 1434 l 1,19,-1
 1139 1434 l 1,0,-1
852 1761 m 1,20,-1
 612 1477 l 1,21,-1
 565 1516 l 1,22,-1
 805 1802 l 1,23,-1
 852 1761 l 1,20,-1
EndSplineSet
Fore
Refer: 111 180 S 1 0 0 1 473 197 2
Refer: 342 -1 N 1 0 0 1 0 0 2
Validated: 1
EndChar

StartChar: Ucircumflex
Encoding: 219 219 143
Width: 1323
GlyphClass: 2
Flags: HMW
LayerCount: 2
Back
SplineSet
1139 1434 m 1,0,-1
 1139 616 l 2,1,2
 1139 288 1139 288 1026 134 c 128,-1,3
 913 -20 913 -20 661.5 -20 c 128,-1,4
 410 -20 410 -20 297 134.5 c 128,-1,5
 184 289 184 289 184 616 c 2,6,-1
 184 1434 l 1,7,-1
 246 1434 l 1,8,-1
 246 616 l 2,9,10
 246 446 246 446 274.5 330.5 c 128,-1,11
 303 215 303 215 360.5 153.5 c 128,-1,12
 418 92 418 92 489.5 66.5 c 128,-1,13
 561 41 561 41 661.5 41 c 128,-1,14
 762 41 762 41 833.5 66.5 c 128,-1,15
 905 92 905 92 962.5 153.5 c 128,-1,16
 1020 215 1020 215 1048.5 330.5 c 128,-1,17
 1077 446 1077 446 1077 616 c 2,18,-1
 1077 1434 l 1,19,-1
 1139 1434 l 1,0,-1
662 1769 m 1,20,-1
 901 1483 l 1,21,-1
 854 1444 l 1,22,-1
 662 1673 l 1,23,-1
 469 1444 l 1,24,-1
 422 1483 l 1,25,-1
 662 1769 l 1,20,-1
EndSplineSet
Fore
Refer: 314 710 S 1 0 0 1 330 164 2
Refer: 342 -1 N 1 0 0 1 0 0 2
Validated: 1
EndChar

StartChar: Udieresis
Encoding: 220 220 144
Width: 1323
GlyphClass: 2
Flags: HMW
LayerCount: 2
Back
SplineSet
1139 1434 m 1,0,-1
 1139 616 l 2,1,2
 1139 288 1139 288 1026 134 c 128,-1,3
 913 -20 913 -20 661.5 -20 c 128,-1,4
 410 -20 410 -20 297 134.5 c 128,-1,5
 184 289 184 289 184 616 c 2,6,-1
 184 1434 l 1,7,-1
 246 1434 l 1,8,-1
 246 616 l 2,9,10
 246 446 246 446 274.5 330.5 c 128,-1,11
 303 215 303 215 360.5 153.5 c 128,-1,12
 418 92 418 92 489.5 66.5 c 128,-1,13
 561 41 561 41 661.5 41 c 128,-1,14
 762 41 762 41 833.5 66.5 c 128,-1,15
 905 92 905 92 962.5 153.5 c 128,-1,16
 1020 215 1020 215 1048.5 330.5 c 128,-1,17
 1077 446 1077 446 1077 616 c 2,18,-1
 1077 1434 l 1,19,-1
 1139 1434 l 1,0,-1
776 1663 m 1,20,-1
 911 1663 l 1,21,-1
 911 1544 l 1,22,-1
 776 1544 l 1,23,-1
 776 1663 l 1,20,-1
412 1663 m 1,24,-1
 547 1663 l 1,25,-1
 547 1544 l 1,26,-1
 412 1544 l 1,27,-1
 412 1663 l 1,24,-1
EndSplineSet
Fore
Refer: 105 168 S 1 0 0 1 320 205 2
Refer: 342 -1 N 1 0 0 1 0 0 2
Validated: 1
EndChar

StartChar: Yacute
Encoding: 221 221 145
Width: 1118
GlyphClass: 2
Flags: HMW
LayerCount: 2
Back
SplineSet
1102 1434 m 1,0,-1
 590 614 l 1,1,-1
 590 0 l 1,2,-1
 528 0 l 1,3,-1
 528 614 l 1,4,-1
 16 1434 l 1,5,-1
 88 1434 l 1,6,-1
 559 682 l 1,7,-1
 1030 1434 l 1,8,-1
 1102 1434 l 1,0,-1
758 1761 m 1,9,-1
 518 1477 l 1,10,-1
 471 1516 l 1,11,-1
 711 1802 l 1,12,-1
 758 1761 l 1,9,-1
EndSplineSet
Fore
Refer: 111 180 S 1 0 0 1 379 197 2
Refer: 345 -1 N 1 0 0 1 0 0 2
Validated: 1
EndChar

StartChar: Thorn
Encoding: 222 222 146
Width: 1081
GlyphClass: 2
Flags: MW
LayerCount: 2
Fore
SplineSet
203 1434 m 1,0,-1
 264 1434 l 1,1,-1
 264 1126 l 1,2,-1
 453 1126 l 2,3,4
 723 1126 723 1126 860 1027 c 128,-1,5
 997 928 997 928 997 747.5 c 128,-1,6
 997 567 997 567 860 468 c 128,-1,7
 723 369 723 369 453 369 c 2,8,-1
 264 369 l 1,9,-1
 264 0 l 1,10,-1
 203 0 l 1,11,-1
 203 1434 l 1,0,-1
264 1065 m 1,12,-1
 264 430 l 1,13,-1
 453 430 l 2,14,15
 936 430 936 430 936 747.5 c 128,-1,16
 936 1065 936 1065 453 1065 c 2,17,-1
 264 1065 l 1,12,-1
EndSplineSet
Validated: 1
EndChar

StartChar: germandbls
Encoding: 223 223 147
Width: 1196
GlyphClass: 2
Flags: MW
LayerCount: 2
Fore
SplineSet
516 1434 m 2,0,-1
 635 1434 l 2,1,2
 737 1434 737 1434 791.5 1378.5 c 128,-1,3
 846 1323 846 1323 846 1239 c 0,4,5
 846 1190 846 1190 808 1152 c 128,-1,6
 770 1114 770 1114 716 1091.5 c 128,-1,7
 662 1069 662 1069 607.5 1045.5 c 128,-1,8
 553 1022 553 1022 515 984 c 128,-1,9
 477 946 477 946 477 897 c 0,10,11
 477 799 477 799 541.5 740.5 c 128,-1,12
 606 682 606 682 698.5 651.5 c 128,-1,13
 791 621 791 621 883 587 c 128,-1,14
 975 553 975 553 1039.5 478 c 128,-1,15
 1104 403 1104 403 1104 283 c 0,16,17
 1104 146 1104 146 1015 59.5 c 128,-1,18
 926 -27 926 -27 780 -27 c 0,19,20
 671 -27 671 -27 566 2 c 128,-1,21
 461 31 461 31 410 86 c 1,22,-1
 451 131 l 1,23,24
 555 35 555 35 772 35 c 0,25,26
 901 35 901 35 971.5 109.5 c 128,-1,27
 1042 184 1042 184 1042 281 c 0,28,29
 1042 383 1042 383 977.5 446.5 c 128,-1,30
 913 510 913 510 821 541.5 c 128,-1,31
 729 573 729 573 637 607 c 128,-1,32
 545 641 545 641 480.5 712.5 c 128,-1,33
 416 784 416 784 416 901 c 0,34,35
 416 977 416 977 473 1030 c 128,-1,36
 530 1083 530 1083 600 1108 c 128,-1,37
 670 1133 670 1133 727 1166.5 c 128,-1,38
 784 1200 784 1200 784 1239 c 0,39,40
 784 1294 784 1294 748.5 1333 c 128,-1,41
 713 1372 713 1372 635 1372 c 2,42,-1
 516 1372 l 2,43,44
 405 1372 405 1372 330.5 1275 c 128,-1,45
 256 1178 256 1178 256 967 c 2,46,-1
 256 0 l 1,47,-1
 195 0 l 1,48,-1
 195 967 l 2,49,50
 195 1192 195 1192 279.5 1313 c 128,-1,51
 364 1434 364 1434 516 1434 c 2,0,-1
EndSplineSet
Validated: 1
EndChar

StartChar: agrave
Encoding: 224 224 148
Width: 1101
GlyphClass: 2
Flags: MW
LayerCount: 2
Back
SplineSet
360 1565 m 1,0,-1
 408 1606 l 1,1,-1
 647 1319 l 1,2,-1
 600 1280 l 1,3,-1
 360 1565 l 1,0,-1
303 61 m 1,4,-1
 971 61 l 1,5,-1
 551 1051 l 1,6,-1
 104 0 l 1,7,-1
 39 0 l 1,8,-1
 551 1208 l 1,9,-1
 1063 0 l 1,10,-1
 303 0 l 1,11,-1
 303 61 l 1,4,-1
EndSplineSet
Fore
Refer: 67 96 S 1 0 0 1 268 0 2
Refer: 68 97 N 1 0 0 1 0 0 3
Validated: 1
EndChar

StartChar: aacute
Encoding: 225 225 149
Width: 1101
GlyphClass: 2
Flags: MW
LayerCount: 2
Back
SplineSet
741 1565 m 1,0,-1
 502 1280 l 1,1,-1
 455 1319 l 1,2,-1
 694 1606 l 1,3,-1
 741 1565 l 1,0,-1
303 61 m 1,4,-1
 971 61 l 1,5,-1
 551 1051 l 1,6,-1
 104 0 l 1,7,-1
 39 0 l 1,8,-1
 551 1208 l 1,9,-1
 1063 0 l 1,10,-1
 303 0 l 1,11,-1
 303 61 l 1,4,-1
EndSplineSet
Fore
Refer: 111 180 S 1 0 0 1 363 0 2
Refer: 68 97 N 1 0 0 1 0 0 3
Validated: 1
EndChar

StartChar: acircumflex
Encoding: 226 226 150
Width: 1101
GlyphClass: 2
Flags: HMW
LayerCount: 2
Back
SplineSet
551 1606 m 1,0,-1
 791 1319 l 1,1,-1
 743 1280 l 1,2,-1
 551 1509 l 1,3,-1
 358 1280 l 1,4,-1
 311 1319 l 1,5,-1
 551 1606 l 1,0,-1
303 61 m 1,6,-1
 971 61 l 1,7,-1
 551 1051 l 1,8,-1
 104 0 l 1,9,-1
 39 0 l 1,10,-1
 551 1208 l 1,11,-1
 1063 0 l 1,12,-1
 303 0 l 1,13,-1
 303 61 l 1,6,-1
EndSplineSet
Fore
Refer: 314 710 S 1 0 0 1 219 0 2
Refer: 68 97 N 1 0 0 1 0 0 3
Validated: 1
EndChar

StartChar: atilde
Encoding: 227 227 151
Width: 1101
GlyphClass: 2
Flags: HMW
LayerCount: 2
Back
SplineSet
655 1274 m 0,0,1
 598 1274 598 1274 547 1323 c 128,-1,2
 496 1372 496 1372 455 1372 c 0,3,4
 422 1372 422 1372 397.5 1345.5 c 128,-1,5
 373 1319 373 1319 373 1274 c 1,6,-1
 311 1274 l 1,7,8
 311 1346 311 1346 355 1390 c 128,-1,9
 399 1434 399 1434 455 1434 c 0,10,11
 512 1434 512 1434 563 1384.5 c 128,-1,12
 614 1335 614 1335 655 1335 c 0,13,14
 688 1335 688 1335 712.5 1362 c 128,-1,15
 737 1389 737 1389 737 1434 c 1,16,-1
 799 1434 l 1,17,18
 799 1362 799 1362 754.5 1318 c 128,-1,19
 710 1274 710 1274 655 1274 c 0,0,1
303 61 m 1,20,-1
 971 61 l 1,21,-1
 551 1051 l 1,22,-1
 104 0 l 1,23,-1
 39 0 l 1,24,-1
 551 1208 l 1,25,-1
 1063 0 l 1,26,-1
 303 0 l 1,27,-1
 303 61 l 1,20,-1
EndSplineSet
Fore
Refer: 320 732 S 1 0 0 1 219 0 2
Refer: 68 97 N 1 0 0 1 0 0 3
Validated: 1
EndChar

StartChar: adieresis
Encoding: 228 228 152
Width: 1101
GlyphClass: 2
Flags: MW
LayerCount: 2
Back
SplineSet
666 1458 m 1,0,-1
 801 1458 l 1,1,-1
 801 1339 l 1,2,-1
 666 1339 l 1,3,-1
 666 1458 l 1,0,-1
301 1458 m 1,4,-1
 436 1458 l 1,5,-1
 436 1339 l 1,6,-1
 301 1339 l 1,7,-1
 301 1458 l 1,4,-1
303 61 m 1,8,-1
 971 61 l 1,9,-1
 551 1051 l 1,10,-1
 104 0 l 1,11,-1
 39 0 l 1,12,-1
 551 1208 l 1,13,-1
 1063 0 l 1,14,-1
 303 0 l 1,15,-1
 303 61 l 1,8,-1
EndSplineSet
Fore
Refer: 105 168 S 1 0 0 1 209 0 2
Refer: 68 97 N 1 0 0 1 0 0 3
Validated: 1
EndChar

StartChar: aring
Encoding: 229 229 153
Width: 1101
GlyphClass: 2
Flags: HMW
LayerCount: 2
Back
SplineSet
551 1528 m 0,0,1
 512 1528 512 1528 485.5 1500.5 c 128,-1,2
 459 1473 459 1473 459 1436 c 0,3,4
 459 1397 459 1397 486.5 1370 c 128,-1,5
 514 1343 514 1343 551 1343 c 0,6,7
 590 1343 590 1343 616.5 1371 c 128,-1,8
 643 1399 643 1399 643 1436 c 0,9,10
 643 1475 643 1475 615.5 1501.5 c 128,-1,11
 588 1528 588 1528 551 1528 c 0,0,1
551 1579 m 0,12,13
 608 1579 608 1579 651 1538 c 128,-1,14
 694 1497 694 1497 694 1436 c 0,15,16
 694 1379 694 1379 653 1335.5 c 128,-1,17
 612 1292 612 1292 551 1292 c 0,18,19
 494 1292 494 1292 451 1333 c 128,-1,20
 408 1374 408 1374 408 1436 c 0,21,22
 408 1493 408 1493 449 1536 c 128,-1,23
 490 1579 490 1579 551 1579 c 0,12,13
303 61 m 1,24,-1
 971 61 l 1,25,-1
 551 1051 l 1,26,-1
 104 0 l 1,27,-1
 39 0 l 1,28,-1
 551 1208 l 1,29,-1
 1063 0 l 1,30,-1
 303 0 l 1,31,-1
 303 61 l 1,24,-1
EndSplineSet
Fore
Refer: 318 730 S 1 0 0 1 316 0 2
Refer: 68 97 N 1 0 0 1 0 0 3
Validated: 1
EndChar

StartChar: ae
Encoding: 230 230 154
Width: 1552
GlyphClass: 2
Flags: MW
LayerCount: 2
Fore
SplineSet
1419 121 m 1,0,1
 1306 -20 1306 -20 1050.5 -20 c 128,-1,2
 795 -20 795 -20 684 125 c 128,-1,3
 573 270 573 270 573 594 c 2,4,-1
 573 1042 l 1,5,-1
 117 61 l 1,6,-1
 487 61 l 1,7,-1
 487 0 l 1,8,-1
 20 0 l 1,9,-1
 573 1188 l 1,10,-1
 635 1188 l 1,11,-1
 635 979 l 1,12,13
 735 1208 735 1208 1051 1208 c 0,14,15
 1348 1208 1348 1208 1454 1014 c 1,16,-1
 952 594 l 1,17,-1
 856 594 l 1,18,-1
 1374 1026 l 1,19,20
 1284 1147 1284 1147 1051 1147 c 0,21,22
 949 1147 949 1147 879 1125.5 c 128,-1,23
 809 1104 809 1104 750.5 1045.5 c 128,-1,24
 692 987 692 987 663.5 875.5 c 128,-1,25
 635 764 635 764 635 594 c 128,-1,26
 635 424 635 424 663.5 312.5 c 128,-1,27
 692 201 692 201 750.5 142.5 c 128,-1,28
 809 84 809 84 878.5 62.5 c 128,-1,29
 948 41 948 41 1051 41 c 0,30,31
 1284 41 1284 41 1374 162 c 1,32,-1
 1419 121 l 1,0,1
EndSplineSet
Validated: 1
EndChar

StartChar: ccedilla
Encoding: 231 231 155
Width: 1099
GlyphClass: 2
Flags: MW
LayerCount: 2
Back
SplineSet
524 -360 m 1,0,1
 612 -292 612 -292 612 -195 c 1,2,-1
 553 -195 l 1,3,-1
 553 -76 l 1,4,-1
 688 -76 l 1,5,6
 688 -221 688 -221 661.5 -282.5 c 128,-1,7
 635 -344 635 -344 565 -406 c 1,8,-1
 524 -360 l 1,0,1
143 594 m 128,-1,10
 143 918 143 918 254 1063 c 128,-1,11
 365 1208 365 1208 621 1208 c 128,-1,12
 877 1208 877 1208 989 1067 c 1,13,-1
 944 1026 l 1,14,15
 854 1147 854 1147 621 1147 c 0,16,17
 519 1147 519 1147 449 1125.5 c 128,-1,18
 379 1104 379 1104 320.5 1045.5 c 128,-1,19
 262 987 262 987 233.5 875.5 c 128,-1,20
 205 764 205 764 205 594 c 128,-1,21
 205 424 205 424 233.5 312.5 c 128,-1,22
 262 201 262 201 320.5 142.5 c 128,-1,23
 379 84 379 84 448.5 62.5 c 128,-1,24
 518 41 518 41 621 41 c 0,25,26
 854 41 854 41 944 162 c 1,27,-1
 989 121 l 1,28,29
 876 -20 876 -20 620.5 -20 c 128,-1,30
 365 -20 365 -20 254 125 c 128,-1,9
 143 270 143 270 143 594 c 128,-1,10
EndSplineSet
Fore
Refer: 113 184 S 1 0 0 1 432 0 2
Refer: 70 99 N 1 0 0 1 0 0 3
Validated: 1
EndChar

StartChar: egrave
Encoding: 232 232 156
Width: 1122
GlyphClass: 2
Flags: MW
LayerCount: 2
Back
SplineSet
408 1565 m 1,0,-1
 455 1606 l 1,1,-1
 694 1319 l 1,2,-1
 647 1280 l 1,3,-1
 408 1565 l 1,0,-1
989 121 m 1,4,5
 876 -20 876 -20 620.5 -20 c 128,-1,6
 365 -20 365 -20 254 125 c 128,-1,7
 143 270 143 270 143 594 c 128,-1,8
 143 918 143 918 254 1063 c 128,-1,9
 365 1208 365 1208 621 1208 c 0,10,11
 918 1208 918 1208 1024 1014 c 1,12,-1
 522 594 l 1,13,-1
 426 594 l 1,14,-1
 944 1026 l 1,15,16
 854 1147 854 1147 621 1147 c 0,17,18
 519 1147 519 1147 449 1125.5 c 128,-1,19
 379 1104 379 1104 320.5 1045.5 c 128,-1,20
 262 987 262 987 233.5 875.5 c 128,-1,21
 205 764 205 764 205 594 c 128,-1,22
 205 424 205 424 233.5 312.5 c 128,-1,23
 262 201 262 201 320.5 142.5 c 128,-1,24
 379 84 379 84 448.5 62.5 c 128,-1,25
 518 41 518 41 621 41 c 0,26,27
 854 41 854 41 944 162 c 1,28,-1
 989 121 l 1,4,5
EndSplineSet
Fore
Refer: 67 96 S 1 0 0 1 315 0 2
Refer: 72 101 N 1 0 0 1 0 0 3
Validated: 1
EndChar

StartChar: eacute
Encoding: 233 233 157
Width: 1122
GlyphClass: 2
Flags: MW
LayerCount: 2
Back
SplineSet
788 1565 m 1,0,-1
 549 1280 l 1,1,-1
 502 1319 l 1,2,-1
 741 1606 l 1,3,-1
 788 1565 l 1,0,-1
989 121 m 1,4,5
 876 -20 876 -20 620.5 -20 c 128,-1,6
 365 -20 365 -20 254 125 c 128,-1,7
 143 270 143 270 143 594 c 128,-1,8
 143 918 143 918 254 1063 c 128,-1,9
 365 1208 365 1208 621 1208 c 0,10,11
 918 1208 918 1208 1024 1014 c 1,12,-1
 522 594 l 1,13,-1
 426 594 l 1,14,-1
 944 1026 l 1,15,16
 854 1147 854 1147 621 1147 c 0,17,18
 519 1147 519 1147 449 1125.5 c 128,-1,19
 379 1104 379 1104 320.5 1045.5 c 128,-1,20
 262 987 262 987 233.5 875.5 c 128,-1,21
 205 764 205 764 205 594 c 128,-1,22
 205 424 205 424 233.5 312.5 c 128,-1,23
 262 201 262 201 320.5 142.5 c 128,-1,24
 379 84 379 84 448.5 62.5 c 128,-1,25
 518 41 518 41 621 41 c 0,26,27
 854 41 854 41 944 162 c 1,28,-1
 989 121 l 1,4,5
EndSplineSet
Fore
Refer: 111 180 S 1 0 0 1 410 0 2
Refer: 72 101 N 1 0 0 1 0 0 3
Validated: 1
EndChar

StartChar: ecircumflex
Encoding: 234 234 158
Width: 1122
GlyphClass: 2
Flags: HMW
LayerCount: 2
Back
SplineSet
598 1606 m 1,0,-1
 838 1319 l 1,1,-1
 791 1280 l 1,2,-1
 598 1509 l 1,3,-1
 406 1280 l 1,4,-1
 358 1319 l 1,5,-1
 598 1606 l 1,0,-1
989 121 m 1,6,7
 876 -20 876 -20 620.5 -20 c 128,-1,8
 365 -20 365 -20 254 125 c 128,-1,9
 143 270 143 270 143 594 c 128,-1,10
 143 918 143 918 254 1063 c 128,-1,11
 365 1208 365 1208 621 1208 c 0,12,13
 918 1208 918 1208 1024 1014 c 1,14,-1
 522 594 l 1,15,-1
 426 594 l 1,16,-1
 944 1026 l 1,17,18
 854 1147 854 1147 621 1147 c 0,19,20
 519 1147 519 1147 449 1125.5 c 128,-1,21
 379 1104 379 1104 320.5 1045.5 c 128,-1,22
 262 987 262 987 233.5 875.5 c 128,-1,23
 205 764 205 764 205 594 c 128,-1,24
 205 424 205 424 233.5 312.5 c 128,-1,25
 262 201 262 201 320.5 142.5 c 128,-1,26
 379 84 379 84 448.5 62.5 c 128,-1,27
 518 41 518 41 621 41 c 0,28,29
 854 41 854 41 944 162 c 1,30,-1
 989 121 l 1,6,7
EndSplineSet
Fore
Refer: 314 710 N 1 0 0 1 266 0 2
Refer: 72 101 N 1 0 0 1 0 0 3
Validated: 1
EndChar

StartChar: edieresis
Encoding: 235 235 159
Width: 1122
GlyphClass: 2
Flags: MW
LayerCount: 2
Back
SplineSet
713 1458 m 1,0,-1
 848 1458 l 1,1,-1
 848 1339 l 1,2,-1
 713 1339 l 1,3,-1
 713 1458 l 1,0,-1
348 1458 m 1,4,-1
 483 1458 l 1,5,-1
 483 1339 l 1,6,-1
 348 1339 l 1,7,-1
 348 1458 l 1,4,-1
989 121 m 1,8,9
 876 -20 876 -20 620.5 -20 c 128,-1,10
 365 -20 365 -20 254 125 c 128,-1,11
 143 270 143 270 143 594 c 128,-1,12
 143 918 143 918 254 1063 c 128,-1,13
 365 1208 365 1208 621 1208 c 0,14,15
 918 1208 918 1208 1024 1014 c 1,16,-1
 522 594 l 1,17,-1
 426 594 l 1,18,-1
 944 1026 l 1,19,20
 854 1147 854 1147 621 1147 c 0,21,22
 519 1147 519 1147 449 1125.5 c 128,-1,23
 379 1104 379 1104 320.5 1045.5 c 128,-1,24
 262 987 262 987 233.5 875.5 c 128,-1,25
 205 764 205 764 205 594 c 128,-1,26
 205 424 205 424 233.5 312.5 c 128,-1,27
 262 201 262 201 320.5 142.5 c 128,-1,28
 379 84 379 84 448.5 62.5 c 128,-1,29
 518 41 518 41 621 41 c 0,30,31
 854 41 854 41 944 162 c 1,32,-1
 989 121 l 1,8,9
EndSplineSet
Fore
Refer: 105 168 S 1 0 0 1 256 0 2
Refer: 72 101 N 1 0 0 1 0 0 3
Validated: 1
EndChar

StartChar: igrave
Encoding: 236 236 160
Width: 450
GlyphClass: 2
Flags: HMW
LayerCount: 2
Back
SplineSet
72 1565 m 1,0,-1
 119 1606 l 1,1,-1
 358 1319 l 1,2,-1
 311 1280 l 1,3,-1
 72 1565 l 1,0,-1
195 1188 m 1,4,-1
 256 1188 l 1,5,-1
 256 0 l 1,6,-1
 195 0 l 1,7,-1
 195 1188 l 1,4,-1
EndSplineSet
Fore
Refer: 67 96 N 1 0 0 1 -19 0 2
Refer: 229 305 N 1 0 0 1 0 0 3
Validated: 1
EndChar

StartChar: iacute
Encoding: 237 237 161
Width: 450
GlyphClass: 2
Flags: HMW
LayerCount: 2
Back
SplineSet
379 1565 m 1,0,-1
 139 1280 l 1,1,-1
 92 1319 l 1,2,-1
 332 1606 l 1,3,-1
 379 1565 l 1,0,-1
195 1188 m 1,4,-1
 256 1188 l 1,5,-1
 256 0 l 1,6,-1
 195 0 l 1,7,-1
 195 1188 l 1,4,-1
EndSplineSet
Fore
Refer: 111 180 S 1 0 0 1 3.05176e-05 0 2
Refer: 229 305 N 1 0 0 1 0 0 3
Validated: 1
EndChar

StartChar: icircumflex
Encoding: 238 238 162
Width: 450
GlyphClass: 2
Flags: HMW
LayerCount: 2
Back
SplineSet
225 1606 m 1,0,-1
 465 1319 l 1,1,-1
 418 1280 l 1,2,-1
 225 1509 l 1,3,-1
 33 1280 l 1,4,-1
 -14 1319 l 1,5,-1
 225 1606 l 1,0,-1
195 1188 m 1,6,-1
 256 1188 l 1,7,-1
 256 0 l 1,8,-1
 195 0 l 1,9,-1
 195 1188 l 1,6,-1
EndSplineSet
Fore
Refer: 314 710 N 1 0 0 1 -107 0 2
Refer: 229 305 N 1 0 0 1 0 0 3
Validated: 1
EndChar

StartChar: idieresis
Encoding: 239 239 163
Width: 450
GlyphClass: 2
Flags: HMW
LayerCount: 2
Back
SplineSet
340 1458 m 1,0,-1
 475 1458 l 1,1,-1
 475 1339 l 1,2,-1
 340 1339 l 1,3,-1
 340 1458 l 1,0,-1
-25 1458 m 1,4,-1
 111 1458 l 1,5,-1
 111 1339 l 1,6,-1
 -25 1339 l 1,7,-1
 -25 1458 l 1,4,-1
195 1188 m 1,8,-1
 256 1188 l 1,9,-1
 256 0 l 1,10,-1
 195 0 l 1,11,-1
 195 1188 l 1,8,-1
EndSplineSet
Fore
Refer: 105 168 S 1 0 0 1 -116 0 2
Refer: 229 305 N 1 0 0 1 0 0 3
Validated: 1
EndChar

StartChar: eth
Encoding: 240 240 164
Width: 1193
GlyphClass: 2
Flags: MW
LayerCount: 2
Fore
SplineSet
596 -20 m 128,-1,1
 119 -20 119 -20 119 492 c 128,-1,2
 119 1004 119 1004 596 1004 c 0,3,4
 709 1004 709 1004 788 977 c 1,5,-1
 567 1239 l 1,6,-1
 434 1126 l 1,7,-1
 393 1174 l 1,8,-1
 528 1286 l 1,9,-1
 416 1421 l 1,10,-1
 463 1462 l 1,11,-1
 575 1327 l 1,12,-1
 705 1434 l 1,13,-1
 743 1386 l 1,14,-1
 616 1278 l 1,15,-1
 956 870 l 2,16,17
 1073 729 1073 729 1073 492 c 0,18,0
 1073 -20 1073 -20 596 -20 c 128,-1,1
596 942 m 128,-1,20
 180 942 180 942 180 491.5 c 128,-1,21
 180 41 180 41 596 41 c 128,-1,22
 1012 41 1012 41 1012 491.5 c 128,-1,19
 1012 942 1012 942 596 942 c 128,-1,20
EndSplineSet
Validated: 1
EndChar

StartChar: ntilde
Encoding: 241 241 165
Width: 1179
GlyphClass: 2
Flags: HMW
LayerCount: 2
Back
SplineSet
694 1274 m 0,0,1
 637 1274 637 1274 586 1323 c 128,-1,2
 535 1372 535 1372 494 1372 c 0,3,4
 461 1372 461 1372 436.5 1345.5 c 128,-1,5
 412 1319 412 1319 412 1274 c 1,6,-1
 350 1274 l 1,7,8
 350 1346 350 1346 394 1390 c 128,-1,9
 438 1434 438 1434 494 1434 c 0,10,11
 551 1434 551 1434 602 1384.5 c 128,-1,12
 653 1335 653 1335 694 1335 c 0,13,14
 727 1335 727 1335 751.5 1362 c 128,-1,15
 776 1389 776 1389 776 1434 c 1,16,-1
 838 1434 l 1,17,18
 838 1362 838 1362 793.5 1318 c 128,-1,19
 749 1274 749 1274 694 1274 c 0,0,1
195 0 m 1,20,-1
 195 1188 l 1,21,-1
 256 1188 l 1,22,-1
 924 113 l 1,23,-1
 924 1188 l 1,24,-1
 985 1188 l 1,25,-1
 985 0 l 1,26,-1
 924 0 l 1,27,-1
 256 1077 l 1,28,-1
 256 0 l 1,29,-1
 195 0 l 1,20,-1
EndSplineSet
Fore
Refer: 320 732 S 1 0 0 1 258 0 2
Refer: 81 110 N 1 0 0 1 0 0 3
Validated: 1
EndChar

StartChar: ograve
Encoding: 242 242 166
Width: 1241
GlyphClass: 2
Flags: MW
LayerCount: 2
Back
SplineSet
430 1565 m 1,0,-1
 477 1606 l 1,1,-1
 717 1319 l 1,2,-1
 670 1280 l 1,3,-1
 430 1565 l 1,0,-1
620.5 1147 m 128,-1,5
 518 1147 518 1147 448.5 1125.5 c 128,-1,6
 379 1104 379 1104 320.5 1045.5 c 128,-1,7
 262 987 262 987 233.5 875.5 c 128,-1,8
 205 764 205 764 205 594 c 128,-1,9
 205 424 205 424 233.5 312.5 c 128,-1,10
 262 201 262 201 320.5 142.5 c 128,-1,11
 379 84 379 84 448.5 62.5 c 128,-1,12
 518 41 518 41 620.5 41 c 128,-1,13
 723 41 723 41 792.5 62.5 c 128,-1,14
 862 84 862 84 920.5 142.5 c 128,-1,15
 979 201 979 201 1007.5 312.5 c 128,-1,16
 1036 424 1036 424 1036 594 c 128,-1,17
 1036 764 1036 764 1007.5 875.5 c 128,-1,18
 979 987 979 987 920.5 1045.5 c 128,-1,19
 862 1104 862 1104 792.5 1125.5 c 128,-1,4
 723 1147 723 1147 620.5 1147 c 128,-1,5
621 -20 m 128,-1,21
 365 -20 365 -20 254 125 c 128,-1,22
 143 270 143 270 143 594 c 128,-1,23
 143 918 143 918 254 1063 c 128,-1,24
 365 1208 365 1208 621 1208 c 128,-1,25
 877 1208 877 1208 987.5 1063 c 128,-1,26
 1098 918 1098 918 1098 594 c 128,-1,27
 1098 270 1098 270 987.5 125 c 128,-1,20
 877 -20 877 -20 621 -20 c 128,-1,21
EndSplineSet
Fore
Refer: 67 96 N 1 0 0 1 338 0 2
Refer: 82 111 N 1 0 0 1 0 0 3
Validated: 1
EndChar

StartChar: oacute
Encoding: 243 243 167
Width: 1241
GlyphClass: 2
Flags: MW
LayerCount: 2
Back
SplineSet
811 1565 m 1,0,-1
 571 1280 l 1,1,-1
 524 1319 l 1,2,-1
 764 1606 l 1,3,-1
 811 1565 l 1,0,-1
620.5 1147 m 128,-1,5
 518 1147 518 1147 448.5 1125.5 c 128,-1,6
 379 1104 379 1104 320.5 1045.5 c 128,-1,7
 262 987 262 987 233.5 875.5 c 128,-1,8
 205 764 205 764 205 594 c 128,-1,9
 205 424 205 424 233.5 312.5 c 128,-1,10
 262 201 262 201 320.5 142.5 c 128,-1,11
 379 84 379 84 448.5 62.5 c 128,-1,12
 518 41 518 41 620.5 41 c 128,-1,13
 723 41 723 41 792.5 62.5 c 128,-1,14
 862 84 862 84 920.5 142.5 c 128,-1,15
 979 201 979 201 1007.5 312.5 c 128,-1,16
 1036 424 1036 424 1036 594 c 128,-1,17
 1036 764 1036 764 1007.5 875.5 c 128,-1,18
 979 987 979 987 920.5 1045.5 c 128,-1,19
 862 1104 862 1104 792.5 1125.5 c 128,-1,4
 723 1147 723 1147 620.5 1147 c 128,-1,5
621 -20 m 128,-1,21
 365 -20 365 -20 254 125 c 128,-1,22
 143 270 143 270 143 594 c 128,-1,23
 143 918 143 918 254 1063 c 128,-1,24
 365 1208 365 1208 621 1208 c 128,-1,25
 877 1208 877 1208 987.5 1063 c 128,-1,26
 1098 918 1098 918 1098 594 c 128,-1,27
 1098 270 1098 270 987.5 125 c 128,-1,20
 877 -20 877 -20 621 -20 c 128,-1,21
EndSplineSet
Fore
Refer: 111 180 S 1 0 0 1 432 0 2
Refer: 82 111 N 1 0 0 1 0 0 3
Validated: 1
EndChar

StartChar: ocircumflex
Encoding: 244 244 168
Width: 1241
GlyphClass: 2
Flags: HMW
LayerCount: 2
Back
SplineSet
621 1606 m 1,0,-1
 860 1319 l 1,1,-1
 813 1280 l 1,2,-1
 621 1509 l 1,3,-1
 428 1280 l 1,4,-1
 381 1319 l 1,5,-1
 621 1606 l 1,0,-1
620.5 1147 m 128,-1,7
 518 1147 518 1147 448.5 1125.5 c 128,-1,8
 379 1104 379 1104 320.5 1045.5 c 128,-1,9
 262 987 262 987 233.5 875.5 c 128,-1,10
 205 764 205 764 205 594 c 128,-1,11
 205 424 205 424 233.5 312.5 c 128,-1,12
 262 201 262 201 320.5 142.5 c 128,-1,13
 379 84 379 84 448.5 62.5 c 128,-1,14
 518 41 518 41 620.5 41 c 128,-1,15
 723 41 723 41 792.5 62.5 c 128,-1,16
 862 84 862 84 920.5 142.5 c 128,-1,17
 979 201 979 201 1007.5 312.5 c 128,-1,18
 1036 424 1036 424 1036 594 c 128,-1,19
 1036 764 1036 764 1007.5 875.5 c 128,-1,20
 979 987 979 987 920.5 1045.5 c 128,-1,21
 862 1104 862 1104 792.5 1125.5 c 128,-1,6
 723 1147 723 1147 620.5 1147 c 128,-1,7
621 -20 m 128,-1,23
 365 -20 365 -20 254 125 c 128,-1,24
 143 270 143 270 143 594 c 128,-1,25
 143 918 143 918 254 1063 c 128,-1,26
 365 1208 365 1208 621 1208 c 128,-1,27
 877 1208 877 1208 987.5 1063 c 128,-1,28
 1098 918 1098 918 1098 594 c 128,-1,29
 1098 270 1098 270 987.5 125 c 128,-1,22
 877 -20 877 -20 621 -20 c 128,-1,23
EndSplineSet
Fore
Refer: 314 710 S 1 0 0 1 289 0 2
Refer: 82 111 N 1 0 0 1 0 0 3
Validated: 1
EndChar

StartChar: otilde
Encoding: 245 245 169
Width: 1241
GlyphClass: 2
Flags: HMW
LayerCount: 2
Back
SplineSet
725 1274 m 0,0,1
 668 1274 668 1274 616.5 1323 c 128,-1,2
 565 1372 565 1372 524 1372 c 0,3,4
 491 1372 491 1372 466.5 1345.5 c 128,-1,5
 442 1319 442 1319 442 1274 c 1,6,-1
 381 1274 l 1,7,8
 381 1346 381 1346 425 1390 c 128,-1,9
 469 1434 469 1434 524 1434 c 0,10,11
 581 1434 581 1434 632.5 1384.5 c 128,-1,12
 684 1335 684 1335 725 1335 c 0,13,14
 758 1335 758 1335 782.5 1362 c 128,-1,15
 807 1389 807 1389 807 1434 c 1,16,-1
 868 1434 l 1,17,18
 868 1362 868 1362 824 1318 c 128,-1,19
 780 1274 780 1274 725 1274 c 0,0,1
620.5 1147 m 128,-1,21
 518 1147 518 1147 448.5 1125.5 c 128,-1,22
 379 1104 379 1104 320.5 1045.5 c 128,-1,23
 262 987 262 987 233.5 875.5 c 128,-1,24
 205 764 205 764 205 594 c 128,-1,25
 205 424 205 424 233.5 312.5 c 128,-1,26
 262 201 262 201 320.5 142.5 c 128,-1,27
 379 84 379 84 448.5 62.5 c 128,-1,28
 518 41 518 41 620.5 41 c 128,-1,29
 723 41 723 41 792.5 62.5 c 128,-1,30
 862 84 862 84 920.5 142.5 c 128,-1,31
 979 201 979 201 1007.5 312.5 c 128,-1,32
 1036 424 1036 424 1036 594 c 128,-1,33
 1036 764 1036 764 1007.5 875.5 c 128,-1,34
 979 987 979 987 920.5 1045.5 c 128,-1,35
 862 1104 862 1104 792.5 1125.5 c 128,-1,20
 723 1147 723 1147 620.5 1147 c 128,-1,21
621 -20 m 128,-1,37
 365 -20 365 -20 254 125 c 128,-1,38
 143 270 143 270 143 594 c 128,-1,39
 143 918 143 918 254 1063 c 128,-1,40
 365 1208 365 1208 621 1208 c 128,-1,41
 877 1208 877 1208 987.5 1063 c 128,-1,42
 1098 918 1098 918 1098 594 c 128,-1,43
 1098 270 1098 270 987.5 125 c 128,-1,36
 877 -20 877 -20 621 -20 c 128,-1,37
EndSplineSet
Fore
Refer: 320 732 S 1 0 0 1 288 0 2
Refer: 82 111 N 1 0 0 1 0 0 3
Validated: 1
EndChar

StartChar: odieresis
Encoding: 246 246 170
Width: 1241
GlyphClass: 2
Flags: MW
LayerCount: 2
Back
SplineSet
735 1458 m 1,0,-1
 870 1458 l 1,1,-1
 870 1339 l 1,2,-1
 735 1339 l 1,3,-1
 735 1458 l 1,0,-1
371 1458 m 1,4,-1
 506 1458 l 1,5,-1
 506 1339 l 1,6,-1
 371 1339 l 1,7,-1
 371 1458 l 1,4,-1
620.5 1147 m 128,-1,9
 518 1147 518 1147 448.5 1125.5 c 128,-1,10
 379 1104 379 1104 320.5 1045.5 c 128,-1,11
 262 987 262 987 233.5 875.5 c 128,-1,12
 205 764 205 764 205 594 c 128,-1,13
 205 424 205 424 233.5 312.5 c 128,-1,14
 262 201 262 201 320.5 142.5 c 128,-1,15
 379 84 379 84 448.5 62.5 c 128,-1,16
 518 41 518 41 620.5 41 c 128,-1,17
 723 41 723 41 792.5 62.5 c 128,-1,18
 862 84 862 84 920.5 142.5 c 128,-1,19
 979 201 979 201 1007.5 312.5 c 128,-1,20
 1036 424 1036 424 1036 594 c 128,-1,21
 1036 764 1036 764 1007.5 875.5 c 128,-1,22
 979 987 979 987 920.5 1045.5 c 128,-1,23
 862 1104 862 1104 792.5 1125.5 c 128,-1,8
 723 1147 723 1147 620.5 1147 c 128,-1,9
621 -20 m 128,-1,25
 365 -20 365 -20 254 125 c 128,-1,26
 143 270 143 270 143 594 c 128,-1,27
 143 918 143 918 254 1063 c 128,-1,28
 365 1208 365 1208 621 1208 c 128,-1,29
 877 1208 877 1208 987.5 1063 c 128,-1,30
 1098 918 1098 918 1098 594 c 128,-1,31
 1098 270 1098 270 987.5 125 c 128,-1,24
 877 -20 877 -20 621 -20 c 128,-1,25
EndSplineSet
Fore
Refer: 105 168 S 1 0 0 1 279 0 2
Refer: 82 111 N 1 0 0 1 0 0 3
Validated: 1
EndChar

StartChar: divide
Encoding: 247 247 171
Width: 995
GlyphClass: 2
Flags: MW
LayerCount: 2
Fore
SplineSet
430 784 m 1,0,-1
 565 784 l 1,1,-1
 565 666 l 1,2,-1
 430 666 l 1,3,-1
 430 784 l 1,0,-1
178 481 m 1,4,-1
 178 543 l 1,5,-1
 817 543 l 1,6,-1
 817 481 l 1,7,-1
 178 481 l 1,4,-1
430 358 m 1,8,-1
 565 358 l 1,9,-1
 565 240 l 1,10,-1
 430 240 l 1,11,-1
 430 358 l 1,8,-1
EndSplineSet
Validated: 1
EndChar

StartChar: oslash
Encoding: 248 248 172
Width: 1241
GlyphClass: 2
Flags: MW
LayerCount: 2
Fore
SplineSet
621 1147 m 0,0,1
 519 1147 519 1147 449 1125.5 c 128,-1,2
 379 1104 379 1104 320.5 1045.5 c 128,-1,3
 262 987 262 987 233.5 875.5 c 128,-1,4
 205 764 205 764 205 594 c 0,5,6
 205 203 205 203 375 96 c 1,7,-1
 793 1126 l 1,8,9
 730 1147 730 1147 621 1147 c 0,0,1
365 -90 m 1,10,-1
 309 -68 l 1,11,-1
 352 39 l 1,12,13
 143 158 143 158 143 594 c 0,14,15
 143 918 143 918 254 1063 c 128,-1,16
 365 1208 365 1208 621 1208 c 0,17,18
 736 1208 736 1208 815 1182 c 1,19,-1
 866 1311 l 1,20,-1
 922 1288 l 1,21,-1
 870 1159 l 1,22,23
 989 1100 989 1100 1043.5 962.5 c 128,-1,24
 1098 825 1098 825 1098 594 c 0,25,26
 1098 270 1098 270 987.5 125 c 128,-1,27
 877 -20 877 -20 621 -20 c 0,28,29
 492 -20 492 -20 406 12 c 1,30,-1
 365 -90 l 1,10,-1
848 1104 m 1,31,-1
 428 70 l 1,32,33
 506 41 506 41 621 41 c 0,34,35
 723 41 723 41 792.5 62.5 c 128,-1,36
 862 84 862 84 920.5 142.5 c 128,-1,37
 979 201 979 201 1007.5 312.5 c 128,-1,38
 1036 424 1036 424 1036 594 c 0,39,40
 1036 1006 1036 1006 848 1104 c 1,31,-1
EndSplineSet
Validated: 1
EndChar

StartChar: ugrave
Encoding: 249 249 173
Width: 1200
GlyphClass: 2
Flags: MW
LayerCount: 2
Back
SplineSet
410 1565 m 1,0,-1
 457 1606 l 1,1,-1
 696 1319 l 1,2,-1
 649 1280 l 1,3,-1
 410 1565 l 1,0,-1
236 1188 m 1,4,-1
 236 594 l 2,5,6
 236 289 236 289 333 165 c 128,-1,7
 430 41 430 41 600 41 c 128,-1,8
 770 41 770 41 867.5 165 c 128,-1,9
 965 289 965 289 965 594 c 2,10,-1
 965 1188 l 1,11,-1
 1026 1188 l 1,12,-1
 1026 594 l 2,13,14
 1026 -20 1026 -20 600 -20 c 128,-1,15
 174 -20 174 -20 174 594 c 2,16,-1
 174 1188 l 1,17,-1
 236 1188 l 1,4,-1
EndSplineSet
Fore
Refer: 67 96 S 1 0 0 1 317 0 2
Refer: 88 117 N 1 0 0 1 0 0 3
Validated: 1
EndChar

StartChar: uacute
Encoding: 250 250 174
Width: 1200
GlyphClass: 2
Flags: MW
LayerCount: 2
Back
SplineSet
791 1565 m 1,0,-1
 551 1280 l 1,1,-1
 504 1319 l 1,2,-1
 743 1606 l 1,3,-1
 791 1565 l 1,0,-1
236 1188 m 1,4,-1
 236 594 l 2,5,6
 236 289 236 289 333 165 c 128,-1,7
 430 41 430 41 600 41 c 128,-1,8
 770 41 770 41 867.5 165 c 128,-1,9
 965 289 965 289 965 594 c 2,10,-1
 965 1188 l 1,11,-1
 1026 1188 l 1,12,-1
 1026 594 l 2,13,14
 1026 -20 1026 -20 600 -20 c 128,-1,15
 174 -20 174 -20 174 594 c 2,16,-1
 174 1188 l 1,17,-1
 236 1188 l 1,4,-1
EndSplineSet
Fore
Refer: 111 180 N 1 0 0 1 412 0 2
Refer: 88 117 N 1 0 0 1 0 0 3
Validated: 1
EndChar

StartChar: ucircumflex
Encoding: 251 251 175
Width: 1200
GlyphClass: 2
Flags: HMW
LayerCount: 2
Back
SplineSet
600 1606 m 1,0,-1
 840 1319 l 1,1,-1
 793 1280 l 1,2,-1
 600 1509 l 1,3,-1
 408 1280 l 1,4,-1
 360 1319 l 1,5,-1
 600 1606 l 1,0,-1
236 1188 m 1,6,-1
 236 594 l 2,7,8
 236 289 236 289 333 165 c 128,-1,9
 430 41 430 41 600 41 c 128,-1,10
 770 41 770 41 867.5 165 c 128,-1,11
 965 289 965 289 965 594 c 2,12,-1
 965 1188 l 1,13,-1
 1026 1188 l 1,14,-1
 1026 594 l 2,15,16
 1026 -20 1026 -20 600 -20 c 128,-1,17
 174 -20 174 -20 174 594 c 2,18,-1
 174 1188 l 1,19,-1
 236 1188 l 1,6,-1
EndSplineSet
Fore
Refer: 314 710 S 1 0 0 1 268.5 0 2
Refer: 88 117 N 1 0 0 1 0 0 3
Validated: 1
EndChar

StartChar: udieresis
Encoding: 252 252 176
Width: 1200
GlyphClass: 2
Flags: MW
LayerCount: 2
Back
SplineSet
715 1458 m 1,0,-1
 850 1458 l 1,1,-1
 850 1339 l 1,2,-1
 715 1339 l 1,3,-1
 715 1458 l 1,0,-1
350 1458 m 1,4,-1
 485 1458 l 1,5,-1
 485 1339 l 1,6,-1
 350 1339 l 1,7,-1
 350 1458 l 1,4,-1
236 1188 m 1,8,-1
 236 594 l 2,9,10
 236 289 236 289 333 165 c 128,-1,11
 430 41 430 41 600 41 c 128,-1,12
 770 41 770 41 867.5 165 c 128,-1,13
 965 289 965 289 965 594 c 2,14,-1
 965 1188 l 1,15,-1
 1026 1188 l 1,16,-1
 1026 594 l 2,17,18
 1026 -20 1026 -20 600 -20 c 128,-1,19
 174 -20 174 -20 174 594 c 2,20,-1
 174 1188 l 1,21,-1
 236 1188 l 1,8,-1
EndSplineSet
Fore
Refer: 105 168 S 1 0 0 1 258 0 2
Refer: 88 117 N 1 0 0 1 0 0 3
Validated: 1
EndChar

StartChar: yacute
Encoding: 253 253 177
Width: 1093
GlyphClass: 2
Flags: HMW
LayerCount: 2
Back
SplineSet
1059 1188 m 1,0,-1
 578 51 l 1,1,-1
 578 -410 l 1,2,-1
 516 -410 l 1,3,-1
 516 51 l 1,4,-1
 35 1188 l 1,5,-1
 100 1188 l 1,6,-1
 547 137 l 1,7,-1
 993 1188 l 1,8,-1
 1059 1188 l 1,0,-1
737 1565 m 1,9,-1
 498 1280 l 1,10,-1
 451 1319 l 1,11,-1
 690 1606 l 1,12,-1
 737 1565 l 1,9,-1
EndSplineSet
Fore
Refer: 346 -1 N 1 0 0 1 0 0 2
Refer: 111 180 N 1 0 0 1 359 0 2
Validated: 1
EndChar

StartChar: thorn
Encoding: 254 254 178
Width: 1107
GlyphClass: 2
Flags: HMW
LayerCount: 2
Fore
SplineSet
989 659 m 0,0,1
 989 448 989 448 836.5 282.5 c 128,-1,2
 684 117 684 117 444 51 c 2,3,-1
 256 0 l 1,4,-1
 256 -410 l 1,5,-1
 195 -410 l 1,6,-1
 195 1434 l 1,7,-1
 256 1434 l 1,8,-1
 256 1118 l 1,9,-1
 444 1180 l 2,10,11
 529 1208 529 1208 608 1208 c 0,12,13
 794 1208 794 1208 891.5 1063.5 c 128,-1,14
 989 919 989 919 989 659 c 0,0,1
256 1057 m 1,15,-1
 256 61 l 1,16,-1
 444 113 l 2,17,18
 643 166 643 166 785.5 318.5 c 128,-1,19
 928 471 928 471 928 659 c 0,20,21
 928 911 928 911 834.5 1029 c 128,-1,22
 741 1147 741 1147 584 1147 c 0,23,24
 531 1147 531 1147 444 1118 c 2,25,-1
 256 1057 l 1,15,-1
EndSplineSet
Validated: 1
EndChar

StartChar: ydieresis
Encoding: 255 255 179
Width: 1093
GlyphClass: 2
Flags: HMW
LayerCount: 2
Back
SplineSet
1059 1188 m 1,0,-1
 578 51 l 1,1,-1
 578 -410 l 1,2,-1
 516 -410 l 1,3,-1
 516 51 l 1,4,-1
 35 1188 l 1,5,-1
 100 1188 l 1,6,-1
 547 137 l 1,7,-1
 993 1188 l 1,8,-1
 1059 1188 l 1,0,-1
662 1458 m 1,9,-1
 797 1458 l 1,10,-1
 797 1339 l 1,11,-1
 662 1339 l 1,12,-1
 662 1458 l 1,9,-1
297 1458 m 1,13,-1
 432 1458 l 1,14,-1
 432 1339 l 1,15,-1
 297 1339 l 1,16,-1
 297 1458 l 1,13,-1
EndSplineSet
Fore
Refer: 346 -1 N 1 0 0 1 0 0 2
Refer: 105 168 N 1 0 0 1 205 0 2
Validated: 1
EndChar

StartChar: Amacron
Encoding: 256 256 180
Width: 1118
GlyphClass: 2
Flags: MW
LayerCount: 2
Back
SplineSet
240 61 m 1,0,-1
 993 61 l 1,1,-1
 559 1255 l 1,2,-1
 102 0 l 1,3,-1
 37 0 l 1,4,-1
 559 1436 l 1,5,-1
 1081 0 l 1,6,-1
 240 0 l 1,7,-1
 240 61 l 1,0,-1
334 1577 m 1,8,-1
 334 1638 l 1,9,-1
 784 1638 l 1,10,-1
 784 1577 l 1,11,-1
 334 1577 l 1,8,-1
EndSplineSet
Fore
Refer: 109 175 N 1 0 0 1 264 204 2
Refer: 36 65 N 1 0 0 1 0 0 3
Validated: 1
EndChar

StartChar: amacron
Encoding: 257 257 181
Width: 1101
GlyphClass: 2
Flags: MW
LayerCount: 2
Back
SplineSet
336 1372 m 1,0,-1
 336 1434 l 1,1,-1
 786 1434 l 1,2,-1
 786 1372 l 1,3,-1
 336 1372 l 1,0,-1
303 61 m 1,4,-1
 971 61 l 1,5,-1
 551 1051 l 1,6,-1
 104 0 l 1,7,-1
 39 0 l 1,8,-1
 551 1208 l 1,9,-1
 1063 0 l 1,10,-1
 303 0 l 1,11,-1
 303 61 l 1,4,-1
EndSplineSet
Fore
Refer: 109 175 S 1 0 0 1 266 0 2
Refer: 68 97 N 1 0 0 1 0 0 3
Validated: 1
EndChar

StartChar: Abreve
Encoding: 258 258 182
Width: 1118
GlyphClass: 2
Flags: HMW
LayerCount: 2
Back
SplineSet
764 1677 m 1,0,1
 764 1589 764 1589 702.5 1531 c 128,-1,2
 641 1473 641 1473 559 1473 c 0,3,4
 471 1473 471 1473 412.5 1534 c 128,-1,5
 354 1595 354 1595 354 1677 c 1,6,-1
 416 1677 l 1,7,8
 416 1616 416 1616 459 1575 c 128,-1,9
 502 1534 502 1534 559 1534 c 0,10,11
 620 1534 620 1534 661 1577 c 128,-1,12
 702 1620 702 1620 702 1677 c 1,13,-1
 764 1677 l 1,0,1
240 61 m 1,14,-1
 993 61 l 1,15,-1
 559 1255 l 1,16,-1
 102 0 l 1,17,-1
 37 0 l 1,18,-1
 559 1436 l 1,19,-1
 1081 0 l 1,20,-1
 240 0 l 1,21,-1
 240 61 l 1,14,-1
EndSplineSet
Fore
Refer: 316 728 N 1 0 0 1 252 304 2
Refer: 36 65 N 1 0 0 1 0 0 3
Validated: 1
EndChar

StartChar: abreve
Encoding: 259 259 183
Width: 1101
GlyphClass: 2
Flags: HMW
LayerCount: 2
Back
SplineSet
756 1473 m 1,0,1
 756 1385 756 1385 694.5 1326.5 c 128,-1,2
 633 1268 633 1268 551 1268 c 0,3,4
 463 1268 463 1268 404.5 1329.5 c 128,-1,5
 346 1391 346 1391 346 1473 c 1,6,-1
 408 1473 l 1,7,8
 408 1412 408 1412 451 1370.5 c 128,-1,9
 494 1329 494 1329 551 1329 c 0,10,11
 612 1329 612 1329 653 1372 c 128,-1,12
 694 1415 694 1415 694 1473 c 1,13,-1
 756 1473 l 1,0,1
303 61 m 1,14,-1
 971 61 l 1,15,-1
 551 1051 l 1,16,-1
 104 0 l 1,17,-1
 39 0 l 1,18,-1
 551 1208 l 1,19,-1
 1063 0 l 1,20,-1
 303 0 l 1,21,-1
 303 61 l 1,14,-1
EndSplineSet
Fore
Refer: 316 728 N 1 0 0 1 244 99 2
Refer: 68 97 N 1 0 0 1 0 0 3
Validated: 1
EndChar

StartChar: Aogonek
Encoding: 260 260 184
Width: 1118
GlyphClass: 2
Flags: MW
LayerCount: 2
Fore
SplineSet
240 61 m 1,0,-1
 993 61 l 1,1,-1
 559 1255 l 1,2,-1
 102 0 l 1,3,-1
 37 0 l 1,4,-1
 559 1436 l 1,5,-1
 1081 0 l 1,6,-1
 936 0 l 1,7,8
 852 -53 852 -53 852 -156 c 0,9,10
 852 -234 852 -234 905 -287 c 128,-1,11
 958 -340 958 -340 1036 -340 c 1,12,-1
 1036 -401 l 1,13,14
 934 -401 934 -401 862.5 -329.5 c 128,-1,15
 791 -258 791 -258 791 -156 c 0,16,17
 791 -68 791 -68 846 0 c 1,18,-1
 240 0 l 1,19,-1
 240 61 l 1,0,-1
EndSplineSet
Validated: 1
EndChar

StartChar: aogonek
Encoding: 261 261 185
Width: 1101
GlyphClass: 2
Flags: MW
LayerCount: 2
Fore
SplineSet
303 61 m 1,0,-1
 971 61 l 1,1,-1
 551 1051 l 1,2,-1
 104 0 l 1,3,-1
 39 0 l 1,4,-1
 551 1208 l 1,5,-1
 1063 0 l 1,6,-1
 913 0 l 1,7,8
 829 -53 829 -53 829 -156 c 0,9,10
 829 -234 829 -234 883.5 -287 c 128,-1,11
 938 -340 938 -340 1014 -340 c 1,12,-1
 1014 -401 l 1,13,14
 914 -401 914 -401 841 -329.5 c 128,-1,15
 768 -258 768 -258 768 -156 c 0,16,17
 768 -68 768 -68 823 0 c 1,18,-1
 303 0 l 1,19,-1
 303 61 l 1,0,-1
EndSplineSet
Validated: 1
EndChar

StartChar: Cacute
Encoding: 262 262 186
Width: 1202
GlyphClass: 2
Flags: MW
LayerCount: 2
Back
SplineSet
805 1761 m 1,0,-1
 565 1477 l 1,1,-1
 518 1516 l 1,2,-1
 758 1802 l 1,3,-1
 805 1761 l 1,0,-1
1092 262 m 1,4,5
 1037 127 1037 127 936.5 53.5 c 128,-1,6
 836 -20 836 -20 635 -20 c 0,7,8
 383 -20 383 -20 270.5 134.5 c 128,-1,9
 158 289 158 289 158 616 c 2,10,-1
 158 817 l 2,11,12
 158 1145 158 1145 270.5 1299.5 c 128,-1,13
 383 1454 383 1454 635 1454 c 0,14,15
 836 1454 836 1454 936 1380.5 c 128,-1,16
 1036 1307 1036 1307 1092 1171 c 1,17,-1
 1036 1145 l 1,18,19
 989 1264 989 1264 903 1328.5 c 128,-1,20
 817 1393 817 1393 635 1393 c 0,21,22
 535 1393 535 1393 463 1367 c 128,-1,23
 391 1341 391 1341 333.5 1280 c 128,-1,24
 276 1219 276 1219 247.5 1103 c 128,-1,25
 219 987 219 987 219 817 c 2,26,-1
 219 616 l 2,27,28
 219 446 219 446 247.5 330.5 c 128,-1,29
 276 215 276 215 333.5 153.5 c 128,-1,30
 391 92 391 92 463 66.5 c 128,-1,31
 535 41 535 41 635 41 c 0,32,33
 817 41 817 41 903 105.5 c 128,-1,34
 989 170 989 170 1036 289 c 1,35,-1
 1092 262 l 1,4,5
EndSplineSet
Fore
Refer: 111 180 S 1 0 0 1 426 197 2
Refer: 38 67 N 1 0 0 1 0 0 3
Validated: 1
EndChar

StartChar: cacute
Encoding: 263 263 187
Width: 1099
GlyphClass: 2
Flags: MW
LayerCount: 2
Back
SplineSet
799 1565 m 1,0,-1
 559 1280 l 1,1,-1
 512 1319 l 1,2,-1
 752 1606 l 1,3,-1
 799 1565 l 1,0,-1
143 594 m 128,-1,5
 143 918 143 918 254 1063 c 128,-1,6
 365 1208 365 1208 621 1208 c 128,-1,7
 877 1208 877 1208 989 1067 c 1,8,-1
 944 1026 l 1,9,10
 854 1147 854 1147 621 1147 c 0,11,12
 519 1147 519 1147 449 1125.5 c 128,-1,13
 379 1104 379 1104 320.5 1045.5 c 128,-1,14
 262 987 262 987 233.5 875.5 c 128,-1,15
 205 764 205 764 205 594 c 128,-1,16
 205 424 205 424 233.5 312.5 c 128,-1,17
 262 201 262 201 320.5 142.5 c 128,-1,18
 379 84 379 84 448.5 62.5 c 128,-1,19
 518 41 518 41 621 41 c 0,20,21
 854 41 854 41 944 162 c 1,22,-1
 989 121 l 1,23,24
 876 -20 876 -20 620.5 -20 c 128,-1,25
 365 -20 365 -20 254 125 c 128,-1,4
 143 270 143 270 143 594 c 128,-1,5
EndSplineSet
Fore
Refer: 111 180 S 1 0 0 1 420 0 2
Refer: 70 99 N 1 0 0 1 0 0 3
Validated: 1
EndChar

StartChar: Ccircumflex
Encoding: 264 264 188
Width: 1202
GlyphClass: 2
Flags: HMW
LayerCount: 2
Back
SplineSet
639 1769 m 1,0,-1
 879 1483 l 1,1,-1
 831 1444 l 1,2,-1
 639 1673 l 1,3,-1
 446 1444 l 1,4,-1
 399 1483 l 1,5,-1
 639 1769 l 1,0,-1
1092 262 m 1,6,7
 1037 127 1037 127 936.5 53.5 c 128,-1,8
 836 -20 836 -20 635 -20 c 0,9,10
 383 -20 383 -20 270.5 134.5 c 128,-1,11
 158 289 158 289 158 616 c 2,12,-1
 158 817 l 2,13,14
 158 1145 158 1145 270.5 1299.5 c 128,-1,15
 383 1454 383 1454 635 1454 c 0,16,17
 836 1454 836 1454 936 1380.5 c 128,-1,18
 1036 1307 1036 1307 1092 1171 c 1,19,-1
 1036 1145 l 1,20,21
 989 1264 989 1264 903 1328.5 c 128,-1,22
 817 1393 817 1393 635 1393 c 0,23,24
 535 1393 535 1393 463 1367 c 128,-1,25
 391 1341 391 1341 333.5 1280 c 128,-1,26
 276 1219 276 1219 247.5 1103 c 128,-1,27
 219 987 219 987 219 817 c 2,28,-1
 219 616 l 2,29,30
 219 446 219 446 247.5 330.5 c 128,-1,31
 276 215 276 215 333.5 153.5 c 128,-1,32
 391 92 391 92 463 66.5 c 128,-1,33
 535 41 535 41 635 41 c 0,34,35
 817 41 817 41 903 105.5 c 128,-1,36
 989 170 989 170 1036 289 c 1,37,-1
 1092 262 l 1,6,7
EndSplineSet
Fore
Refer: 314 710 N 1 0 0 1 307 164 2
Refer: 38 67 N 1 0 0 1 0 0 3
Validated: 1
EndChar

StartChar: ccircumflex
Encoding: 265 265 189
Width: 1099
GlyphClass: 2
Flags: HMW
LayerCount: 2
Back
SplineSet
598 1606 m 1,0,-1
 838 1319 l 1,1,-1
 791 1280 l 1,2,-1
 598 1509 l 1,3,-1
 406 1280 l 1,4,-1
 358 1319 l 1,5,-1
 598 1606 l 1,0,-1
143 594 m 128,-1,7
 143 918 143 918 254 1063 c 128,-1,8
 365 1208 365 1208 621 1208 c 128,-1,9
 877 1208 877 1208 989 1067 c 1,10,-1
 944 1026 l 1,11,12
 854 1147 854 1147 621 1147 c 0,13,14
 519 1147 519 1147 449 1125.5 c 128,-1,15
 379 1104 379 1104 320.5 1045.5 c 128,-1,16
 262 987 262 987 233.5 875.5 c 128,-1,17
 205 764 205 764 205 594 c 128,-1,18
 205 424 205 424 233.5 312.5 c 128,-1,19
 262 201 262 201 320.5 142.5 c 128,-1,20
 379 84 379 84 448.5 62.5 c 128,-1,21
 518 41 518 41 621 41 c 0,22,23
 854 41 854 41 944 162 c 1,24,-1
 989 121 l 1,25,26
 876 -20 876 -20 620.5 -20 c 128,-1,27
 365 -20 365 -20 254 125 c 128,-1,6
 143 270 143 270 143 594 c 128,-1,7
EndSplineSet
Fore
Refer: 314 710 N 1 0 0 1 266 0 2
Refer: 70 99 N 1 0 0 1 0 0 3
Validated: 1
EndChar

StartChar: Cdotaccent
Encoding: 266 266 190
Width: 1202
GlyphClass: 2
Flags: HMW
LayerCount: 2
Back
SplineSet
573 1663 m 1,0,-1
 709 1663 l 1,1,-1
 709 1544 l 1,2,-1
 573 1544 l 1,3,-1
 573 1663 l 1,0,-1
1092 262 m 1,4,5
 1037 127 1037 127 936.5 53.5 c 128,-1,6
 836 -20 836 -20 635 -20 c 0,7,8
 383 -20 383 -20 270.5 134.5 c 128,-1,9
 158 289 158 289 158 616 c 2,10,-1
 158 817 l 2,11,12
 158 1145 158 1145 270.5 1299.5 c 128,-1,13
 383 1454 383 1454 635 1454 c 0,14,15
 836 1454 836 1454 936 1380.5 c 128,-1,16
 1036 1307 1036 1307 1092 1171 c 1,17,-1
 1036 1145 l 1,18,19
 989 1264 989 1264 903 1328.5 c 128,-1,20
 817 1393 817 1393 635 1393 c 0,21,22
 535 1393 535 1393 463 1367 c 128,-1,23
 391 1341 391 1341 333.5 1280 c 128,-1,24
 276 1219 276 1219 247.5 1103 c 128,-1,25
 219 987 219 987 219 817 c 2,26,-1
 219 616 l 2,27,28
 219 446 219 446 247.5 330.5 c 128,-1,29
 276 215 276 215 333.5 153.5 c 128,-1,30
 391 92 391 92 463 66.5 c 128,-1,31
 535 41 535 41 635 41 c 0,32,33
 817 41 817 41 903 105.5 c 128,-1,34
 989 170 989 170 1036 289 c 1,35,-1
 1092 262 l 1,4,5
EndSplineSet
Fore
Refer: 317 729 N 1 0 0 1 481 205 2
Refer: 38 67 N 1 0 0 1 0 0 3
Validated: 1
EndChar

StartChar: cdotaccent
Encoding: 267 267 191
Width: 1099
GlyphClass: 2
Flags: HMW
LayerCount: 2
Back
SplineSet
551 1458 m 1,0,-1
 686 1458 l 1,1,-1
 686 1339 l 1,2,-1
 551 1339 l 1,3,-1
 551 1458 l 1,0,-1
143 594 m 128,-1,5
 143 918 143 918 254 1063 c 128,-1,6
 365 1208 365 1208 621 1208 c 128,-1,7
 877 1208 877 1208 989 1067 c 1,8,-1
 944 1026 l 1,9,10
 854 1147 854 1147 621 1147 c 0,11,12
 519 1147 519 1147 449 1125.5 c 128,-1,13
 379 1104 379 1104 320.5 1045.5 c 128,-1,14
 262 987 262 987 233.5 875.5 c 128,-1,15
 205 764 205 764 205 594 c 128,-1,16
 205 424 205 424 233.5 312.5 c 128,-1,17
 262 201 262 201 320.5 142.5 c 128,-1,18
 379 84 379 84 448.5 62.5 c 128,-1,19
 518 41 518 41 621 41 c 0,20,21
 854 41 854 41 944 162 c 1,22,-1
 989 121 l 1,23,24
 876 -20 876 -20 620.5 -20 c 128,-1,25
 365 -20 365 -20 254 125 c 128,-1,4
 143 270 143 270 143 594 c 128,-1,5
EndSplineSet
Fore
Refer: 317 729 N 1 0 0 1 459 0 2
Refer: 70 99 N 1 0 0 1 0 0 3
Validated: 1
EndChar

StartChar: Ccaron
Encoding: 268 268 192
Width: 1202
GlyphClass: 2
Flags: HMW
LayerCount: 2
Back
SplineSet
649 1456 m 1,0,-1
 410 1743 l 1,1,-1
 457 1782 l 1,2,-1
 649 1552 l 1,3,-1
 842 1782 l 1,4,-1
 889 1743 l 1,5,-1
 649 1456 l 1,0,-1
1092 262 m 1,6,7
 1037 127 1037 127 936.5 53.5 c 128,-1,8
 836 -20 836 -20 635 -20 c 0,9,10
 383 -20 383 -20 270.5 134.5 c 128,-1,11
 158 289 158 289 158 616 c 2,12,-1
 158 817 l 2,13,14
 158 1145 158 1145 270.5 1299.5 c 128,-1,15
 383 1454 383 1454 635 1454 c 0,16,17
 836 1454 836 1454 936 1380.5 c 128,-1,18
 1036 1307 1036 1307 1092 1171 c 1,19,-1
 1036 1145 l 1,20,21
 989 1264 989 1264 903 1328.5 c 128,-1,22
 817 1393 817 1393 635 1393 c 0,23,24
 535 1393 535 1393 463 1367 c 128,-1,25
 391 1341 391 1341 333.5 1280 c 128,-1,26
 276 1219 276 1219 247.5 1103 c 128,-1,27
 219 987 219 987 219 817 c 2,28,-1
 219 616 l 2,29,30
 219 446 219 446 247.5 330.5 c 128,-1,31
 276 215 276 215 333.5 153.5 c 128,-1,32
 391 92 391 92 463 66.5 c 128,-1,33
 535 41 535 41 635 41 c 0,34,35
 817 41 817 41 903 105.5 c 128,-1,36
 989 170 989 170 1036 289 c 1,37,-1
 1092 262 l 1,6,7
EndSplineSet
Fore
Refer: 315 711 N 1 0 0 1 317 176 2
Refer: 38 67 N 1 0 0 1 0 0 3
Validated: 1
EndChar

StartChar: ccaron
Encoding: 269 269 193
Width: 1099
GlyphClass: 2
Flags: HMW
LayerCount: 2
Back
SplineSet
618 1231 m 1,0,-1
 379 1518 l 1,1,-1
 426 1556 l 1,2,-1
 618 1327 l 1,3,-1
 811 1556 l 1,4,-1
 858 1518 l 1,5,-1
 618 1231 l 1,0,-1
143 594 m 128,-1,7
 143 918 143 918 254 1063 c 128,-1,8
 365 1208 365 1208 621 1208 c 128,-1,9
 877 1208 877 1208 989 1067 c 1,10,-1
 944 1026 l 1,11,12
 854 1147 854 1147 621 1147 c 0,13,14
 519 1147 519 1147 449 1125.5 c 128,-1,15
 379 1104 379 1104 320.5 1045.5 c 128,-1,16
 262 987 262 987 233.5 875.5 c 128,-1,17
 205 764 205 764 205 594 c 128,-1,18
 205 424 205 424 233.5 312.5 c 128,-1,19
 262 201 262 201 320.5 142.5 c 128,-1,20
 379 84 379 84 448.5 62.5 c 128,-1,21
 518 41 518 41 621 41 c 0,22,23
 854 41 854 41 944 162 c 1,24,-1
 989 121 l 1,25,26
 876 -20 876 -20 620.5 -20 c 128,-1,27
 365 -20 365 -20 254 125 c 128,-1,6
 143 270 143 270 143 594 c 128,-1,7
EndSplineSet
Fore
Refer: 315 711 S 1 0 0 1 286 -49 2
Refer: 70 99 N 1 0 0 1 0 0 3
Validated: 1
EndChar

StartChar: Dcaron
Encoding: 270 270 194
Width: 1214
GlyphClass: 2
Flags: HMW
LayerCount: 2
Back
SplineSet
522 1456 m 1,0,-1
 283 1743 l 1,1,-1
 330 1782 l 1,2,-1
 522 1552 l 1,3,-1
 715 1782 l 1,4,-1
 762 1743 l 1,5,-1
 522 1456 l 1,0,-1
399 0 m 2,6,-1
 203 0 l 1,7,-1
 203 1434 l 1,8,-1
 399 1434 l 2,9,10
 694 1434 694 1434 899 1216.5 c 128,-1,11
 1104 999 1104 999 1104 716.5 c 128,-1,12
 1104 434 1104 434 899 217 c 128,-1,13
 694 0 694 0 399 0 c 2,6,-1
399 61 m 2,14,15
 667 61 667 61 854.5 259 c 128,-1,16
 1042 457 1042 457 1042 717 c 128,-1,17
 1042 977 1042 977 855 1174.5 c 128,-1,18
 668 1372 668 1372 399 1372 c 2,19,-1
 264 1372 l 1,20,-1
 264 61 l 1,21,-1
 399 61 l 2,14,15
EndSplineSet
Fore
Refer: 315 711 N 1 0 0 1 190 176 2
Refer: 39 68 N 1 0 0 1 0 0 3
Validated: 1
EndChar

StartChar: dcaron
Encoding: 271 271 195
Width: 1132
GlyphClass: 2
Flags: HMW
LayerCount: 2
Back
SplineSet
502 1231 m 1,0,-1
 262 1518 l 1,1,-1
 309 1556 l 1,2,-1
 502 1327 l 1,3,-1
 694 1556 l 1,4,-1
 741 1518 l 1,5,-1
 502 1231 l 1,0,-1
350 0 m 2,6,-1
 195 0 l 1,7,-1
 195 1188 l 1,8,-1
 350 1188 l 2,9,10
 653 1188 653 1188 833.5 1028 c 128,-1,11
 1014 868 1014 868 1014 593.5 c 128,-1,12
 1014 319 1014 319 833.5 159.5 c 128,-1,13
 653 0 653 0 350 0 c 2,6,-1
350 61 m 2,14,15
 626 61 626 61 789 202.5 c 128,-1,16
 952 344 952 344 952 594 c 128,-1,17
 952 844 952 844 789.5 985 c 128,-1,18
 627 1126 627 1126 350 1126 c 2,19,-1
 256 1126 l 1,20,-1
 256 61 l 1,21,-1
 350 61 l 2,14,15
EndSplineSet
Fore
Refer: 315 711 N 1 0 0 1 170 -49 2
Refer: 71 100 N 1 0 0 1 0 0 2
Validated: 1
EndChar

StartChar: Dcroat
Encoding: 272 272 196
Width: 1214
GlyphClass: 2
Flags: MW
LayerCount: 2
Fore
SplineSet
399 61 m 2,0,1
 667 61 667 61 854.5 259 c 128,-1,2
 1042 457 1042 457 1042 717 c 128,-1,3
 1042 977 1042 977 855 1174.5 c 128,-1,4
 668 1372 668 1372 399 1372 c 2,5,-1
 264 1372 l 1,6,-1
 264 748 l 1,7,-1
 477 748 l 1,8,-1
 477 686 l 1,9,-1
 264 686 l 1,10,-1
 264 61 l 1,11,-1
 399 61 l 2,0,1
399 0 m 2,12,-1
 203 0 l 1,13,-1
 203 686 l 1,14,-1
 72 686 l 1,15,-1
 72 748 l 1,16,-1
 203 748 l 1,17,-1
 203 1434 l 1,18,-1
 399 1434 l 2,19,20
 694 1434 694 1434 899 1216.5 c 128,-1,21
 1104 999 1104 999 1104 716.5 c 128,-1,22
 1104 434 1104 434 899 217 c 128,-1,23
 694 0 694 0 399 0 c 2,12,-1
EndSplineSet
Validated: 1
EndChar

StartChar: dcroat
Encoding: 273 273 197
Width: 1177
GlyphClass: 2
Flags: MW
LayerCount: 2
Fore
SplineSet
74 582 m 1,0,-1
 74 643 l 1,1,-1
 240 643 l 1,2,-1
 240 1188 l 1,3,-1
 395 1188 l 2,4,5
 698 1188 698 1188 878.5 1028 c 128,-1,6
 1059 868 1059 868 1059 593.5 c 128,-1,7
 1059 319 1059 319 878.5 159.5 c 128,-1,8
 698 0 698 0 395 0 c 2,9,-1
 240 0 l 1,10,-1
 240 582 l 1,11,-1
 74 582 l 1,0,-1
395 61 m 2,12,13
 671 61 671 61 834 202.5 c 128,-1,14
 997 344 997 344 997 594 c 128,-1,15
 997 844 997 844 834.5 985 c 128,-1,16
 672 1126 672 1126 395 1126 c 2,17,-1
 301 1126 l 1,18,-1
 301 643 l 1,19,-1
 479 643 l 1,20,-1
 479 582 l 1,21,-1
 301 582 l 1,22,-1
 301 61 l 1,23,-1
 395 61 l 2,12,13
EndSplineSet
Validated: 1
EndChar

StartChar: Emacron
Encoding: 274 274 198
Width: 1179
GlyphClass: 2
Flags: MW
LayerCount: 2
Back
SplineSet
395 1577 m 1,0,-1
 395 1638 l 1,1,-1
 846 1638 l 1,2,-1
 846 1577 l 1,3,-1
 395 1577 l 1,0,-1
938 750 m 1,4,-1
 330 750 l 1,5,-1
 956 1372 l 1,6,-1
 264 1372 l 1,7,-1
 264 61 l 1,8,-1
 1059 61 l 1,9,-1
 1059 0 l 1,10,-1
 203 0 l 1,11,-1
 203 1434 l 1,12,-1
 1106 1434 l 1,13,-1
 479 811 l 1,14,-1
 938 811 l 1,15,-1
 938 750 l 1,4,-1
EndSplineSet
Fore
Refer: 109 175 S 1 0 0 1 325 204 2
Refer: 40 69 N 1 0 0 1 0 0 3
Validated: 1
EndChar

StartChar: emacron
Encoding: 275 275 199
Width: 1122
GlyphClass: 2
Flags: MW
LayerCount: 2
Back
SplineSet
369 1372 m 1,0,-1
 369 1434 l 1,1,-1
 819 1434 l 1,2,-1
 819 1372 l 1,3,-1
 369 1372 l 1,0,-1
989 121 m 1,4,5
 876 -20 876 -20 620.5 -20 c 128,-1,6
 365 -20 365 -20 254 125 c 128,-1,7
 143 270 143 270 143 594 c 128,-1,8
 143 918 143 918 254 1063 c 128,-1,9
 365 1208 365 1208 621 1208 c 0,10,11
 918 1208 918 1208 1024 1014 c 1,12,-1
 522 594 l 1,13,-1
 426 594 l 1,14,-1
 944 1026 l 1,15,16
 854 1147 854 1147 621 1147 c 0,17,18
 519 1147 519 1147 449 1125.5 c 128,-1,19
 379 1104 379 1104 320.5 1045.5 c 128,-1,20
 262 987 262 987 233.5 875.5 c 128,-1,21
 205 764 205 764 205 594 c 128,-1,22
 205 424 205 424 233.5 312.5 c 128,-1,23
 262 201 262 201 320.5 142.5 c 128,-1,24
 379 84 379 84 448.5 62.5 c 128,-1,25
 518 41 518 41 621 41 c 0,26,27
 854 41 854 41 944 162 c 1,28,-1
 989 121 l 1,4,5
EndSplineSet
Fore
Refer: 109 175 S 1 0 0 1 299 0 2
Refer: 72 101 N 1 0 0 1 0 0 3
Validated: 1
EndChar

StartChar: Ebreve
Encoding: 276 276 200
Width: 1179
GlyphClass: 2
Flags: HMW
LayerCount: 2
Back
SplineSet
823 1677 m 1,0,1
 823 1589 823 1589 761.5 1531 c 128,-1,2
 700 1473 700 1473 618 1473 c 0,3,4
 530 1473 530 1473 472 1534 c 128,-1,5
 414 1595 414 1595 414 1677 c 1,6,-1
 475 1677 l 1,7,8
 475 1616 475 1616 518 1575 c 128,-1,9
 561 1534 561 1534 618 1534 c 0,10,11
 679 1534 679 1534 720.5 1577 c 128,-1,12
 762 1620 762 1620 762 1677 c 1,13,-1
 823 1677 l 1,0,1
938 750 m 1,14,-1
 330 750 l 1,15,-1
 956 1372 l 1,16,-1
 264 1372 l 1,17,-1
 264 61 l 1,18,-1
 1059 61 l 1,19,-1
 1059 0 l 1,20,-1
 203 0 l 1,21,-1
 203 1434 l 1,22,-1
 1106 1434 l 1,23,-1
 479 811 l 1,24,-1
 938 811 l 1,25,-1
 938 750 l 1,14,-1
EndSplineSet
Fore
Refer: 316 728 N 1 0 0 1 312 303 2
Refer: 40 69 N 1 0 0 1 0 0 3
Validated: 1
EndChar

StartChar: ebreve
Encoding: 277 277 201
Width: 1122
GlyphClass: 2
Flags: HMW
LayerCount: 2
Back
SplineSet
799 1473 m 1,0,1
 799 1385 799 1385 737.5 1326.5 c 128,-1,2
 676 1268 676 1268 594 1268 c 0,3,4
 506 1268 506 1268 447.5 1329.5 c 128,-1,5
 389 1391 389 1391 389 1473 c 1,6,-1
 451 1473 l 1,7,8
 451 1412 451 1412 494 1370.5 c 128,-1,9
 537 1329 537 1329 594 1329 c 0,10,11
 655 1329 655 1329 696 1372 c 128,-1,12
 737 1415 737 1415 737 1473 c 1,13,-1
 799 1473 l 1,0,1
989 121 m 1,14,15
 876 -20 876 -20 620.5 -20 c 128,-1,16
 365 -20 365 -20 254 125 c 128,-1,17
 143 270 143 270 143 594 c 128,-1,18
 143 918 143 918 254 1063 c 128,-1,19
 365 1208 365 1208 621 1208 c 0,20,21
 918 1208 918 1208 1024 1014 c 1,22,-1
 522 594 l 1,23,-1
 426 594 l 1,24,-1
 944 1026 l 1,25,26
 854 1147 854 1147 621 1147 c 0,27,28
 519 1147 519 1147 449 1125.5 c 128,-1,29
 379 1104 379 1104 320.5 1045.5 c 128,-1,30
 262 987 262 987 233.5 875.5 c 128,-1,31
 205 764 205 764 205 594 c 128,-1,32
 205 424 205 424 233.5 312.5 c 128,-1,33
 262 201 262 201 320.5 142.5 c 128,-1,34
 379 84 379 84 448.5 62.5 c 128,-1,35
 518 41 518 41 621 41 c 0,36,37
 854 41 854 41 944 162 c 1,38,-1
 989 121 l 1,14,15
EndSplineSet
Fore
Refer: 316 728 N 1 0 0 1 287 99 2
Refer: 72 101 N 1 0 0 1 0 0 3
Validated: 1
EndChar

StartChar: Edotaccent
Encoding: 278 278 202
Width: 1179
GlyphClass: 2
Flags: HMW
LayerCount: 2
Back
SplineSet
549 1663 m 1,0,-1
 684 1663 l 1,1,-1
 684 1544 l 1,2,-1
 549 1544 l 1,3,-1
 549 1663 l 1,0,-1
938 750 m 1,4,-1
 330 750 l 1,5,-1
 956 1372 l 1,6,-1
 264 1372 l 1,7,-1
 264 61 l 1,8,-1
 1059 61 l 1,9,-1
 1059 0 l 1,10,-1
 203 0 l 1,11,-1
 203 1434 l 1,12,-1
 1106 1434 l 1,13,-1
 479 811 l 1,14,-1
 938 811 l 1,15,-1
 938 750 l 1,4,-1
EndSplineSet
Fore
Refer: 317 729 S 1 0 0 1 457 205 2
Refer: 40 69 N 1 0 0 1 0 0 3
Validated: 1
EndChar

StartChar: edotaccent
Encoding: 279 279 203
Width: 1122
GlyphClass: 2
Flags: HMW
LayerCount: 2
Back
SplineSet
551 1458 m 1,0,-1
 686 1458 l 1,1,-1
 686 1339 l 1,2,-1
 551 1339 l 1,3,-1
 551 1458 l 1,0,-1
989 121 m 1,4,5
 876 -20 876 -20 620.5 -20 c 128,-1,6
 365 -20 365 -20 254 125 c 128,-1,7
 143 270 143 270 143 594 c 128,-1,8
 143 918 143 918 254 1063 c 128,-1,9
 365 1208 365 1208 621 1208 c 0,10,11
 918 1208 918 1208 1024 1014 c 1,12,-1
 522 594 l 1,13,-1
 426 594 l 1,14,-1
 944 1026 l 1,15,16
 854 1147 854 1147 621 1147 c 0,17,18
 519 1147 519 1147 449 1125.5 c 128,-1,19
 379 1104 379 1104 320.5 1045.5 c 128,-1,20
 262 987 262 987 233.5 875.5 c 128,-1,21
 205 764 205 764 205 594 c 128,-1,22
 205 424 205 424 233.5 312.5 c 128,-1,23
 262 201 262 201 320.5 142.5 c 128,-1,24
 379 84 379 84 448.5 62.5 c 128,-1,25
 518 41 518 41 621 41 c 0,26,27
 854 41 854 41 944 162 c 1,28,-1
 989 121 l 1,4,5
EndSplineSet
Fore
Refer: 317 729 S 1 0 0 1 459 0 2
Refer: 72 101 N 1 0 0 1 0 0 3
Validated: 1
EndChar

StartChar: Eogonek
Encoding: 280 280 204
Width: 1179
GlyphClass: 2
Flags: MW
LayerCount: 2
Fore
SplineSet
938 750 m 1,0,-1
 330 750 l 1,1,-1
 956 1372 l 1,2,-1
 264 1372 l 1,3,-1
 264 61 l 1,4,-1
 1059 61 l 1,5,-1
 1059 0 l 1,6,-1
 1010 0 l 1,7,8
 926 -53 926 -53 926 -156 c 0,9,10
 926 -234 926 -234 979 -287 c 128,-1,11
 1032 -340 1032 -340 1110 -340 c 1,12,-1
 1110 -401 l 1,13,14
 1008 -401 1008 -401 936 -329.5 c 128,-1,15
 864 -258 864 -258 864 -156 c 0,16,17
 864 -68 864 -68 920 0 c 1,18,-1
 203 0 l 1,19,-1
 203 1434 l 1,20,-1
 1106 1434 l 1,21,-1
 479 811 l 1,22,-1
 938 811 l 1,23,-1
 938 750 l 1,0,-1
EndSplineSet
Validated: 1
EndChar

StartChar: eogonek
Encoding: 281 281 205
Width: 1122
GlyphClass: 2
Flags: MW
LayerCount: 2
Fore
SplineSet
696 -18 m 1,0,1
 671 -20 671 -20 621 -20 c 0,2,3
 365 -20 365 -20 254 125 c 128,-1,4
 143 270 143 270 143 594 c 128,-1,5
 143 918 143 918 254 1063 c 128,-1,6
 365 1208 365 1208 621 1208 c 0,7,8
 918 1208 918 1208 1024 1014 c 1,9,-1
 522 594 l 1,10,-1
 426 594 l 1,11,-1
 944 1026 l 1,12,13
 854 1147 854 1147 621 1147 c 0,14,15
 519 1147 519 1147 449 1125.5 c 128,-1,16
 379 1104 379 1104 320.5 1045.5 c 128,-1,17
 262 987 262 987 233.5 875.5 c 128,-1,18
 205 764 205 764 205 594 c 128,-1,19
 205 424 205 424 233.5 312.5 c 128,-1,20
 262 201 262 201 320.5 142.5 c 128,-1,21
 379 84 379 84 448.5 62.5 c 128,-1,22
 518 41 518 41 621 41 c 0,23,24
 854 41 854 41 944 162 c 1,25,-1
 989 121 l 1,26,27
 921 35 921 35 799 0 c 1,28,29
 715 -53 715 -53 715 -156 c 0,30,31
 715 -234 715 -234 769 -287 c 128,-1,32
 823 -340 823 -340 899 -340 c 1,33,-1
 899 -401 l 1,34,35
 799 -401 799 -401 726 -329.5 c 128,-1,36
 653 -258 653 -258 653 -156 c 0,37,38
 653 -81 653 -81 696 -18 c 1,0,1
EndSplineSet
Validated: 1
EndChar

StartChar: Ecaron
Encoding: 282 282 206
Width: 1179
GlyphClass: 2
Flags: HMW
LayerCount: 2
Back
SplineSet
616 1456 m 1,0,-1
 377 1743 l 1,1,-1
 424 1782 l 1,2,-1
 616 1552 l 1,3,-1
 809 1782 l 1,4,-1
 856 1743 l 1,5,-1
 616 1456 l 1,0,-1
938 750 m 1,6,-1
 330 750 l 1,7,-1
 956 1372 l 1,8,-1
 264 1372 l 1,9,-1
 264 61 l 1,10,-1
 1059 61 l 1,11,-1
 1059 0 l 1,12,-1
 203 0 l 1,13,-1
 203 1434 l 1,14,-1
 1106 1434 l 1,15,-1
 479 811 l 1,16,-1
 938 811 l 1,17,-1
 938 750 l 1,6,-1
EndSplineSet
Fore
Refer: 315 711 S 1 0 0 1 284 176 2
Refer: 40 69 N 1 0 0 1 0 0 3
Validated: 1
EndChar

StartChar: ecaron
Encoding: 283 283 207
Width: 1122
GlyphClass: 2
Flags: HMW
LayerCount: 2
Back
SplineSet
618 1231 m 1,0,-1
 379 1518 l 1,1,-1
 426 1556 l 1,2,-1
 618 1327 l 1,3,-1
 811 1556 l 1,4,-1
 858 1518 l 1,5,-1
 618 1231 l 1,0,-1
989 121 m 1,6,7
 876 -20 876 -20 620.5 -20 c 128,-1,8
 365 -20 365 -20 254 125 c 128,-1,9
 143 270 143 270 143 594 c 128,-1,10
 143 918 143 918 254 1063 c 128,-1,11
 365 1208 365 1208 621 1208 c 0,12,13
 918 1208 918 1208 1024 1014 c 1,14,-1
 522 594 l 1,15,-1
 426 594 l 1,16,-1
 944 1026 l 1,17,18
 854 1147 854 1147 621 1147 c 0,19,20
 519 1147 519 1147 449 1125.5 c 128,-1,21
 379 1104 379 1104 320.5 1045.5 c 128,-1,22
 262 987 262 987 233.5 875.5 c 128,-1,23
 205 764 205 764 205 594 c 128,-1,24
 205 424 205 424 233.5 312.5 c 128,-1,25
 262 201 262 201 320.5 142.5 c 128,-1,26
 379 84 379 84 448.5 62.5 c 128,-1,27
 518 41 518 41 621 41 c 0,28,29
 854 41 854 41 944 162 c 1,30,-1
 989 121 l 1,6,7
EndSplineSet
Fore
Refer: 315 711 N 1 0 0 1 286 -49 2
Refer: 72 101 N 1 0 0 1 0 0 3
Validated: 1
EndChar

StartChar: Gcircumflex
Encoding: 284 284 208
Width: 1259
GlyphClass: 2
Flags: HMW
LayerCount: 2
Back
SplineSet
639 1769 m 1,0,-1
 879 1483 l 1,1,-1
 831 1444 l 1,2,-1
 639 1673 l 1,3,-1
 446 1444 l 1,4,-1
 399 1483 l 1,5,-1
 639 1769 l 1,0,-1
1036 1145 m 1,6,7
 989 1264 989 1264 903 1328.5 c 128,-1,8
 817 1393 817 1393 635 1393 c 0,9,10
 535 1393 535 1393 463 1367 c 128,-1,11
 391 1341 391 1341 333.5 1280 c 128,-1,12
 276 1219 276 1219 247.5 1103 c 128,-1,13
 219 987 219 987 219 817 c 2,14,-1
 219 616 l 2,15,16
 219 446 219 446 247.5 330.5 c 128,-1,17
 276 215 276 215 333.5 153.5 c 128,-1,18
 391 92 391 92 463 66.5 c 128,-1,19
 535 41 535 41 635 41 c 0,20,21
 819 41 819 41 927.5 120 c 128,-1,22
 1036 199 1036 199 1036 289 c 2,23,-1
 1036 635 l 1,24,-1
 784 635 l 1,25,-1
 784 696 l 1,26,-1
 1110 696 l 1,27,-1
 1110 309 l 2,28,29
 1110 172 1110 172 986 76 c 128,-1,30
 862 -20 862 -20 635 -20 c 0,31,32
 383 -20 383 -20 270.5 134.5 c 128,-1,33
 158 289 158 289 158 616 c 2,34,-1
 158 817 l 2,35,36
 158 1145 158 1145 270.5 1299.5 c 128,-1,37
 383 1454 383 1454 635 1454 c 0,38,39
 838 1454 838 1454 938 1379.5 c 128,-1,40
 1038 1305 1038 1305 1094 1167 c 1,41,-1
 1036 1145 l 1,6,7
EndSplineSet
Fore
Refer: 314 710 S 1 0 0 1 307 164 2
Refer: 42 71 N 1 0 0 1 0 0 3
Validated: 1
EndChar

StartChar: gcircumflex
Encoding: 285 285 209
Width: 1167
GlyphClass: 2
Flags: HMW
LayerCount: 2
Back
SplineSet
598 1606 m 1,0,-1
 838 1319 l 1,1,-1
 791 1280 l 1,2,-1
 598 1509 l 1,3,-1
 406 1280 l 1,4,-1
 358 1319 l 1,5,-1
 598 1606 l 1,0,-1
672 799 m 1,6,-1
 944 1026 l 1,7,8
 854 1147 854 1147 621 1147 c 0,9,10
 519 1147 519 1147 449 1125.5 c 128,-1,11
 379 1104 379 1104 320.5 1045.5 c 128,-1,12
 262 987 262 987 233.5 875.5 c 128,-1,13
 205 764 205 764 205 594 c 128,-1,14
 205 424 205 424 233.5 312.5 c 128,-1,15
 262 201 262 201 320.5 142.5 c 128,-1,16
 379 84 379 84 448.5 62.5 c 128,-1,17
 518 41 518 41 621 41 c 0,18,19
 852 41 852 41 942 160 c 1,20,-1
 942 522 l 1,21,-1
 1004 522 l 1,22,-1
 1004 -18 l 2,23,24
 1004 -409 1004 -409 645 -410 c 2,25,-1
 406 -410 l 1,26,-1
 406 -348 l 1,27,-1
 645 -348 l 2,28,29
 799 -348 799 -348 870.5 -267 c 128,-1,30
 942 -186 942 -186 942 41 c 2,31,-1
 942 72 l 1,32,33
 831 -20 831 -20 621 -20 c 0,34,35
 365 -20 365 -20 254 125 c 128,-1,36
 143 270 143 270 143 594 c 128,-1,37
 143 918 143 918 254 1063 c 128,-1,38
 365 1208 365 1208 621 1208 c 0,39,40
 918 1208 918 1208 1024 1014 c 1,41,-1
 768 799 l 1,42,-1
 672 799 l 1,6,-1
EndSplineSet
Fore
Refer: 314 710 N 1 0 0 1 266 0 2
Refer: 74 103 N 1 0 0 1 0 0 3
Validated: 1
EndChar

StartChar: Gbreve
Encoding: 286 286 210
Width: 1259
GlyphClass: 2
Flags: HMW
LayerCount: 2
Back
SplineSet
844 1677 m 1,0,1
 844 1589 844 1589 782.5 1531 c 128,-1,2
 721 1473 721 1473 639 1473 c 0,3,4
 551 1473 551 1473 492.5 1534 c 128,-1,5
 434 1595 434 1595 434 1677 c 1,6,-1
 496 1677 l 1,7,8
 496 1616 496 1616 539 1575 c 128,-1,9
 582 1534 582 1534 639 1534 c 0,10,11
 700 1534 700 1534 741 1577 c 128,-1,12
 782 1620 782 1620 782 1677 c 1,13,-1
 844 1677 l 1,0,1
1036 1145 m 1,14,15
 989 1264 989 1264 903 1328.5 c 128,-1,16
 817 1393 817 1393 635 1393 c 0,17,18
 535 1393 535 1393 463 1367 c 128,-1,19
 391 1341 391 1341 333.5 1280 c 128,-1,20
 276 1219 276 1219 247.5 1103 c 128,-1,21
 219 987 219 987 219 817 c 2,22,-1
 219 616 l 2,23,24
 219 446 219 446 247.5 330.5 c 128,-1,25
 276 215 276 215 333.5 153.5 c 128,-1,26
 391 92 391 92 463 66.5 c 128,-1,27
 535 41 535 41 635 41 c 0,28,29
 819 41 819 41 927.5 120 c 128,-1,30
 1036 199 1036 199 1036 289 c 2,31,-1
 1036 635 l 1,32,-1
 784 635 l 1,33,-1
 784 696 l 1,34,-1
 1110 696 l 1,35,-1
 1110 309 l 2,36,37
 1110 172 1110 172 986 76 c 128,-1,38
 862 -20 862 -20 635 -20 c 0,39,40
 383 -20 383 -20 270.5 134.5 c 128,-1,41
 158 289 158 289 158 616 c 2,42,-1
 158 817 l 2,43,44
 158 1145 158 1145 270.5 1299.5 c 128,-1,45
 383 1454 383 1454 635 1454 c 0,46,47
 838 1454 838 1454 938 1379.5 c 128,-1,48
 1038 1305 1038 1305 1094 1167 c 1,49,-1
 1036 1145 l 1,14,15
EndSplineSet
Fore
Refer: 316 728 N 1 0 0 1 332 303 2
Refer: 42 71 N 1 0 0 1 0 0 3
Validated: 1
EndChar

StartChar: gbreve
Encoding: 287 287 211
Width: 1167
GlyphClass: 2
Flags: HMW
LayerCount: 2
Back
SplineSet
825 1473 m 1,0,1
 825 1385 825 1385 763.5 1326.5 c 128,-1,2
 702 1268 702 1268 621 1268 c 0,3,4
 533 1268 533 1268 474.5 1329.5 c 128,-1,5
 416 1391 416 1391 416 1473 c 1,6,-1
 477 1473 l 1,7,8
 477 1412 477 1412 520 1370.5 c 128,-1,9
 563 1329 563 1329 621 1329 c 0,10,11
 682 1329 682 1329 723 1372 c 128,-1,12
 764 1415 764 1415 764 1473 c 1,13,-1
 825 1473 l 1,0,1
672 799 m 1,14,-1
 944 1026 l 1,15,16
 854 1147 854 1147 621 1147 c 0,17,18
 519 1147 519 1147 449 1125.5 c 128,-1,19
 379 1104 379 1104 320.5 1045.5 c 128,-1,20
 262 987 262 987 233.5 875.5 c 128,-1,21
 205 764 205 764 205 594 c 128,-1,22
 205 424 205 424 233.5 312.5 c 128,-1,23
 262 201 262 201 320.5 142.5 c 128,-1,24
 379 84 379 84 448.5 62.5 c 128,-1,25
 518 41 518 41 621 41 c 0,26,27
 852 41 852 41 942 160 c 1,28,-1
 942 522 l 1,29,-1
 1004 522 l 1,30,-1
 1004 -18 l 2,31,32
 1004 -409 1004 -409 645 -410 c 2,33,-1
 406 -410 l 1,34,-1
 406 -348 l 1,35,-1
 645 -348 l 2,36,37
 799 -348 799 -348 870.5 -267 c 128,-1,38
 942 -186 942 -186 942 41 c 2,39,-1
 942 72 l 1,40,41
 831 -20 831 -20 621 -20 c 0,42,43
 365 -20 365 -20 254 125 c 128,-1,44
 143 270 143 270 143 594 c 128,-1,45
 143 918 143 918 254 1063 c 128,-1,46
 365 1208 365 1208 621 1208 c 0,47,48
 918 1208 918 1208 1024 1014 c 1,49,-1
 768 799 l 1,50,-1
 672 799 l 1,14,-1
EndSplineSet
Fore
Refer: 316 728 S 1 0 0 1 313 99 2
Refer: 74 103 N 1 0 0 1 0 0 3
Validated: 1
EndChar

StartChar: Gdotaccent
Encoding: 288 288 212
Width: 1259
GlyphClass: 2
Flags: HMW
LayerCount: 2
Back
SplineSet
573 1663 m 1,0,-1
 709 1663 l 1,1,-1
 709 1544 l 1,2,-1
 573 1544 l 1,3,-1
 573 1663 l 1,0,-1
1036 1145 m 1,4,5
 989 1264 989 1264 903 1328.5 c 128,-1,6
 817 1393 817 1393 635 1393 c 0,7,8
 535 1393 535 1393 463 1367 c 128,-1,9
 391 1341 391 1341 333.5 1280 c 128,-1,10
 276 1219 276 1219 247.5 1103 c 128,-1,11
 219 987 219 987 219 817 c 2,12,-1
 219 616 l 2,13,14
 219 446 219 446 247.5 330.5 c 128,-1,15
 276 215 276 215 333.5 153.5 c 128,-1,16
 391 92 391 92 463 66.5 c 128,-1,17
 535 41 535 41 635 41 c 0,18,19
 819 41 819 41 927.5 120 c 128,-1,20
 1036 199 1036 199 1036 289 c 2,21,-1
 1036 635 l 1,22,-1
 784 635 l 1,23,-1
 784 696 l 1,24,-1
 1110 696 l 1,25,-1
 1110 309 l 2,26,27
 1110 172 1110 172 986 76 c 128,-1,28
 862 -20 862 -20 635 -20 c 0,29,30
 383 -20 383 -20 270.5 134.5 c 128,-1,31
 158 289 158 289 158 616 c 2,32,-1
 158 817 l 2,33,34
 158 1145 158 1145 270.5 1299.5 c 128,-1,35
 383 1454 383 1454 635 1454 c 0,36,37
 838 1454 838 1454 938 1379.5 c 128,-1,38
 1038 1305 1038 1305 1094 1167 c 1,39,-1
 1036 1145 l 1,4,5
EndSplineSet
Fore
Refer: 317 729 S 1 0 0 1 481 205 2
Refer: 42 71 N 1 0 0 1 0 0 3
Validated: 1
EndChar

StartChar: gdotaccent
Encoding: 289 289 213
Width: 1167
GlyphClass: 2
Flags: HMW
LayerCount: 2
Back
SplineSet
551 1458 m 1,0,-1
 686 1458 l 1,1,-1
 686 1339 l 1,2,-1
 551 1339 l 1,3,-1
 551 1458 l 1,0,-1
672 799 m 1,4,-1
 944 1026 l 1,5,6
 854 1147 854 1147 621 1147 c 0,7,8
 519 1147 519 1147 449 1125.5 c 128,-1,9
 379 1104 379 1104 320.5 1045.5 c 128,-1,10
 262 987 262 987 233.5 875.5 c 128,-1,11
 205 764 205 764 205 594 c 128,-1,12
 205 424 205 424 233.5 312.5 c 128,-1,13
 262 201 262 201 320.5 142.5 c 128,-1,14
 379 84 379 84 448.5 62.5 c 128,-1,15
 518 41 518 41 621 41 c 0,16,17
 852 41 852 41 942 160 c 1,18,-1
 942 522 l 1,19,-1
 1004 522 l 1,20,-1
 1004 -18 l 2,21,22
 1004 -409 1004 -409 645 -410 c 2,23,-1
 406 -410 l 1,24,-1
 406 -348 l 1,25,-1
 645 -348 l 2,26,27
 799 -348 799 -348 870.5 -267 c 128,-1,28
 942 -186 942 -186 942 41 c 2,29,-1
 942 72 l 1,30,31
 831 -20 831 -20 621 -20 c 0,32,33
 365 -20 365 -20 254 125 c 128,-1,34
 143 270 143 270 143 594 c 128,-1,35
 143 918 143 918 254 1063 c 128,-1,36
 365 1208 365 1208 621 1208 c 0,37,38
 918 1208 918 1208 1024 1014 c 1,39,-1
 768 799 l 1,40,-1
 672 799 l 1,4,-1
EndSplineSet
Fore
Refer: 317 729 N 1 0 0 1 459 0 2
Refer: 74 103 N 1 0 0 1 0 0 3
Validated: 1
EndChar

StartChar: Gcommaaccent
Encoding: 290 290 214
Width: 1259
GlyphClass: 2
Flags: MW
LayerCount: 2
Back
SplineSet
539 -360 m 1,0,1
 627 -292 627 -292 627 -195 c 1,2,-1
 567 -195 l 1,3,-1
 567 -76 l 1,4,-1
 702 -76 l 1,5,6
 702 -221 702 -221 675.5 -282.5 c 128,-1,7
 649 -344 649 -344 580 -406 c 1,8,-1
 539 -360 l 1,0,1
1036 1145 m 1,9,10
 989 1264 989 1264 903 1328.5 c 128,-1,11
 817 1393 817 1393 635 1393 c 0,12,13
 535 1393 535 1393 463 1367 c 128,-1,14
 391 1341 391 1341 333.5 1280 c 128,-1,15
 276 1219 276 1219 247.5 1103 c 128,-1,16
 219 987 219 987 219 817 c 2,17,-1
 219 616 l 2,18,19
 219 446 219 446 247.5 330.5 c 128,-1,20
 276 215 276 215 333.5 153.5 c 128,-1,21
 391 92 391 92 463 66.5 c 128,-1,22
 535 41 535 41 635 41 c 0,23,24
 819 41 819 41 927.5 120 c 128,-1,25
 1036 199 1036 199 1036 289 c 2,26,-1
 1036 635 l 1,27,-1
 784 635 l 1,28,-1
 784 696 l 1,29,-1
 1110 696 l 1,30,-1
 1110 309 l 2,31,32
 1110 172 1110 172 986 76 c 128,-1,33
 862 -20 862 -20 635 -20 c 0,34,35
 383 -20 383 -20 270.5 134.5 c 128,-1,36
 158 289 158 289 158 616 c 2,37,-1
 158 817 l 2,38,39
 158 1145 158 1145 270.5 1299.5 c 128,-1,40
 383 1454 383 1454 635 1454 c 0,41,42
 838 1454 838 1454 938 1379.5 c 128,-1,43
 1038 1305 1038 1305 1094 1167 c 1,44,-1
 1036 1145 l 1,9,10
EndSplineSet
Fore
Refer: 113 184 S 1 0 0 1 446 0 2
Refer: 42 71 N 1 0 0 1 0 0 3
Validated: 1
EndChar

StartChar: gcommaaccent
Encoding: 291 291 215
Width: 1167
GlyphClass: 2
Flags: HMW
LayerCount: 2
Back
SplineSet
719 1591 m 1,0,1
 631 1523 631 1523 631 1425 c 1,2,-1
 690 1425 l 1,3,-1
 690 1307 l 1,4,-1
 555 1307 l 1,5,6
 555 1452 555 1452 581.5 1513.5 c 128,-1,7
 608 1575 608 1575 678 1636 c 1,8,-1
 719 1591 l 1,0,1
672 799 m 1,9,-1
 944 1026 l 1,10,11
 854 1147 854 1147 621 1147 c 0,12,13
 519 1147 519 1147 449 1125.5 c 128,-1,14
 379 1104 379 1104 320.5 1045.5 c 128,-1,15
 262 987 262 987 233.5 875.5 c 128,-1,16
 205 764 205 764 205 594 c 128,-1,17
 205 424 205 424 233.5 312.5 c 128,-1,18
 262 201 262 201 320.5 142.5 c 128,-1,19
 379 84 379 84 448.5 62.5 c 128,-1,20
 518 41 518 41 621 41 c 0,21,22
 852 41 852 41 942 160 c 1,23,-1
 942 522 l 1,24,-1
 1004 522 l 1,25,-1
 1004 -18 l 2,26,27
 1004 -409 1004 -409 645 -410 c 2,28,-1
 406 -410 l 1,29,-1
 406 -348 l 1,30,-1
 645 -348 l 2,31,32
 799 -348 799 -348 870.5 -267 c 128,-1,33
 942 -186 942 -186 942 41 c 2,34,-1
 942 72 l 1,35,36
 831 -20 831 -20 621 -20 c 0,37,38
 365 -20 365 -20 254 125 c 128,-1,39
 143 270 143 270 143 594 c 128,-1,40
 143 918 143 918 254 1063 c 128,-1,41
 365 1208 365 1208 621 1208 c 0,42,43
 918 1208 918 1208 1024 1014 c 1,44,-1
 768 799 l 1,45,-1
 672 799 l 1,9,-1
EndSplineSet
Fore
Refer: 313 699 S 1 0 0 1 57 0 2
Refer: 74 103 N 1 0 0 1 0 0 3
Validated: 1
EndChar

StartChar: Hcircumflex
Encoding: 292 292 216
Width: 1265
GlyphClass: 2
Flags: HMW
LayerCount: 2
Back
SplineSet
1063 0 m 1,0,-1
 1001 0 l 1,1,-1
 1001 717 l 1,2,-1
 264 717 l 1,3,-1
 264 0 l 1,4,-1
 203 0 l 1,5,-1
 203 1434 l 1,6,-1
 264 1434 l 1,7,-1
 264 778 l 1,8,-1
 1001 778 l 1,9,-1
 1001 1434 l 1,10,-1
 1063 1434 l 1,11,-1
 1063 0 l 1,0,-1
633 1769 m 1,12,-1
 872 1483 l 1,13,-1
 825 1444 l 1,14,-1
 633 1673 l 1,15,-1
 440 1444 l 1,16,-1
 393 1483 l 1,17,-1
 633 1769 l 1,12,-1
EndSplineSet
Fore
Refer: 314 710 S 1 0 0 1 301 164 2
Refer: 43 72 N 1 0 0 1 0 0 3
Validated: 1
EndChar

StartChar: hcircumflex
Encoding: 293 293 217
Width: 1126
GlyphClass: 2
Flags: HMW
LayerCount: 2
Back
SplineSet
932 0 m 1,0,-1
 870 0 l 1,1,-1
 870 594 l 1,2,-1
 256 594 l 1,3,-1
 256 0 l 1,4,-1
 195 0 l 1,5,-1
 195 1188 l 1,6,-1
 256 1188 l 1,7,-1
 256 655 l 1,8,-1
 870 655 l 1,9,-1
 870 1188 l 1,10,-1
 932 1188 l 1,11,-1
 932 0 l 1,0,-1
563 1606 m 1,12,-1
 803 1319 l 1,13,-1
 756 1280 l 1,14,-1
 563 1509 l 1,15,-1
 371 1280 l 1,16,-1
 324 1319 l 1,17,-1
 563 1606 l 1,12,-1
EndSplineSet
Fore
Refer: 314 710 S 1 0 0 1 231 0 2
Refer: 75 104 N 1 0 0 1 0 0 3
Validated: 1
EndChar

StartChar: Hbar
Encoding: 294 294 218
Width: 1265
GlyphClass: 2
Flags: MW
LayerCount: 2
Fore
SplineSet
100 1126 m 1,0,-1
 100 1188 l 1,1,-1
 203 1188 l 1,2,-1
 203 1434 l 1,3,-1
 264 1434 l 1,4,-1
 264 1188 l 1,5,-1
 1001 1188 l 1,6,-1
 1001 1434 l 1,7,-1
 1063 1434 l 1,8,-1
 1063 1188 l 1,9,-1
 1165 1188 l 1,10,-1
 1165 1126 l 1,11,-1
 1063 1126 l 1,12,-1
 1063 0 l 1,13,-1
 1001 0 l 1,14,-1
 1001 717 l 1,15,-1
 264 717 l 1,16,-1
 264 0 l 1,17,-1
 203 0 l 1,18,-1
 203 1126 l 1,19,-1
 100 1126 l 1,0,-1
1001 1126 m 1,20,-1
 264 1126 l 1,21,-1
 264 778 l 1,22,-1
 1001 778 l 1,23,-1
 1001 1126 l 1,20,-1
EndSplineSet
Validated: 1
EndChar

StartChar: hbar
Encoding: 295 295 219
Width: 1171
GlyphClass: 2
Flags: MW
LayerCount: 2
Fore
SplineSet
115 840 m 1,0,-1
 115 901 l 1,1,-1
 217 901 l 1,2,-1
 217 1188 l 1,3,-1
 279 1188 l 1,4,-1
 279 901 l 1,5,-1
 893 901 l 1,6,-1
 893 1188 l 1,7,-1
 954 1188 l 1,8,-1
 954 901 l 1,9,-1
 1057 901 l 1,10,-1
 1057 840 l 1,11,-1
 954 840 l 1,12,-1
 954 0 l 1,13,-1
 893 0 l 1,14,-1
 893 594 l 1,15,-1
 279 594 l 1,16,-1
 279 0 l 1,17,-1
 217 0 l 1,18,-1
 217 840 l 1,19,-1
 115 840 l 1,0,-1
893 840 m 1,20,-1
 279 840 l 1,21,-1
 279 655 l 1,22,-1
 893 655 l 1,23,-1
 893 840 l 1,20,-1
EndSplineSet
Validated: 1
EndChar

StartChar: Itilde
Encoding: 296 296 220
Width: 466
GlyphClass: 2
Flags: HMW
LayerCount: 2
Back
SplineSet
334 1479 m 0,0,1
 277 1479 277 1479 225.5 1528 c 128,-1,2
 174 1577 174 1577 133 1577 c 0,3,4
 100 1577 100 1577 75.5 1550.5 c 128,-1,5
 51 1524 51 1524 51 1479 c 1,6,-1
 -10 1479 l 1,7,8
 -10 1551 -10 1551 34 1594.5 c 128,-1,9
 78 1638 78 1638 133 1638 c 0,10,11
 190 1638 190 1638 241.5 1589 c 128,-1,12
 293 1540 293 1540 334 1540 c 0,13,14
 367 1540 367 1540 391.5 1566.5 c 128,-1,15
 416 1593 416 1593 416 1638 c 1,16,-1
 477 1638 l 1,17,18
 477 1566 477 1566 433 1522.5 c 128,-1,19
 389 1479 389 1479 334 1479 c 0,0,1
264 0 m 1,20,-1
 203 0 l 1,21,-1
 203 1434 l 1,22,-1
 264 1434 l 1,23,-1
 264 0 l 1,20,-1
EndSplineSet
Fore
Refer: 320 732 S 1 0 0 1 -103 205 2
Refer: 44 73 N 1 0 0 1 0 0 3
Validated: 1
EndChar

StartChar: itilde
Encoding: 297 297 221
Width: 450
GlyphClass: 2
Flags: HMW
LayerCount: 2
Back
SplineSet
326 1274 m 0,0,1
 269 1274 269 1274 217.5 1323 c 128,-1,2
 166 1372 166 1372 125 1372 c 0,3,4
 92 1372 92 1372 67.5 1345.5 c 128,-1,5
 43 1319 43 1319 43 1274 c 1,6,-1
 -18 1274 l 1,7,8
 -18 1346 -18 1346 26 1390 c 128,-1,9
 70 1434 70 1434 125 1434 c 0,10,11
 182 1434 182 1434 233.5 1384.5 c 128,-1,12
 285 1335 285 1335 326 1335 c 0,13,14
 359 1335 359 1335 383.5 1362 c 128,-1,15
 408 1389 408 1389 408 1434 c 1,16,-1
 469 1434 l 1,17,18
 469 1362 469 1362 425 1318 c 128,-1,19
 381 1274 381 1274 326 1274 c 0,0,1
195 1188 m 1,20,-1
 256 1188 l 1,21,-1
 256 0 l 1,22,-1
 195 0 l 1,23,-1
 195 1188 l 1,20,-1
EndSplineSet
Fore
Refer: 320 732 S 1 0 0 1 -110 0 2
Refer: 229 305 N 1 0 0 1 0 0 3
Validated: 1
EndChar

StartChar: Imacron
Encoding: 298 298 222
Width: 466
GlyphClass: 2
Flags: MW
LayerCount: 2
Back
SplineSet
8 1577 m 1,0,-1
 8 1638 l 1,1,-1
 459 1638 l 1,2,-1
 459 1577 l 1,3,-1
 8 1577 l 1,0,-1
264 0 m 1,4,-1
 203 0 l 1,5,-1
 203 1434 l 1,6,-1
 264 1434 l 1,7,-1
 264 0 l 1,4,-1
EndSplineSet
Fore
Refer: 109 175 N 1 0 0 1 -62 204 2
Refer: 44 73 N 1 0 0 1 0 0 3
Validated: 1
EndChar

StartChar: imacron
Encoding: 299 299 223
Width: 450
GlyphClass: 2
Flags: HMW
LayerCount: 2
Back
SplineSet
0 1372 m 1,0,-1
 0 1434 l 1,1,-1
 451 1434 l 1,2,-1
 451 1372 l 1,3,-1
 0 1372 l 1,0,-1
195 1188 m 1,4,-1
 256 1188 l 1,5,-1
 256 0 l 1,6,-1
 195 0 l 1,7,-1
 195 1188 l 1,4,-1
EndSplineSet
Fore
Refer: 109 175 N 1 0 0 1 -70 0 2
Refer: 229 305 N 1 0 0 1 0 0 3
Validated: 1
EndChar

StartChar: Ibreve
Encoding: 300 300 224
Width: 466
GlyphClass: 2
Flags: HMW
LayerCount: 2
Back
SplineSet
438 1677 m 1,0,1
 438 1589 438 1589 376.5 1531 c 128,-1,2
 315 1473 315 1473 233 1473 c 0,3,4
 145 1473 145 1473 87 1534 c 128,-1,5
 29 1595 29 1595 29 1677 c 1,6,-1
 90 1677 l 1,7,8
 90 1616 90 1616 133 1575 c 128,-1,9
 176 1534 176 1534 233 1534 c 0,10,11
 294 1534 294 1534 335.5 1577 c 128,-1,12
 377 1620 377 1620 377 1677 c 1,13,-1
 438 1677 l 1,0,1
264 0 m 1,14,-1
 203 0 l 1,15,-1
 203 1434 l 1,16,-1
 264 1434 l 1,17,-1
 264 0 l 1,14,-1
EndSplineSet
Fore
Refer: 316 728 N 1 0 0 1 -73 303 2
Refer: 44 73 N 1 0 0 1 0 0 3
Validated: 1
EndChar

StartChar: ibreve
Encoding: 301 301 225
Width: 450
GlyphClass: 2
Flags: HMW
LayerCount: 2
Back
SplineSet
430 1473 m 1,0,1
 430 1385 430 1385 368.5 1326.5 c 128,-1,2
 307 1268 307 1268 225 1268 c 0,3,4
 137 1268 137 1268 78.5 1329.5 c 128,-1,5
 20 1391 20 1391 20 1473 c 1,6,-1
 82 1473 l 1,7,8
 82 1412 82 1412 125 1370.5 c 128,-1,9
 168 1329 168 1329 225 1329 c 0,10,11
 286 1329 286 1329 327.5 1372 c 128,-1,12
 369 1415 369 1415 369 1473 c 1,13,-1
 430 1473 l 1,0,1
195 1188 m 1,14,-1
 256 1188 l 1,15,-1
 256 0 l 1,16,-1
 195 0 l 1,17,-1
 195 1188 l 1,14,-1
EndSplineSet
Fore
Refer: 316 728 S 1 0 0 1 -82 99 2
Refer: 229 305 N 1 0 0 1 0 0 3
Validated: 1
EndChar

StartChar: Iogonek
Encoding: 302 302 226
Width: 468
GlyphClass: 2
Flags: MW
LayerCount: 2
Fore
SplineSet
205 31 m 1,0,-1
 205 1434 l 1,1,-1
 266 1434 l 1,2,-1
 266 0 l 1,3,4
 182 -53 182 -53 182 -156 c 0,5,6
 182 -234 182 -234 236.5 -287 c 128,-1,7
 291 -340 291 -340 367 -340 c 1,8,-1
 367 -401 l 1,9,10
 267 -401 267 -401 194 -329.5 c 128,-1,11
 121 -258 121 -258 121 -156 c 0,12,13
 121 -43 121 -43 205 31 c 1,0,-1
EndSplineSet
Validated: 1
EndChar

StartChar: iogonek
Encoding: 303 303 227
Width: 450
GlyphClass: 2
Flags: MW
LayerCount: 2
Fore
SplineSet
195 1188 m 1,0,-1
 256 1188 l 1,1,-1
 256 0 l 1,2,3
 172 -53 172 -53 172 -156 c 0,4,5
 172 -234 172 -234 225.5 -287 c 128,-1,6
 279 -340 279 -340 356 -340 c 1,7,-1
 356 -401 l 1,8,9
 254 -401 254 -401 182.5 -329.5 c 128,-1,10
 111 -258 111 -258 111 -156 c 0,11,12
 111 -43 111 -43 195 31 c 1,13,-1
 195 1188 l 1,0,-1
EndSplineSet
Validated: 1
EndChar

StartChar: Idotaccent
Encoding: 304 304 228
Width: 466
GlyphClass: 2
Flags: HMW
LayerCount: 2
Back
SplineSet
166 1663 m 1,0,-1
 301 1663 l 1,1,-1
 301 1544 l 1,2,-1
 166 1544 l 1,3,-1
 166 1663 l 1,0,-1
264 0 m 1,4,-1
 203 0 l 1,5,-1
 203 1434 l 1,6,-1
 264 1434 l 1,7,-1
 264 0 l 1,4,-1
EndSplineSet
Fore
Refer: 317 729 N 1 0 0 1 74 205 2
Refer: 44 73 N 1 0 0 1 0 0 3
Validated: 1
EndChar

StartChar: dotlessi
Encoding: 305 305 229
Width: 450
GlyphClass: 2
Flags: MW
LayerCount: 2
Fore
SplineSet
195 1188 m 1,0,-1
 256 1188 l 1,1,-1
 256 0 l 1,2,-1
 195 0 l 1,3,-1
 195 1188 l 1,0,-1
EndSplineSet
Validated: 1
EndChar

StartChar: IJ
Encoding: 306 306 230
Width: 1464
GlyphClass: 2
Flags: MW
LayerCount: 2
Back
SplineSet
264 0 m 1,0,-1
 203 0 l 1,1,-1
 203 1434 l 1,2,-1
 264 1434 l 1,3,-1
 264 0 l 1,0,-1
547 309 m 1,4,5
 637 41 637 41 895 41 c 0,6,7
 1069 41 1069 41 1137.5 140.5 c 128,-1,8
 1206 240 1206 240 1206 414 c 2,9,-1
 1206 1434 l 1,10,-1
 1268 1434 l 1,11,-1
 1268 414 l 2,12,13
 1268 -20 1268 -20 895 -20 c 0,14,15
 719 -20 719 -20 623.5 68 c 128,-1,16
 528 156 528 156 473 309 c 1,17,-1
 547 309 l 1,4,5
EndSplineSet
Fore
Refer: 45 74 S 1 0 0 1 432 0 2
Refer: 44 73 N 1 0 0 1 0 0 2
Validated: 1
EndChar

StartChar: ij
Encoding: 307 307 231
Width: 917
GlyphClass: 2
Flags: MW
LayerCount: 2
Back
SplineSet
195 1188 m 1,0,-1
 256 1188 l 1,1,-1
 256 0 l 1,2,-1
 195 0 l 1,3,-1
 195 1188 l 1,0,-1
381 -410 m 2,4,-1
 195 -410 l 1,5,-1
 195 -348 l 1,6,-1
 381 -348 l 2,7,8
 551 -348 551 -348 606.5 -253 c 128,-1,9
 662 -158 662 -158 662 25 c 2,10,-1
 662 1188 l 1,11,-1
 723 1188 l 1,12,-1
 723 25 l 2,13,14
 723 -32 723 -32 721 -67 c 128,-1,15
 719 -102 719 -102 710.5 -161.5 c 128,-1,16
 702 -221 702 -221 679.5 -257 c 128,-1,17
 657 -293 657 -293 621.5 -333 c 128,-1,18
 586 -373 586 -373 524.5 -391.5 c 128,-1,19
 463 -410 463 -410 381 -410 c 2,4,-1
EndSplineSet
Fore
SplineSet
195 1188 m 1,0,-1
 256 1188 l 1,1,-1
 256 0 l 1,2,-1
 195 0 l 1,3,-1
 195 1188 l 1,0,-1
381 -410 m 2,4,-1
 195 -410 l 1,5,-1
 195 -348 l 1,6,-1
 381 -348 l 2,7,8
 551 -348 551 -348 606.5 -253 c 128,-1,9
 662 -158 662 -158 662 25 c 2,10,-1
 662 1188 l 1,11,-1
 723 1188 l 1,12,-1
 723 25 l 2,13,14
 723 -32 723 -32 721 -67 c 128,-1,15
 719 -102 719 -102 710.5 -161.5 c 128,-1,16
 702 -221 702 -221 679.5 -257 c 128,-1,17
 657 -293 657 -293 621.5 -333 c 128,-1,18
 586 -373 586 -373 524.5 -391.5 c 128,-1,19
 463 -410 463 -410 381 -410 c 2,4,-1
EndSplineSet
Validated: 1
EndChar

StartChar: Jcircumflex
Encoding: 308 308 232
Width: 1032
GlyphClass: 2
Flags: HMW
LayerCount: 2
Back
SplineSet
807 1769 m 1,0,-1
 1047 1483 l 1,1,-1
 999 1444 l 1,2,-1
 807 1673 l 1,3,-1
 614 1444 l 1,4,-1
 567 1483 l 1,5,-1
 807 1769 l 1,0,-1
115 309 m 1,6,7
 205 41 205 41 463 41 c 0,8,9
 637 41 637 41 705.5 140.5 c 128,-1,10
 774 240 774 240 774 414 c 2,11,-1
 774 1434 l 1,12,-1
 836 1434 l 1,13,-1
 836 414 l 2,14,15
 836 -20 836 -20 463 -20 c 0,16,17
 287 -20 287 -20 191.5 68 c 128,-1,18
 96 156 96 156 41 309 c 1,19,-1
 115 309 l 1,6,7
EndSplineSet
Fore
Refer: 314 710 N 1 0 0 1 475 164 2
Refer: 45 74 N 1 0 0 1 0 0 3
Validated: 1
EndChar

StartChar: jcircumflex
Encoding: 309 309 233
Width: 884
GlyphClass: 2
Flags: HMW
LayerCount: 2
Back
SplineSet
659 1606 m 1,0,-1
 899 1319 l 1,1,-1
 852 1280 l 1,2,-1
 659 1509 l 1,3,-1
 467 1280 l 1,4,-1
 420 1319 l 1,5,-1
 659 1606 l 1,0,-1
31 -80 m 1,6,7
 86 -348 86 -348 348 -348 c 0,8,9
 518 -348 518 -348 573.5 -253 c 128,-1,10
 629 -158 629 -158 629 25 c 2,11,-1
 629 1188 l 1,12,-1
 690 1188 l 1,13,-1
 690 25 l 2,14,15
 690 -32 690 -32 688 -67 c 128,-1,16
 686 -102 686 -102 678 -161.5 c 128,-1,17
 670 -221 670 -221 647.5 -257 c 128,-1,18
 625 -293 625 -293 589 -333 c 128,-1,19
 553 -373 553 -373 491.5 -391.5 c 128,-1,20
 430 -410 430 -410 348 -410 c 0,21,22
 26 -410 26 -410 -43 -80 c 1,23,-1
 31 -80 l 1,6,7
EndSplineSet
Fore
Refer: 314 710 N 1 0 0 1 327 0 2
Refer: 77 106 N 1 0 0 1 0 0 3
Validated: 1
EndChar

StartChar: Kcommaaccent
Encoding: 310 310 234
Width: 1173
GlyphClass: 2
Flags: MW
LayerCount: 2
Back
SplineSet
530 -360 m 1,0,1
 618 -292 618 -292 618 -195 c 1,2,-1
 559 -195 l 1,3,-1
 559 -76 l 1,4,-1
 694 -76 l 1,5,6
 694 -221 694 -221 667.5 -282.5 c 128,-1,7
 641 -344 641 -344 571 -406 c 1,8,-1
 530 -360 l 1,0,1
264 1434 m 1,9,-1
 264 0 l 1,10,-1
 203 0 l 1,11,-1
 203 1434 l 1,12,-1
 264 1434 l 1,9,-1
1106 1434 m 1,13,-1
 418 750 l 1,14,-1
 1171 0 l 1,15,-1
 1083 0 l 1,16,-1
 330 750 l 1,17,-1
 1018 1434 l 1,18,-1
 1106 1434 l 1,13,-1
EndSplineSet
Fore
Refer: 113 184 S 1 0 0 1 438 0 2
Refer: 46 75 N 1 0 0 1 0 0 3
Validated: 1
EndChar

StartChar: kcommaaccent
Encoding: 311 311 235
Width: 1054
GlyphClass: 2
Flags: MW
LayerCount: 2
Back
SplineSet
500 -360 m 1,0,1
 588 -292 588 -292 588 -195 c 1,2,-1
 528 -195 l 1,3,-1
 528 -76 l 1,4,-1
 664 -76 l 1,5,6
 664 -221 664 -221 637 -282.5 c 128,-1,7
 610 -344 610 -344 541 -406 c 1,8,-1
 500 -360 l 1,0,1
195 0 m 1,9,-1
 195 1188 l 1,10,-1
 256 1188 l 1,11,-1
 256 0 l 1,12,-1
 195 0 l 1,9,-1
952 0 m 1,13,-1
 322 627 l 1,14,-1
 887 1188 l 1,15,-1
 975 1188 l 1,16,-1
 410 627 l 1,17,-1
 1040 0 l 1,18,-1
 952 0 l 1,13,-1
EndSplineSet
Fore
Refer: 113 184 S 1 0 0 1 407 0 2
Refer: 78 107 N 1 0 0 1 0 0 3
Validated: 1
EndChar

StartChar: Lacute
Encoding: 313 313 236
Width: 1089
GlyphClass: 2
Flags: MW
LayerCount: 2
Back
SplineSet
608 1761 m 1,0,-1
 369 1477 l 1,1,-1
 322 1516 l 1,2,-1
 561 1802 l 1,3,-1
 608 1761 l 1,0,-1
1059 61 m 1,4,-1
 1059 0 l 1,5,-1
 203 0 l 1,6,-1
 203 1434 l 1,7,-1
 264 1434 l 1,8,-1
 264 61 l 1,9,-1
 1059 61 l 1,4,-1
EndSplineSet
Fore
Refer: 111 180 S 1 0 0 1 230 197 2
Refer: 47 76 N 1 0 0 1 0 0 3
Validated: 1
EndChar

StartChar: lacute
Encoding: 314 314 237
Width: 919
GlyphClass: 2
Flags: MW
LayerCount: 2
Back
SplineSet
580 1565 m 1,0,-1
 340 1280 l 1,1,-1
 293 1319 l 1,2,-1
 532 1606 l 1,3,-1
 580 1565 l 1,0,-1
879 61 m 1,4,-1
 879 0 l 1,5,-1
 195 0 l 1,6,-1
 195 1188 l 1,7,-1
 256 1188 l 1,8,-1
 256 61 l 1,9,-1
 879 61 l 1,4,-1
EndSplineSet
Fore
Refer: 111 180 N 1 0 0 1 201 0 2
Refer: 79 108 N 1 0 0 1 0 0 3
Validated: 1
EndChar

StartChar: Lcommaaccent
Encoding: 315 315 238
Width: 1089
GlyphClass: 2
Flags: MW
LayerCount: 2
Back
SplineSet
514 -360 m 1,0,1
 602 -292 602 -292 602 -195 c 1,2,-1
 543 -195 l 1,3,-1
 543 -76 l 1,4,-1
 678 -76 l 1,5,6
 678 -221 678 -221 651.5 -282.5 c 128,-1,7
 625 -344 625 -344 555 -406 c 1,8,-1
 514 -360 l 1,0,1
1059 61 m 1,9,-1
 1059 0 l 1,10,-1
 203 0 l 1,11,-1
 203 1434 l 1,12,-1
 264 1434 l 1,13,-1
 264 61 l 1,14,-1
 1059 61 l 1,9,-1
EndSplineSet
Fore
Refer: 113 184 S 1 0 0 1 422 0 2
Refer: 47 76 N 1 0 0 1 0 0 3
Validated: 1
EndChar

StartChar: lcommaaccent
Encoding: 316 316 239
Width: 919
GlyphClass: 2
Flags: MW
LayerCount: 2
Back
SplineSet
455 -360 m 1,0,1
 543 -292 543 -292 543 -195 c 1,2,-1
 483 -195 l 1,3,-1
 483 -76 l 1,4,-1
 618 -76 l 1,5,6
 618 -221 618 -221 591.5 -282.5 c 128,-1,7
 565 -344 565 -344 496 -406 c 1,8,-1
 455 -360 l 1,0,1
879 61 m 1,9,-1
 879 0 l 1,10,-1
 195 0 l 1,11,-1
 195 1188 l 1,12,-1
 256 1188 l 1,13,-1
 256 61 l 1,14,-1
 879 61 l 1,9,-1
EndSplineSet
Fore
Refer: 113 184 N 1 0 0 1 362 0 2
Refer: 79 108 S 1 0 0 1 0 0 3
Validated: 1
EndChar

StartChar: Lcaron
Encoding: 317 317 240
Width: 1089
GlyphClass: 2
Flags: MW
LayerCount: 2
Back
SplineSet
492 995 m 1,0,1
 515 1026 515 1026 546.5 1122.5 c 128,-1,2
 578 1219 578 1219 578 1315 c 1,3,-1
 518 1315 l 1,4,-1
 518 1434 l 1,5,-1
 653 1434 l 1,6,7
 653 1125 653 1125 543 963 c 1,8,-1
 492 995 l 1,0,1
1059 61 m 1,9,-1
 1059 0 l 1,10,-1
 203 0 l 1,11,-1
 203 1434 l 1,12,-1
 264 1434 l 1,13,-1
 264 61 l 1,14,-1
 1059 61 l 1,9,-1
EndSplineSet
Fore
Refer: 15 44 S 1 0 0 1 356 1315 2
Refer: 47 76 N 1 0 0 1 0 0 2
Validated: 1
EndChar

StartChar: lcaron
Encoding: 318 318 241
Width: 919
GlyphClass: 2
Flags: MW
LayerCount: 2
Back
SplineSet
483 750 m 1,0,1
 506 781 506 781 537.5 877 c 128,-1,2
 569 973 569 973 569 1069 c 1,3,-1
 510 1069 l 1,4,-1
 510 1188 l 1,5,-1
 645 1188 l 1,6,7
 645 879 645 879 535 717 c 1,8,-1
 483 750 l 1,0,1
879 61 m 1,9,-1
 879 0 l 1,10,-1
 195 0 l 1,11,-1
 195 1188 l 1,12,-1
 256 1188 l 1,13,-1
 256 61 l 1,14,-1
 879 61 l 1,9,-1
EndSplineSet
Fore
Refer: 15 44 N 1 0 0 1 348 1069 2
Refer: 79 108 N 1 0 0 1 0 0 2
Validated: 1
EndChar

StartChar: Ldot
Encoding: 319 319 242
Width: 1089
GlyphClass: 2
Flags: MW
LayerCount: 2
Back
SplineSet
637 733 m 1,0,-1
 772 733 l 1,1,-1
 772 614 l 1,2,-1
 637 614 l 1,3,-1
 637 733 l 1,0,-1
1059 61 m 1,4,-1
 1059 0 l 1,5,-1
 203 0 l 1,6,-1
 203 1434 l 1,7,-1
 264 1434 l 1,8,-1
 264 61 l 1,9,-1
 1059 61 l 1,4,-1
EndSplineSet
Fore
Refer: 112 183 S 1 0 0 1 455 1 2
Refer: 47 76 N 1 0 0 1 0 0 3
Validated: 1
EndChar

StartChar: ldot
Encoding: 320 320 243
Width: 919
GlyphClass: 2
Flags: MW
LayerCount: 2
Back
SplineSet
526 733 m 1,0,-1
 662 733 l 1,1,-1
 662 614 l 1,2,-1
 526 614 l 1,3,-1
 526 733 l 1,0,-1
879 61 m 1,4,-1
 879 0 l 1,5,-1
 195 0 l 1,6,-1
 195 1188 l 1,7,-1
 256 1188 l 1,8,-1
 256 61 l 1,9,-1
 879 61 l 1,4,-1
EndSplineSet
Fore
Refer: 112 183 N 1 0 0 1 344 0 2
Refer: 79 108 N 1 0 0 1 0 0 3
Validated: 1
EndChar

StartChar: Lslash
Encoding: 321 321 244
Width: 1091
GlyphClass: 2
Flags: MW
LayerCount: 2
Fore
SplineSet
125 520 m 1,0,-1
 80 565 l 1,1,-1
 205 690 l 1,2,-1
 205 1434 l 1,3,-1
 266 1434 l 1,4,-1
 266 752 l 1,5,-1
 367 852 l 1,6,-1
 412 807 l 1,7,-1
 266 662 l 1,8,-1
 266 61 l 1,9,-1
 1061 61 l 1,10,-1
 1061 0 l 1,11,-1
 205 0 l 1,12,-1
 205 600 l 1,13,-1
 125 520 l 1,0,-1
EndSplineSet
Validated: 1
EndChar

StartChar: lslash
Encoding: 322 322 245
Width: 925
GlyphClass: 2
Flags: MW
LayerCount: 2
Fore
SplineSet
121 520 m 1,0,-1
 76 565 l 1,1,-1
 201 690 l 1,2,-1
 201 1188 l 1,3,-1
 262 1188 l 1,4,-1
 262 752 l 1,5,-1
 362 852 l 1,6,-1
 408 807 l 1,7,-1
 262 662 l 1,8,-1
 262 61 l 1,9,-1
 885 61 l 1,10,-1
 885 0 l 1,11,-1
 201 0 l 1,12,-1
 201 600 l 1,13,-1
 121 520 l 1,0,-1
EndSplineSet
Validated: 1
EndChar

StartChar: Nacute
Encoding: 323 323 246
Width: 1304
GlyphClass: 2
Flags: MW
LayerCount: 2
Back
SplineSet
844 1761 m 1,0,-1
 604 1477 l 1,1,-1
 557 1516 l 1,2,-1
 797 1802 l 1,3,-1
 844 1761 l 1,0,-1
362 61 m 1,4,-1
 997 61 l 1,5,-1
 264 1329 l 1,6,-1
 264 0 l 1,7,-1
 203 0 l 1,8,-1
 203 1434 l 1,9,-1
 274 1434 l 1,10,-1
 1040 109 l 1,11,-1
 1040 1434 l 1,12,-1
 1102 1434 l 1,13,-1
 1102 0 l 1,14,-1
 362 0 l 1,15,-1
 362 61 l 1,4,-1
EndSplineSet
Fore
Refer: 111 180 S 1 0 0 1 465 197 2
Refer: 49 78 N 1 0 0 1 0 0 3
Validated: 1
EndChar

StartChar: nacute
Encoding: 324 324 247
Width: 1179
GlyphClass: 2
Flags: MW
LayerCount: 2
Back
SplineSet
784 1565 m 1,0,-1
 545 1280 l 1,1,-1
 498 1319 l 1,2,-1
 737 1606 l 1,3,-1
 784 1565 l 1,0,-1
195 0 m 1,4,-1
 195 1188 l 1,5,-1
 256 1188 l 1,6,-1
 924 113 l 1,7,-1
 924 1188 l 1,8,-1
 985 1188 l 1,9,-1
 985 0 l 1,10,-1
 924 0 l 1,11,-1
 256 1077 l 1,12,-1
 256 0 l 1,13,-1
 195 0 l 1,4,-1
EndSplineSet
Fore
Refer: 111 180 S 1 0 0 1 406 0 2
Refer: 81 110 N 1 0 0 1 0 0 3
Validated: 1
EndChar

StartChar: Ncommaaccent
Encoding: 325 325 248
Width: 1304
GlyphClass: 2
Flags: HMW
LayerCount: 2
Back
SplineSet
1032 0 m 1,0,-1
 264 1329 l 1,1,-1
 264 0 l 1,2,-1
 203 0 l 1,3,-1
 203 1434 l 1,4,-1
 274 1434 l 1,5,-1
 1040 109 l 1,6,-1
 1040 1434 l 1,7,-1
 1102 1434 l 1,8,-1
 1102 0 l 1,9,-1
 1032 0 l 1,0,-1
553 -360 m 1,10,11
 641 -292 641 -292 641 -195 c 1,12,-1
 582 -195 l 1,13,-1
 582 -76 l 1,14,-1
 717 -76 l 1,15,16
 717 -221 717 -221 690.5 -282.5 c 128,-1,17
 664 -344 664 -344 594 -406 c 1,18,-1
 553 -360 l 1,10,11
EndSplineSet
Fore
Refer: 113 184 S 1 0 0 1 461 0 2
Refer: 348 -1 N 1 0 0 1 0 0 2
Validated: 1
EndChar

StartChar: ncommaaccent
Encoding: 326 326 249
Width: 1179
GlyphClass: 2
Flags: MW
LayerCount: 2
Back
SplineSet
500 -360 m 1,0,1
 588 -292 588 -292 588 -195 c 1,2,-1
 528 -195 l 1,3,-1
 528 -76 l 1,4,-1
 664 -76 l 1,5,6
 664 -221 664 -221 637 -282.5 c 128,-1,7
 610 -344 610 -344 541 -406 c 1,8,-1
 500 -360 l 1,0,1
195 0 m 1,9,-1
 195 1188 l 1,10,-1
 256 1188 l 1,11,-1
 924 113 l 1,12,-1
 924 1188 l 1,13,-1
 985 1188 l 1,14,-1
 985 0 l 1,15,-1
 924 0 l 1,16,-1
 256 1077 l 1,17,-1
 256 0 l 1,18,-1
 195 0 l 1,9,-1
EndSplineSet
Fore
Refer: 113 184 S 1 0 0 1 407 0 2
Refer: 81 110 N 1 0 0 1 0 0 3
Validated: 1
EndChar

StartChar: Ncaron
Encoding: 327 327 250
Width: 1304
GlyphClass: 2
Flags: HMW
LayerCount: 2
Back
SplineSet
641 1456 m 1,0,-1
 401 1743 l 1,1,-1
 449 1782 l 1,2,-1
 641 1552 l 1,3,-1
 834 1782 l 1,4,-1
 881 1743 l 1,5,-1
 641 1456 l 1,0,-1
362 61 m 1,6,-1
 997 61 l 1,7,-1
 264 1329 l 1,8,-1
 264 0 l 1,9,-1
 203 0 l 1,10,-1
 203 1434 l 1,11,-1
 274 1434 l 1,12,-1
 1040 109 l 1,13,-1
 1040 1434 l 1,14,-1
 1102 1434 l 1,15,-1
 1102 0 l 1,16,-1
 362 0 l 1,17,-1
 362 61 l 1,6,-1
EndSplineSet
Fore
Refer: 315 711 N 1 0 0 1 309 176 2
Refer: 49 78 N 1 0 0 1 0 0 3
Validated: 1
EndChar

StartChar: ncaron
Encoding: 328 328 251
Width: 1179
GlyphClass: 2
Flags: HMW
LayerCount: 2
Back
SplineSet
592 1231 m 1,0,-1
 352 1518 l 1,1,-1
 399 1556 l 1,2,-1
 592 1327 l 1,3,-1
 784 1556 l 1,4,-1
 831 1518 l 1,5,-1
 592 1231 l 1,0,-1
195 0 m 1,6,-1
 195 1188 l 1,7,-1
 256 1188 l 1,8,-1
 924 113 l 1,9,-1
 924 1188 l 1,10,-1
 985 1188 l 1,11,-1
 985 0 l 1,12,-1
 924 0 l 1,13,-1
 256 1077 l 1,14,-1
 256 0 l 1,15,-1
 195 0 l 1,6,-1
EndSplineSet
Fore
Refer: 315 711 N 1 0 0 1 260 -49 2
Refer: 81 110 S 1 0 0 1 0 0 3
Validated: 1
EndChar

StartChar: napostrophe
Encoding: 329 329 252
Width: 1355
GlyphClass: 2
Flags: HMW
LayerCount: 2
Back
SplineSet
371 0 m 1,0,-1
 371 1188 l 1,1,-1
 432 1188 l 1,2,-1
 1100 113 l 1,3,-1
 1100 1188 l 1,4,-1
 1161 1188 l 1,5,-1
 1161 0 l 1,6,-1
 1100 0 l 1,7,-1
 432 1077 l 1,8,-1
 432 0 l 1,9,-1
 371 0 l 1,0,-1
41 995 m 1,10,11
 64 1026 64 1026 95.5 1122.5 c 128,-1,12
 127 1219 127 1219 127 1315 c 1,13,-1
 68 1315 l 1,14,-1
 68 1434 l 1,15,-1
 203 1434 l 1,16,17
 203 1125 203 1125 92 963 c 1,18,-1
 41 995 l 1,10,11
EndSplineSet
Fore
Refer: 81 110 N 1 0 0 1 176 0 2
Refer: 325 8217 N 1 0 0 1 -110 0 2
Validated: 1
EndChar

StartChar: Eng
Encoding: 330 330 253
Width: 1310
GlyphClass: 2
Flags: MW
LayerCount: 2
Fore
SplineSet
203 1434 m 1,0,-1
 264 1434 l 1,1,-1
 264 1208 l 1,2,3
 366 1454 366 1454 680 1454 c 0,4,5
 932 1454 932 1454 1044.5 1299.5 c 128,-1,6
 1157 1145 1157 1145 1157 817 c 2,7,-1
 1157 612 l 2,8,9
 1157 346 1157 346 1037.5 173 c 128,-1,10
 918 0 918 0 743 0 c 2,11,-1
 545 0 l 1,12,-1
 545 61 l 1,13,-1
 743 61 l 2,14,15
 888 61 888 61 992 223 c 128,-1,16
 1096 385 1096 385 1096 612 c 2,17,-1
 1096 817 l 2,18,19
 1096 987 1096 987 1067 1103 c 128,-1,20
 1038 1219 1038 1219 981 1280 c 128,-1,21
 924 1341 924 1341 852 1367 c 128,-1,22
 780 1393 780 1393 680 1393 c 128,-1,23
 580 1393 580 1393 508 1367 c 128,-1,24
 436 1341 436 1341 379 1280 c 128,-1,25
 322 1219 322 1219 293 1103 c 128,-1,26
 264 987 264 987 264 817 c 2,27,-1
 264 0 l 1,28,-1
 203 0 l 1,29,-1
 203 1434 l 1,0,-1
EndSplineSet
Validated: 1
EndChar

StartChar: eng
Encoding: 331 331 254
Width: 1220
GlyphClass: 2
Flags: HMW
LayerCount: 2
Fore
SplineSet
195 1188 m 1,0,-1
 256 1188 l 1,1,-1
 256 971 l 1,2,3
 357 1208 357 1208 621 1208 c 0,4,5
 1047 1208 1047 1208 1047 594 c 2,6,-1
 1047 203 l 2,7,8
 1047 -63 1047 -63 927 -236.5 c 128,-1,9
 807 -410 807 -410 633 -410 c 2,10,-1
 434 -410 l 1,11,-1
 434 -348 l 1,12,-1
 633 -348 l 2,13,14
 778 -348 778 -348 881.5 -186.5 c 128,-1,15
 985 -25 985 -25 985 203 c 2,16,-1
 985 594 l 2,17,18
 985 899 985 899 888 1023 c 128,-1,19
 791 1147 791 1147 621 1147 c 128,-1,20
 451 1147 451 1147 353.5 1023 c 128,-1,21
 256 899 256 899 256 594 c 2,22,-1
 256 0 l 1,23,-1
 195 0 l 1,24,-1
 195 1188 l 1,0,-1
EndSplineSet
Validated: 1
EndChar

StartChar: Omacron
Encoding: 332 332 255
Width: 1269
GlyphClass: 2
Flags: MW
LayerCount: 2
Back
SplineSet
635 -20 m 128,-1,1
 383 -20 383 -20 270.5 134.5 c 128,-1,2
 158 289 158 289 158 616 c 2,3,-1
 158 817 l 2,4,5
 158 1145 158 1145 270.5 1299.5 c 128,-1,6
 383 1454 383 1454 635 1454 c 128,-1,7
 887 1454 887 1454 999.5 1299.5 c 128,-1,8
 1112 1145 1112 1145 1112 817 c 2,9,-1
 1112 616 l 2,10,11
 1112 288 1112 288 999.5 134 c 128,-1,0
 887 -20 887 -20 635 -20 c 128,-1,1
635 1393 m 128,-1,13
 535 1393 535 1393 463 1367 c 128,-1,14
 391 1341 391 1341 333.5 1280 c 128,-1,15
 276 1219 276 1219 247.5 1103 c 128,-1,16
 219 987 219 987 219 817 c 2,17,-1
 219 616 l 2,18,19
 219 446 219 446 247.5 330.5 c 128,-1,20
 276 215 276 215 333.5 153.5 c 128,-1,21
 391 92 391 92 463 66.5 c 128,-1,22
 535 41 535 41 635 41 c 128,-1,23
 735 41 735 41 807 66.5 c 128,-1,24
 879 92 879 92 936 153.5 c 128,-1,25
 993 215 993 215 1022 330.5 c 128,-1,26
 1051 446 1051 446 1051 616 c 2,27,-1
 1051 817 l 2,28,29
 1051 987 1051 987 1022 1103 c 128,-1,30
 993 1219 993 1219 936 1280 c 128,-1,31
 879 1341 879 1341 807 1367 c 128,-1,12
 735 1393 735 1393 635 1393 c 128,-1,13
410 1577 m 1,32,-1
 410 1638 l 1,33,-1
 860 1638 l 1,34,-1
 860 1577 l 1,35,-1
 410 1577 l 1,32,-1
EndSplineSet
Fore
Refer: 109 175 S 1 0 0 1 340 204 2
Refer: 50 79 N 1 0 0 1 0 0 3
Validated: 1
EndChar

StartChar: omacron
Encoding: 333 333 256
Width: 1241
GlyphClass: 2
Flags: MW
LayerCount: 2
Back
SplineSet
620.5 1147 m 128,-1,1
 518 1147 518 1147 448.5 1125.5 c 128,-1,2
 379 1104 379 1104 320.5 1045.5 c 128,-1,3
 262 987 262 987 233.5 875.5 c 128,-1,4
 205 764 205 764 205 594 c 128,-1,5
 205 424 205 424 233.5 312.5 c 128,-1,6
 262 201 262 201 320.5 142.5 c 128,-1,7
 379 84 379 84 448.5 62.5 c 128,-1,8
 518 41 518 41 620.5 41 c 128,-1,9
 723 41 723 41 792.5 62.5 c 128,-1,10
 862 84 862 84 920.5 142.5 c 128,-1,11
 979 201 979 201 1007.5 312.5 c 128,-1,12
 1036 424 1036 424 1036 594 c 128,-1,13
 1036 764 1036 764 1007.5 875.5 c 128,-1,14
 979 987 979 987 920.5 1045.5 c 128,-1,15
 862 1104 862 1104 792.5 1125.5 c 128,-1,0
 723 1147 723 1147 620.5 1147 c 128,-1,1
621 -20 m 128,-1,17
 365 -20 365 -20 254 125 c 128,-1,18
 143 270 143 270 143 594 c 128,-1,19
 143 918 143 918 254 1063 c 128,-1,20
 365 1208 365 1208 621 1208 c 128,-1,21
 877 1208 877 1208 987.5 1063 c 128,-1,22
 1098 918 1098 918 1098 594 c 128,-1,23
 1098 270 1098 270 987.5 125 c 128,-1,16
 877 -20 877 -20 621 -20 c 128,-1,17
395 1372 m 1,24,-1
 395 1434 l 1,25,-1
 846 1434 l 1,26,-1
 846 1372 l 1,27,-1
 395 1372 l 1,24,-1
EndSplineSet
Fore
Refer: 109 175 S 1 0 0 1 325 0 2
Refer: 82 111 N 1 0 0 1 0 0 3
Validated: 1
EndChar

StartChar: Obreve
Encoding: 334 334 257
Width: 1269
GlyphClass: 2
Flags: HMW
LayerCount: 2
Back
SplineSet
840 1677 m 1,0,1
 840 1589 840 1589 778.5 1531 c 128,-1,2
 717 1473 717 1473 635 1473 c 0,3,4
 547 1473 547 1473 488.5 1534 c 128,-1,5
 430 1595 430 1595 430 1677 c 1,6,-1
 492 1677 l 1,7,8
 492 1616 492 1616 535 1575 c 128,-1,9
 578 1534 578 1534 635 1534 c 0,10,11
 696 1534 696 1534 737 1577 c 128,-1,12
 778 1620 778 1620 778 1677 c 1,13,-1
 840 1677 l 1,0,1
635 -20 m 128,-1,15
 383 -20 383 -20 270.5 134.5 c 128,-1,16
 158 289 158 289 158 616 c 2,17,-1
 158 817 l 2,18,19
 158 1145 158 1145 270.5 1299.5 c 128,-1,20
 383 1454 383 1454 635 1454 c 128,-1,21
 887 1454 887 1454 999.5 1299.5 c 128,-1,22
 1112 1145 1112 1145 1112 817 c 2,23,-1
 1112 616 l 2,24,25
 1112 288 1112 288 999.5 134 c 128,-1,14
 887 -20 887 -20 635 -20 c 128,-1,15
635 1393 m 128,-1,27
 535 1393 535 1393 463 1367 c 128,-1,28
 391 1341 391 1341 333.5 1280 c 128,-1,29
 276 1219 276 1219 247.5 1103 c 128,-1,30
 219 987 219 987 219 817 c 2,31,-1
 219 616 l 2,32,33
 219 446 219 446 247.5 330.5 c 128,-1,34
 276 215 276 215 333.5 153.5 c 128,-1,35
 391 92 391 92 463 66.5 c 128,-1,36
 535 41 535 41 635 41 c 128,-1,37
 735 41 735 41 807 66.5 c 128,-1,38
 879 92 879 92 936 153.5 c 128,-1,39
 993 215 993 215 1022 330.5 c 128,-1,40
 1051 446 1051 446 1051 616 c 2,41,-1
 1051 817 l 2,42,43
 1051 987 1051 987 1022 1103 c 128,-1,44
 993 1219 993 1219 936 1280 c 128,-1,45
 879 1341 879 1341 807 1367 c 128,-1,26
 735 1393 735 1393 635 1393 c 128,-1,27
EndSplineSet
Fore
Refer: 316 728 S 1 0 0 1 328 303 2
Refer: 50 79 N 1 0 0 1 0 0 3
Validated: 1
EndChar

StartChar: obreve
Encoding: 335 335 258
Width: 1241
GlyphClass: 2
Flags: HMW
LayerCount: 2
Back
SplineSet
825 1473 m 1,0,1
 825 1385 825 1385 763.5 1326.5 c 128,-1,2
 702 1268 702 1268 621 1268 c 0,3,4
 533 1268 533 1268 474.5 1329.5 c 128,-1,5
 416 1391 416 1391 416 1473 c 1,6,-1
 477 1473 l 1,7,8
 477 1412 477 1412 520 1370.5 c 128,-1,9
 563 1329 563 1329 621 1329 c 0,10,11
 682 1329 682 1329 723 1372 c 128,-1,12
 764 1415 764 1415 764 1473 c 1,13,-1
 825 1473 l 1,0,1
620.5 1147 m 128,-1,15
 518 1147 518 1147 448.5 1125.5 c 128,-1,16
 379 1104 379 1104 320.5 1045.5 c 128,-1,17
 262 987 262 987 233.5 875.5 c 128,-1,18
 205 764 205 764 205 594 c 128,-1,19
 205 424 205 424 233.5 312.5 c 128,-1,20
 262 201 262 201 320.5 142.5 c 128,-1,21
 379 84 379 84 448.5 62.5 c 128,-1,22
 518 41 518 41 620.5 41 c 128,-1,23
 723 41 723 41 792.5 62.5 c 128,-1,24
 862 84 862 84 920.5 142.5 c 128,-1,25
 979 201 979 201 1007.5 312.5 c 128,-1,26
 1036 424 1036 424 1036 594 c 128,-1,27
 1036 764 1036 764 1007.5 875.5 c 128,-1,28
 979 987 979 987 920.5 1045.5 c 128,-1,29
 862 1104 862 1104 792.5 1125.5 c 128,-1,14
 723 1147 723 1147 620.5 1147 c 128,-1,15
621 -20 m 128,-1,31
 365 -20 365 -20 254 125 c 128,-1,32
 143 270 143 270 143 594 c 128,-1,33
 143 918 143 918 254 1063 c 128,-1,34
 365 1208 365 1208 621 1208 c 128,-1,35
 877 1208 877 1208 987.5 1063 c 128,-1,36
 1098 918 1098 918 1098 594 c 128,-1,37
 1098 270 1098 270 987.5 125 c 128,-1,30
 877 -20 877 -20 621 -20 c 128,-1,31
EndSplineSet
Fore
Refer: 316 728 S 1 0 0 1 313 99 2
Refer: 82 111 N 1 0 0 1 0 0 3
Validated: 1
EndChar

StartChar: Ohungarumlaut
Encoding: 336 336 259
Width: 1269
GlyphClass: 2
Flags: HMW
LayerCount: 2
Back
SplineSet
711 1761 m 1,0,-1
 471 1477 l 1,1,-1
 424 1516 l 1,2,-1
 664 1802 l 1,3,-1
 711 1761 l 1,0,-1
956 1761 m 1,4,-1
 717 1477 l 1,5,-1
 670 1516 l 1,6,-1
 909 1802 l 1,7,-1
 956 1761 l 1,4,-1
635 -20 m 128,-1,9
 383 -20 383 -20 270.5 134.5 c 128,-1,10
 158 289 158 289 158 616 c 2,11,-1
 158 817 l 2,12,13
 158 1145 158 1145 270.5 1299.5 c 128,-1,14
 383 1454 383 1454 635 1454 c 128,-1,15
 887 1454 887 1454 999.5 1299.5 c 128,-1,16
 1112 1145 1112 1145 1112 817 c 2,17,-1
 1112 616 l 2,18,19
 1112 288 1112 288 999.5 134 c 128,-1,8
 887 -20 887 -20 635 -20 c 128,-1,9
635 1393 m 128,-1,21
 535 1393 535 1393 463 1367 c 128,-1,22
 391 1341 391 1341 333.5 1280 c 128,-1,23
 276 1219 276 1219 247.5 1103 c 128,-1,24
 219 987 219 987 219 817 c 2,25,-1
 219 616 l 2,26,27
 219 446 219 446 247.5 330.5 c 128,-1,28
 276 215 276 215 333.5 153.5 c 128,-1,29
 391 92 391 92 463 66.5 c 128,-1,30
 535 41 535 41 635 41 c 128,-1,31
 735 41 735 41 807 66.5 c 128,-1,32
 879 92 879 92 936 153.5 c 128,-1,33
 993 215 993 215 1022 330.5 c 128,-1,34
 1051 446 1051 446 1051 616 c 2,35,-1
 1051 817 l 2,36,37
 1051 987 1051 987 1022 1103 c 128,-1,38
 993 1219 993 1219 936 1280 c 128,-1,39
 879 1341 879 1341 807 1367 c 128,-1,20
 735 1393 735 1393 635 1393 c 128,-1,21
EndSplineSet
Fore
Refer: 321 733 S 1 0 0 1 332 197 2
Refer: 50 79 N 1 0 0 1 0 0 3
Validated: 1
EndChar

StartChar: ohungarumlaut
Encoding: 337 337 260
Width: 1241
GlyphClass: 2
Flags: HMW
LayerCount: 2
Back
SplineSet
711 1565 m 1,0,-1
 471 1280 l 1,1,-1
 424 1319 l 1,2,-1
 664 1606 l 1,3,-1
 711 1565 l 1,0,-1
956 1565 m 1,4,-1
 717 1280 l 1,5,-1
 670 1319 l 1,6,-1
 909 1606 l 1,7,-1
 956 1565 l 1,4,-1
620.5 1147 m 128,-1,9
 518 1147 518 1147 448.5 1125.5 c 128,-1,10
 379 1104 379 1104 320.5 1045.5 c 128,-1,11
 262 987 262 987 233.5 875.5 c 128,-1,12
 205 764 205 764 205 594 c 128,-1,13
 205 424 205 424 233.5 312.5 c 128,-1,14
 262 201 262 201 320.5 142.5 c 128,-1,15
 379 84 379 84 448.5 62.5 c 128,-1,16
 518 41 518 41 620.5 41 c 128,-1,17
 723 41 723 41 792.5 62.5 c 128,-1,18
 862 84 862 84 920.5 142.5 c 128,-1,19
 979 201 979 201 1007.5 312.5 c 128,-1,20
 1036 424 1036 424 1036 594 c 128,-1,21
 1036 764 1036 764 1007.5 875.5 c 128,-1,22
 979 987 979 987 920.5 1045.5 c 128,-1,23
 862 1104 862 1104 792.5 1125.5 c 128,-1,8
 723 1147 723 1147 620.5 1147 c 128,-1,9
621 -20 m 128,-1,25
 365 -20 365 -20 254 125 c 128,-1,26
 143 270 143 270 143 594 c 128,-1,27
 143 918 143 918 254 1063 c 128,-1,28
 365 1208 365 1208 621 1208 c 128,-1,29
 877 1208 877 1208 987.5 1063 c 128,-1,30
 1098 918 1098 918 1098 594 c 128,-1,31
 1098 270 1098 270 987.5 125 c 128,-1,24
 877 -20 877 -20 621 -20 c 128,-1,25
EndSplineSet
Fore
Refer: 321 733 S 1 0 0 1 332 0 2
Refer: 82 111 N 1 0 0 1 0 0 3
Validated: 1
EndChar

StartChar: OE
Encoding: 338 338 261
Width: 1914
GlyphClass: 2
Flags: MW
LayerCount: 2
Fore
SplineSet
1673 750 m 1,0,-1
 1065 750 l 1,1,-1
 1692 1372 l 1,2,-1
 999 1372 l 1,3,-1
 999 61 l 1,4,-1
 1794 61 l 1,5,-1
 1794 0 l 1,6,-1
 938 0 l 1,7,-1
 938 70 l 1,8,9
 829 -20 829 -20 635 -20 c 0,10,11
 383 -20 383 -20 270.5 134.5 c 128,-1,12
 158 289 158 289 158 616 c 2,13,-1
 158 817 l 2,14,15
 158 1145 158 1145 270.5 1299.5 c 128,-1,16
 383 1454 383 1454 635 1454 c 0,17,18
 830 1454 830 1454 938 1364 c 1,19,-1
 938 1434 l 1,20,-1
 1841 1434 l 1,21,-1
 1214 811 l 1,22,-1
 1673 811 l 1,23,-1
 1673 750 l 1,0,-1
938 156 m 1,24,-1
 938 1278 l 1,25,26
 842 1393 842 1393 635 1393 c 0,27,28
 535 1393 535 1393 463 1367 c 128,-1,29
 391 1341 391 1341 333.5 1280 c 128,-1,30
 276 1219 276 1219 247.5 1103 c 128,-1,31
 219 987 219 987 219 817 c 2,32,-1
 219 616 l 2,33,34
 219 446 219 446 247.5 330.5 c 128,-1,35
 276 215 276 215 333.5 153.5 c 128,-1,36
 391 92 391 92 463 66.5 c 128,-1,37
 535 41 535 41 635 41 c 0,38,39
 842 41 842 41 938 156 c 1,24,-1
EndSplineSet
Validated: 1
EndChar

StartChar: oe
Encoding: 339 339 262
Width: 2015
GlyphClass: 2
Flags: MW
LayerCount: 2
Fore
SplineSet
1882 121 m 1,0,1
 1769 -20 1769 -20 1513 -20 c 0,2,3
 1325 -20 1325 -20 1217.5 56.5 c 128,-1,4
 1110 133 1110 133 1067 299 c 1,5,6
 1024 133 1024 133 916.5 56.5 c 128,-1,7
 809 -20 809 -20 621 -20 c 0,8,9
 365 -20 365 -20 254 125 c 128,-1,10
 143 270 143 270 143 594 c 128,-1,11
 143 918 143 918 254 1063 c 128,-1,12
 365 1208 365 1208 621 1208 c 0,13,14
 809 1208 809 1208 916.5 1131.5 c 128,-1,15
 1024 1055 1024 1055 1067 889 c 1,16,17
 1110 1055 1110 1055 1217.5 1131.5 c 128,-1,18
 1325 1208 1325 1208 1513 1208 c 0,19,20
 1810 1208 1810 1208 1917 1014 c 1,21,-1
 1415 594 l 1,22,-1
 1319 594 l 1,23,-1
 1837 1026 l 1,24,25
 1747 1147 1747 1147 1513 1147 c 0,26,27
 1411 1147 1411 1147 1341.5 1125.5 c 128,-1,28
 1272 1104 1272 1104 1213.5 1045.5 c 128,-1,29
 1155 987 1155 987 1126.5 875.5 c 128,-1,30
 1098 764 1098 764 1098 594 c 128,-1,31
 1098 424 1098 424 1126.5 312.5 c 128,-1,32
 1155 201 1155 201 1213.5 142.5 c 128,-1,33
 1272 84 1272 84 1341.5 62.5 c 128,-1,34
 1411 41 1411 41 1513 41 c 0,35,36
 1746 41 1746 41 1837 162 c 1,37,-1
 1882 121 l 1,0,1
620.5 1147 m 128,-1,39
 518 1147 518 1147 448.5 1125.5 c 128,-1,40
 379 1104 379 1104 320.5 1045.5 c 128,-1,41
 262 987 262 987 233.5 875.5 c 128,-1,42
 205 764 205 764 205 594 c 128,-1,43
 205 424 205 424 233.5 312.5 c 128,-1,44
 262 201 262 201 320.5 142.5 c 128,-1,45
 379 84 379 84 448.5 62.5 c 128,-1,46
 518 41 518 41 620.5 41 c 128,-1,47
 723 41 723 41 792.5 62.5 c 128,-1,48
 862 84 862 84 920.5 142.5 c 128,-1,49
 979 201 979 201 1007.5 312.5 c 128,-1,50
 1036 424 1036 424 1036 594 c 128,-1,51
 1036 764 1036 764 1007.5 875.5 c 128,-1,52
 979 987 979 987 920.5 1045.5 c 128,-1,53
 862 1104 862 1104 792.5 1125.5 c 128,-1,38
 723 1147 723 1147 620.5 1147 c 128,-1,39
EndSplineSet
Validated: 1
EndChar

StartChar: Racute
Encoding: 340 340 263
Width: 1126
GlyphClass: 2
Flags: MW
LayerCount: 2
Back
SplineSet
791 1761 m 1,0,-1
 551 1477 l 1,1,-1
 504 1516 l 1,2,-1
 743 1802 l 1,3,-1
 791 1761 l 1,0,-1
362 61 m 1,4,-1
 928 61 l 1,5,-1
 680 741 l 1,6,-1
 795 807 l 1,7,8
 936 885 936 885 936 1055 c 0,9,10
 936 1372 936 1372 453 1372 c 2,11,-1
 264 1372 l 1,12,-1
 264 0 l 1,13,-1
 203 0 l 1,14,-1
 203 1434 l 1,15,-1
 453 1434 l 2,16,17
 723 1434 723 1434 860 1334.5 c 128,-1,18
 997 1235 997 1235 997 1055 c 0,19,20
 997 850 997 850 825 754 c 2,21,-1
 756 715 l 1,22,-1
 1016 0 l 1,23,-1
 362 0 l 1,24,-1
 362 61 l 1,4,-1
EndSplineSet
Fore
Refer: 111 180 S 1 0 0 1 412 197 2
Refer: 53 82 N 1 0 0 1 0 0 3
Validated: 1
EndChar

StartChar: racute
Encoding: 341 341 264
Width: 1056
GlyphClass: 2
Flags: MW
LayerCount: 2
Back
SplineSet
709 1565 m 1,0,-1
 469 1280 l 1,1,-1
 422 1319 l 1,2,-1
 662 1606 l 1,3,-1
 709 1565 l 1,0,-1
694 596 m 1,4,-1
 973 0 l 1,5,-1
 905 0 l 1,6,-1
 618 614 l 1,7,8
 622 616 622 616 654 631.5 c 128,-1,9
 686 647 686 647 698.5 654.5 c 128,-1,10
 711 662 711 662 739.5 680 c 128,-1,11
 768 698 768 698 782.5 715.5 c 128,-1,12
 797 733 797 733 814 756.5 c 128,-1,13
 831 780 831 780 839.5 810 c 128,-1,14
 848 840 848 840 848 874 c 0,15,16
 848 1003 848 1003 725 1064.5 c 128,-1,17
 602 1126 602 1126 420 1126 c 2,18,-1
 256 1126 l 1,19,-1
 256 0 l 1,20,-1
 195 0 l 1,21,-1
 195 1188 l 1,22,-1
 420 1188 l 2,23,24
 662 1188 662 1188 785.5 1104 c 128,-1,25
 909 1020 909 1020 909 874 c 0,26,27
 909 780 909 780 845.5 707.5 c 128,-1,28
 782 635 782 635 694 596 c 1,4,-1
EndSplineSet
Fore
Refer: 111 180 S 1 0 0 1 330 0 2
Refer: 85 114 N 1 0 0 1 0 0 3
Validated: 1
EndChar

StartChar: Rcommaaccent
Encoding: 342 342 265
Width: 1126
GlyphClass: 2
Flags: HMW
LayerCount: 2
Back
SplineSet
950 0 m 1,0,-1
 680 741 l 1,1,-1
 795 807 l 1,2,3
 936 885 936 885 936 1055 c 0,4,5
 936 1372 936 1372 453 1372 c 2,6,-1
 264 1372 l 1,7,-1
 264 0 l 1,8,-1
 203 0 l 1,9,-1
 203 1434 l 1,10,-1
 453 1434 l 2,11,12
 723 1434 723 1434 860 1334.5 c 128,-1,13
 997 1235 997 1235 997 1055 c 0,14,15
 997 850 997 850 825 754 c 2,16,-1
 756 715 l 1,17,-1
 1016 0 l 1,18,-1
 950 0 l 1,0,-1
514 -360 m 1,19,20
 602 -292 602 -292 602 -195 c 1,21,-1
 543 -195 l 1,22,-1
 543 -76 l 1,23,-1
 678 -76 l 1,24,25
 678 -221 678 -221 651.5 -282.5 c 128,-1,26
 625 -344 625 -344 555 -406 c 1,27,-1
 514 -360 l 1,19,20
EndSplineSet
Fore
Refer: 113 184 S 1 0 0 1 422 0 2
Refer: 347 -1 N 1 0 0 1 0 0 2
Validated: 1
EndChar

StartChar: rcommaaccent
Encoding: 343 343 266
Width: 1056
GlyphClass: 2
Flags: MW
LayerCount: 2
Back
SplineSet
455 -360 m 1,0,1
 543 -292 543 -292 543 -195 c 1,2,-1
 483 -195 l 1,3,-1
 483 -76 l 1,4,-1
 618 -76 l 1,5,6
 618 -221 618 -221 591.5 -282.5 c 128,-1,7
 565 -344 565 -344 496 -406 c 1,8,-1
 455 -360 l 1,0,1
694 596 m 1,9,-1
 973 0 l 1,10,-1
 905 0 l 1,11,-1
 618 614 l 1,12,13
 622 616 622 616 654 631.5 c 128,-1,14
 686 647 686 647 698.5 654.5 c 128,-1,15
 711 662 711 662 739.5 680 c 128,-1,16
 768 698 768 698 782.5 715.5 c 128,-1,17
 797 733 797 733 814 756.5 c 128,-1,18
 831 780 831 780 839.5 810 c 128,-1,19
 848 840 848 840 848 874 c 0,20,21
 848 1003 848 1003 725 1064.5 c 128,-1,22
 602 1126 602 1126 420 1126 c 2,23,-1
 256 1126 l 1,24,-1
 256 0 l 1,25,-1
 195 0 l 1,26,-1
 195 1188 l 1,27,-1
 420 1188 l 2,28,29
 662 1188 662 1188 785.5 1104 c 128,-1,30
 909 1020 909 1020 909 874 c 0,31,32
 909 780 909 780 845.5 707.5 c 128,-1,33
 782 635 782 635 694 596 c 1,9,-1
EndSplineSet
Fore
Refer: 113 184 N 1 0 0 1 362 0 2
Refer: 85 114 N 1 0 0 1 0 0 3
Validated: 1
EndChar

StartChar: Rcaron
Encoding: 344 344 267
Width: 1126
GlyphClass: 2
Flags: HMW
LayerCount: 2
Back
SplineSet
555 1456 m 1,0,-1
 315 1743 l 1,1,-1
 362 1782 l 1,2,-1
 555 1552 l 1,3,-1
 748 1782 l 1,4,-1
 795 1743 l 1,5,-1
 555 1456 l 1,0,-1
362 61 m 1,6,-1
 928 61 l 1,7,-1
 680 741 l 1,8,-1
 795 807 l 1,9,10
 936 885 936 885 936 1055 c 0,11,12
 936 1372 936 1372 453 1372 c 2,13,-1
 264 1372 l 1,14,-1
 264 0 l 1,15,-1
 203 0 l 1,16,-1
 203 1434 l 1,17,-1
 453 1434 l 2,18,19
 723 1434 723 1434 860 1334.5 c 128,-1,20
 997 1235 997 1235 997 1055 c 0,21,22
 997 850 997 850 825 754 c 2,23,-1
 756 715 l 1,24,-1
 1016 0 l 1,25,-1
 362 0 l 1,26,-1
 362 61 l 1,6,-1
EndSplineSet
Fore
Refer: 315 711 S 1 0 0 1 223 176 2
Refer: 53 82 N 1 0 0 1 0 0 3
Validated: 1
EndChar

StartChar: rcaron
Encoding: 345 345 268
Width: 1056
GlyphClass: 2
Flags: HMW
LayerCount: 2
Back
SplineSet
518 1231 m 1,0,-1
 279 1518 l 1,1,-1
 326 1556 l 1,2,-1
 518 1327 l 1,3,-1
 711 1556 l 1,4,-1
 758 1518 l 1,5,-1
 518 1231 l 1,0,-1
694 596 m 1,6,-1
 973 0 l 1,7,-1
 905 0 l 1,8,-1
 618 614 l 1,9,10
 622 616 622 616 654 631.5 c 128,-1,11
 686 647 686 647 698.5 654.5 c 128,-1,12
 711 662 711 662 739.5 680 c 128,-1,13
 768 698 768 698 782.5 715.5 c 128,-1,14
 797 733 797 733 814 756.5 c 128,-1,15
 831 780 831 780 839.5 810 c 128,-1,16
 848 840 848 840 848 874 c 0,17,18
 848 1003 848 1003 725 1064.5 c 128,-1,19
 602 1126 602 1126 420 1126 c 2,20,-1
 256 1126 l 1,21,-1
 256 0 l 1,22,-1
 195 0 l 1,23,-1
 195 1188 l 1,24,-1
 420 1188 l 2,25,26
 662 1188 662 1188 785.5 1104 c 128,-1,27
 909 1020 909 1020 909 874 c 0,28,29
 909 780 909 780 845.5 707.5 c 128,-1,30
 782 635 782 635 694 596 c 1,6,-1
EndSplineSet
Fore
Refer: 315 711 N 1 0 0 1 186 -49 2
Refer: 85 114 N 1 0 0 1 0 0 3
Validated: 1
EndChar

StartChar: Sacute
Encoding: 346 346 269
Width: 1148
GlyphClass: 2
Flags: MW
LayerCount: 2
Back
SplineSet
805 1761 m 1,0,-1
 565 1477 l 1,1,-1
 518 1516 l 1,2,-1
 758 1802 l 1,3,-1
 805 1761 l 1,0,-1
160 1079 m 0,4,5
 160 1278 160 1278 260 1366 c 128,-1,6
 360 1454 360 1454 586 1454 c 0,7,8
 744 1454 744 1454 840 1372 c 128,-1,9
 936 1290 936 1290 979 1122 c 1,10,-1
 788 979 l 1,11,-1
 688 979 l 1,12,-1
 909 1145 l 1,13,14
 866 1282 866 1282 785.5 1337.5 c 128,-1,15
 705 1393 705 1393 586 1393 c 0,16,17
 504 1393 504 1393 447.5 1382.5 c 128,-1,18
 391 1372 391 1372 335 1342.5 c 128,-1,19
 279 1313 279 1313 250 1247.5 c 128,-1,20
 221 1182 221 1182 221 1079 c 0,21,22
 221 989 221 989 304 919.5 c 128,-1,23
 387 850 387 850 506 801 c 128,-1,24
 625 752 625 752 744.5 700.5 c 128,-1,25
 864 649 864 649 947 569 c 128,-1,26
 1030 489 1030 489 1030 385 c 0,27,28
 1030 180 1030 180 928.5 80 c 128,-1,29
 827 -20 827 -20 582 -20 c 0,30,31
 381 -20 381 -20 266.5 60.5 c 128,-1,32
 152 141 152 141 109 311 c 1,33,-1
 166 336 l 1,34,35
 207 170 207 170 306.5 105.5 c 128,-1,36
 406 41 406 41 582 41 c 0,37,38
 779 41 779 41 874 117 c 128,-1,39
 969 193 969 193 969 385 c 0,40,41
 969 475 969 475 886 544.5 c 128,-1,42
 803 614 803 614 683 663.5 c 128,-1,43
 563 713 563 713 444.5 764 c 128,-1,44
 326 815 326 815 243 895 c 128,-1,45
 160 975 160 975 160 1079 c 0,4,5
EndSplineSet
Fore
Refer: 111 180 N 1 0 0 1 426 197 2
Refer: 54 83 N 1 0 0 1 0 0 3
Validated: 1
EndChar

StartChar: sacute
Encoding: 347 347 270
Width: 1058
GlyphClass: 2
Flags: MW
LayerCount: 2
Back
SplineSet
731 1565 m 1,0,-1
 492 1280 l 1,1,-1
 444 1319 l 1,2,-1
 684 1606 l 1,3,-1
 731 1565 l 1,0,-1
508 1212 m 0,4,5
 762 1212 762 1212 868 1100 c 1,6,-1
 827 1055 l 1,7,8
 729 1151 729 1151 516 1151 c 0,9,10
 197 1151 197 1151 197 897 c 0,11,12
 197 799 197 799 274.5 740.5 c 128,-1,13
 352 682 352 682 463.5 651.5 c 128,-1,14
 575 621 575 621 687 587 c 128,-1,15
 799 553 799 553 876.5 478 c 128,-1,16
 954 403 954 403 954 283 c 0,17,18
 954 142 954 142 837.5 57.5 c 128,-1,19
 721 -27 721 -27 500 -27 c 0,20,21
 391 -27 391 -27 285.5 2 c 128,-1,22
 180 31 180 31 129 86 c 1,23,-1
 170 131 l 1,24,25
 274 35 274 35 492 35 c 0,26,27
 691 35 691 35 792 108.5 c 128,-1,28
 893 182 893 182 893 281 c 0,29,30
 893 383 893 383 815 446.5 c 128,-1,31
 737 510 737 510 625.5 541.5 c 128,-1,32
 514 573 514 573 402.5 607 c 128,-1,33
 291 641 291 641 213 712.5 c 128,-1,34
 135 784 135 784 135 901 c 0,35,36
 135 1059 135 1059 240.5 1135.5 c 128,-1,37
 346 1212 346 1212 508 1212 c 0,4,5
EndSplineSet
Fore
Refer: 111 180 S 1 0 0 1 352 0 2
Refer: 86 115 N 1 0 0 1 0 0 3
Validated: 1
EndChar

